{
.appVersion = "3331";
.formatVersion = 3;
axes = (
{
name = Weight;
tag = wght;
}
);
classes = (
{
automatic = 1;
code = "A Aacute Abreve Acircumflex Adieresis Agrave Amacron Aogonek Aring Aringacute Atilde AE AEacute B C Cacute Ccaron Ccedilla Ccircumflex Cdotaccent D Dcaron Dcroat Eth E Eacute Ebreve Ecaron Ecircumflex Edieresis Edotaccent Egrave Emacron Eogonek Schwa F G Gbreve Gcaron Gcircumflex Gcommaaccent Gdotaccent H Hbar Hcircumflex I IJ Iacute Ibreve Icircumflex Idieresis Idotaccent Igrave Imacron Iogonek Itilde J Jacute Jcircumflex K Kcommaaccent L Lacute Lcaron Lcommaaccent Ldot Lslash M N Nacute Ncaron Ncommaaccent Ntilde Eng O Oacute Obreve Ocircumflex Odieresis Ograve Ohungarumlaut Omacron Oslash Oslashacute Otilde OE P Thorn Q R Racute Rcaron Rcommaaccent S Sacute Scaron Scedilla Scircumflex Scommaaccent Germandbls T Tbar Tcaron Tcedilla Tcommaaccent U Uacute Ubreve Ucircumflex Udieresis Ugrave Uhungarumlaut Umacron Uogonek Uring Utilde V W Wacute Wcircumflex Wdieresis Wgrave X Y Yacute Ycircumflex Ydieresis Ygrave Z Zacute Zcaron Zdotaccent Delta Omega";
name = Uppercase;
}
);
customParameters = (
{
name = "Use Typo Metrics";
value = 1;
}
);
date = "2021-06-03 13:53:52 +0000";
familyName = Savate;
featurePrefixes = (
{
code = "languagesystem DFLT dflt;
languagesystem latn dflt;";
name = Languagesystems;
}
);
features = (
{
automatic = 1;
code = "feature locl;
feature ordn;
feature case;
";
tag = aalt;
},
{
automatic = 1;
code = "lookup ccmp_Other_1 {
	lookupflag 0;
	@Markscomb = [dieresiscomb dotaccentcomb gravecomb acutecomb hungarumlautcomb circumflexcomb caroncomb brevecomb ringcomb tildecomb macroncomb];
	@MarkscombCase = [dieresiscomb.case dotaccentcomb.case gravecomb.case acutecomb.case hungarumlautcomb.case circumflexcomb.case caroncomb.case brevecomb.case ringcomb.case tildecomb.case macroncomb.case];
	sub @Markscomb @Markscomb' by @MarkscombCase;
	sub @Uppercase @Markscomb' by @MarkscombCase;
} ccmp_Other_1;

lookup ccmp_Other_2 {

glyphs = (
{
glyphname = A;
lastChange = "2024-08-28 13:16:21 +0000";
layers = (
{
anchors = (
{
name = ogonek;
pos = (628,0);
},
{
name = top;
pos = (321,730);
}
);
layerId = "79167EE4-8C29-4BCE-A9E7-C1CFC4557E33";
shapes = (
{
closed = 1;
nodes = (
(52,0,l),
(340,682,l),
(318,699,l),
(613,0,l),
(648,0,l),
(340,730,l),
(308,730,l),
(0,0,l)
);
},
{
closed = 1;
nodes = (
(530,221,l),
(530,271,l),
(121,271,l),
(121,221,l)
);
}
);
width = 648;
},
{
anchors = (
{
name = ogonek;
pos = (691,0);
},
{
name = top;
pos = (372,730);
}
);
layerId = "41EDA971-A137-4972-81AF-7929AB7CAABF";
shapes = (
{
closed = 1;
nodes = (
(262,0,l),
(483,558,l),
(420,558,l),
(637,0,l),
(740,0,l),
(456,730,l),
(288,730,l),
(0,0,l)
);
},
{
closed = 1;
nodes = (
(581,165,l),
(581,261,l),
(286,261,l),
(286,165,l)
);
}
);
width = 740;
},
{
anchors = (
{
name = ogonek;
pos = (677,0);
},
{
name = top;
pos = (385,730);
}
);
associatedMasterId = "41EDA971-A137-4972-81AF-7929AB7CAABF";
layerId = "03C105DC-FB74-46BB-BBDA-1BF5299C4657";
name = "1 déc. 21 à 16:57";
shapes = (
{
closed = 1;
nodes = (
(233,0,l),
(455,582,l),
(403,582,l),
(627,0,l),
(726,0,l),
(447,730,l),
(269,730,l),
(0,0,l)
);
},
{
closed = 1;
nodes = (
(567,163,l),
(567,278,l),
(272,278,l),
(272,163,l)
);
}
);
width = 726;
},
{
anchors = (
{
name = ogonek;
pos = (677,0);
},
{
name = top;
pos = (385,730);
}
);
associatedMasterId = "41EDA971-A137-4972-81AF-7929AB7CAABF";
layerId = "B2C76CC0-7EC4-4923-8B3A-39A542FF922E";
name = "9 avr. 24 à 11:55";
shapes = (
{
closed = 1;
nodes = (
(233,0,l),
(459,558,l),
(402,558,l),
(623,0,l),
(726,0,l),
(438,730,l),
(284,730,l),
(0,0,l)
);
},
{
closed = 1;
nodes = (
(567,163,l),
(567,272,l),
(272,272,l),
(272,163,l)
);
}
);
width = 726;
},
{
anchors = (
{
name = ogonek;
pos = (677,0);
},
{
name = top;
pos = (385,730);
}
);
associatedMasterId = "41EDA971-A137-4972-81AF-7929AB7CAABF";
layerId = "2729A99F-0615-4D89-B2D5-6D85B4CFB6DF";
name = "9 avr. 24 à 12:20";
shapes = (
{
closed = 1;
nodes = (
(234,0,l),
(455,558,l),
(406,558,l),
(623,0,l),
(726,0,l),
(442,730,l),
(288,730,l),
(0,0,l)
);
},
{
closed = 1;
nodes = (
(567,163,l),
(567,263,l),
(272,263,l),
(272,163,l)
);
}
);
width = 726;
},
{
anchors = (
{
name = ogonek;
pos = (632,0);
},
{
name = top;
pos = (325,730);
}
);
associatedMasterId = "79167EE4-8C29-4BCE-A9E7-C1CFC4557E33";
layerId = "22789048-17EC-497F-B0B2-5C3ABB077000";
name = "24 juin 24 à 11:46";
shapes = (
{
closed = 1;
nodes = (
(32,0,l),
(341,715,l),
(310,682,l),
(590,0,l),
(646,0,l),
(347,730,l),
(313,730,l),
(-3,0,l)
);
},
{
closed = 1;
nodes = (
(530,221,l),
(530,271,l),
(116,271,l),
(116,221,l)
);
}
);
width = 643;
},
{
anchors = (
{
name = ogonek;
pos = (630,0);
},
{
name = top;
pos = (323,730);
}
);
associatedMasterId = "79167EE4-8C29-4BCE-A9E7-C1CFC4557E33";
layerId = "B1F570F8-5612-4B70-84C0-DF4AFF880061";
name = "25 juin 24 à 16:14";
shapes = (
{
closed = 1;
nodes = (
(35,0,l),
(330,699,l),
(306,682,l),
(593,0,l),
(650,0,l),
(342,730,l),
(308,730,l),
(0,0,l)
);
},
{
closed = 1;
nodes = (
(527,221,l),
(527,271,l),
(118,271,l),
(118,221,l)
);
}
);
width = 650;
}
);
unicode = 65;
},
{
glyphname = AE;
lastChange = "2024-08-28 15:20:39 +0000";
layers = (
{
anchors = (
{
name = top;
pos = (676,730);
}
);
background = {
shapes = (
{
closed = 1;
nodes = (
(966,672,l),
(966,730,l),
(553,730,l),
(553,672,l)
);
},
{
closed = 1;
nodes = (
(559,0,l),
(559,730,l),
(527,730,l),
(527,0,l)
);
},
{
closed = 1;
nodes = (
(973,0,l),
(973,54,l),
(553,54,l),
(553,0,l)
);
},
{
closed = 1;
nodes = (
(886,313,l),
(886,363,l),
(550,363,l),
(550,313,l)
);
},
{
closed = 1;
nodes = (
(59,0,l),
(570,730,l),
(507,730,l),
(-5,0,l)
);
},
{
closed = 1;
nodes = (
(534,313,l),
(534,363,l),
(275,363,l),
(241,313,l)
);
}
);
};
layerId = "79167EE4-8C29-4BCE-A9E7-C1CFC4557E33";
shapes = (
{
closed = 1;
nodes = (
(966,672,l),
(966,730,l),
(553,730,l),
(553,672,l)
);
},
{
closed = 1;
nodes = (
(559,0,l),
(559,730,l),
(527,730,l),
(527,0,l)
);
},
{
closed = 1;
nodes = (
(973,0,l),
(973,54,l),
(553,54,l),
(553,0,l)
);
},
{
closed = 1;
nodes = (
(886,313,l),
(886,363,l),
(550,363,l),
(550,313,l)
);
},
{
closed = 1;
nodes = (
(59,0,l),
(570,730,l),
(512,730,l),
(0,0,l)
);
},
{
closed = 1;
nodes = (
(534,313,l),
(534,363,l),
(275,363,l),
(241,313,l)
);
}
);
width = 1025;
},
{
anchors = (
{
name = top;
pos = (710,730);
}
);
layerId = "41EDA971-A137-4972-81AF-7929AB7CAABF";
shapes = (
{
closed = 1;
nodes = (
(290,0,l),
(767,730,l),
(472,730,l),
(0,0,l)
);
},
{
closed = 1;
nodes = (
(600,189,l),
(600,289,l),
(364,289,l),
(364,189,l)
);
},
{
closed = 1;
nodes = (
(1080,0,l),
(1080,208,l),
(623,208,l),
(623,0,l)
);
},
{
closed = 1;
nodes = (
(681,0,l),
(681,730,l),
(585,730,l),
(585,0,l)
);
},
{
closed = 1;
nodes = (
(990,275,l),
(990,375,l),
(659,375,l),
(659,275,l)
);
},
{
closed = 1;
nodes = (
(1073,450,l),
(1073,730,l),
(623,730,l),
(623,450,l)
);
}
);
width = 1112;
},
{
anchors = (
{
name = top;
pos = (738,730);
}
);
associatedMasterId = "79167EE4-8C29-4BCE-A9E7-C1CFC4557E33";
layerId = "BAF04C7B-F5E0-4280-89BE-26EF34693E6D";
name = "24 juin 24 à 11:45";
shapes = (
{
closed = 1;
nodes = (
(36,0,l),
(543,730,l),
(509,730,l),
(-3,0,l)
);
},
{
closed = 1;
nodes = (
(546,280,l),
(546,330,l),
(212,330,l),
(212,280,l)
);
},
{
closed = 1;
nodes = (
(976,0,l),
(976,47,l),
(554,47,l),
(554,0,l)
);
},
{
closed = 1;
nodes = (
(559,0,l),
(559,730,l),
(518,730,l),
(518,0,l)
);
},
{
closed = 1;
nodes = (
(889,314,l),
(889,364,l),
(546,364,l),
(546,314,l)
);
},
{
closed = 1;
nodes = (
(968,687,l),
(968,730,l),
(554,730,l),
(554,687,l)
);
}
);
width = 1028;
},
{
anchors = (
{
name = top;
pos = (738,730);
}
);
associatedMasterId = "79167EE4-8C29-4BCE-A9E7-C1CFC4557E33";
layerId = "2B4203E0-DEFC-45FE-BB30-C398B9DEB4ED";
name = "24 juin 24 à 14:31";
shapes = (
{
closed = 1;
nodes = (
(36,0,l),
(543,730,l),
(509,730,l),
(-3,0,l)
);
},
{
closed = 1;
nodes = (
(546,280,l),
(546,330,l),
(212,330,l),
(212,280,l)
);
},
{
closed = 1;
nodes = (
(976,0,l),
(976,47,l),
(554,47,l),
(554,0,l)
);
},
{
closed = 1;
nodes = (
(559,0,l),
(559,730,l),
(518,730,l),
(518,0,l)
);
},
{
closed = 1;
nodes = (
(889,314,l),
(889,364,l),
(546,364,l),
(546,314,l)
);
},
{
closed = 1;
nodes = (
(968,687,l),
(968,730,l),
(554,730,l),
(554,687,l)
);
}
);
width = 1028;
},
{
anchors = (
{
name = top;
pos = (741,730);
}
);
associatedMasterId = "79167EE4-8C29-4BCE-A9E7-C1CFC4557E33";
layerId = "5BE83A97-6131-4B4B-A4F5-6CE0B645EA66";
name = "25 juin 24 à 16:14";
shapes = (
{
closed = 1;
nodes = (
(971,672,l),
(971,730,l),
(558,730,l),
(558,672,l)
);
},
{
closed = 1;
nodes = (
(564,0,l),
(564,730,l),
(532,720,l),
(532,0,l)
);
},
{
closed = 1;
nodes = (
(978,0,l),
(978,54,l),
(558,54,l),
(558,0,l)
);
},
{
closed = 1;
nodes = (
(891,313,l),
(891,363,l),
(555,363,l),
(555,313,l)
);
},
{
closed = 1;
nodes = (
(39,0,l),
(574,730,l),
(534,730,l),
(0,0,l)
);
},
{
closed = 1;
nodes = (
(539,313,l),
(539,363,l),
(280,363,l),
(246,313,l)
);
}
);
width = 1030;
},
{
anchors = (
{
name = top;
pos = (763,730);
}
);
associatedMasterId = "41EDA971-A137-4972-81AF-7929AB7CAABF";
layerId = "150FF66E-C22B-43AF-B1C7-A3B21216DF8D";
name = "28 août 24 à 14:19";
shapes = (
{
closed = 1;
nodes = (
(290,0,l),
(767,730,l),
(472,730,l),
(0,0,l)
);
},
{
closed = 1;
nodes = (
(600,204,l),
(600,304,l),
(364,304,l),
(364,204,l)
);
},
{
closed = 1;
nodes = (
(1080,0,l),
(1080,208,l),
(623,208,l),
(623,0,l)
);
},
{
closed = 1;
nodes = (
(681,0,l),
(681,730,l),
(585,730,l),
(585,0,l)
);
},
{
closed = 1;
nodes = (
(990,262,l),
(990,362,l),
(659,362,l),
(659,262,l)
);
},
{
closed = 1;
nodes = (
(1073,450,l),
(1073,730,l),
(623,730,l),
(623,450,l)
);
}
);
width = 1112;
}
);
metricLeft = "=A";
metricRight = "=E";
unicode = 198;
},
{
glyphname = B;
lastChange = "2024-07-02 13:22:27 +0000";
layers = (
{
layerId = "79167EE4-8C29-4BCE-A9E7-C1CFC4557E33";
shapes = (
{
closed = 1;
nodes = (
(352,0,ls),
(507,0,o),
(580,67,o),
(580,190,cs),
(580,277,o),
(537,360,o),
(397,379,c),
(410,357,l),
(523,377,o),
(567,453,o),
(567,540,cs),
(567,663,o),
(494,730,o),
(339,730,cs),
(117,730,l),
(117,672,l),
(346,672,ls),
(478,672,o),
(535,616,o),
(535,530,cs),
(535,444,o),
(478,388,o),
(346,388,cs),
(124,388,l),
(124,338,l),
(359,338,ls),
(491,338,o),
(548,282,o),
(548,196,cs),
(548,110,o),
(491,54,o),
(360,54,cs),
(117,54,l),
(117,0,l)
);
},
{
closed = 1;
nodes = (
(135,0,l),
(135,730,l),
(103,730,l),
(103,0,l)
);
}
);
width = 640;
},
{
layerId = "41EDA971-A137-4972-81AF-7929AB7CAABF";
shapes = (
{
closed = 1;
nodes = (
(387,0,ls),
(555,0,o),
(613,74,o),
(613,189,cs),
(613,288,o),
(577,338,o),
(439,341,c),
(439,329,l),
(559,341,o),
(603,389,o),
(603,507,cs),
(603,642,o),
(535,730,o),
(335,730,cs),
(123,730,l),
(123,450,l),
(449,450,ls),
(481,450,o),
(494,437,o),
(494,418,cs),
(494,399,o),
(481,386,o),
(449,386,cs),
(138,386,l),
(138,286,l),
(452,286,ls),
(491,286,o),
(506,269,o),
(506,246,cs),
(506,223,o),
(491,208,o),
(452,208,cs),
(123,208,l),
(123,0,l)
);
},
{
closed = 1;
nodes = (
(166,0,l),
(166,730,l),
(70,730,l),
(70,0,l)
);
}
);
width = 635;
},
{
associatedMasterId = "41EDA971-A137-4972-81AF-7929AB7CAABF";
layerId = "9E42ADAC-329F-4639-BB55-9A24A6F0F221";
name = "9 avr. 24 à 11:45";
shapes = (
{
closed = 1;
nodes = (
(384,0,ls),
(542,0,o),
(623,98,o),
(623,209,cs),
(623,294,o),
(588,346,o),
(446,344,c),
(449,331,l),
(558,357,o),
(613,384,o),
(613,531,cs),
(613,643,o),
(553,730,o),
(367,730,cs),
(133,730,l),
(133,435,l),
(471,435,ls),
(493,435,o),
(504,426,o),
(504,417,cs),
(504,411,o),
(490,391,o),
(456,391,cs),
(148,391,l),
(148,288,l),
(453,288,ls),
(509,288,o),
(516,276,o),
(516,259,cs),
(516,242,o),
(497,223,o),
(461,223,cs),
(133,223,l),
(133,0,l)
);
},
{
closed = 1;
nodes = (
(176,0,l),
(176,730,l),
(80,730,l),
(80,0,l)
);
}
);
width = 651;
},
{
associatedMasterId = "79167EE4-8C29-4BCE-A9E7-C1CFC4557E33";
layerId = "022C4671-FC02-4892-A41F-07636D5C8393";
name = "24 juin 24 à 11:48";
shapes = (
{
closed = 1;
nodes = (
(330,0,ls),
(489,0,o),
(570,69,o),
(570,195,cs),
(570,292,o),
(528,353,o),
(387,380,c),
(400,357,l),
(513,370,o),
(557,469,o),
(557,545,cs),
(557,666,o),
(492,730,o),
(331,730,cs),
(117,730,l),
(117,668,l),
(312,668,ls),
(464,668,o),
(525,616,o),
(525,533,cs),
(525,442,o),
(464,387,o),
(320,387,cs),
(134,387,l),
(134,337,l),
(333,337,ls),
(476,337,o),
(538,284,o),
(538,191,cs),
(538,113,o),
(476,58,o),
(338,58,cs),
(117,58,l),
(117,0,l)
);
},
{
closed = 1;
nodes = (
(135,0,l),
(135,730,l),
(103,730,l),
(103,0,l)
);
}
);
width = 630;
},
{
associatedMasterId = "79167EE4-8C29-4BCE-A9E7-C1CFC4557E33";
background = {
shapes = (
{
closed = 1;
nodes = (
(135,338,l),
(346,338,ls),
(478,338,o),
(538,283,o),
(538,198,cs),
(538,113,o),
(478,58,o),
(346,58,cs),
(135,58,l)
);
},
{
closed = 1;
nodes = (
(135,668,l),
(333,668,ls),
(465,668,o),
(525,613,o),
(525,528,cs),
(525,443,o),
(465,388,o),
(333,388,cs),
(135,388,l)
);
}
);
};
layerId = "6D9DDA6B-3FC7-46DD-AB43-F5A12B4B1CCA";
name = "24 juin 24 à 11:52";
shapes = (
{
closed = 1;
nodes = (
(330,0,ls),
(489,0,o),
(570,69,o),
(570,195,cs),
(570,292,o),
(528,353,o),
(387,380,c),
(400,357,l),
(513,370,o),
(557,469,o),
(557,545,cs),
(557,664,o),
(492,730,o),
(341,730,cs),
(117,730,l),
(117,668,l),
(342,668,ls),
(467,668,o),
(525,617,o),
(525,533,cs),
(525,449,o),
(468,387,o),
(344,387,cs),
(124,387,l),
(124,337,l),
(333,337,ls),
(476,337,o),
(538,284,o),
(538,196,cs),
(538,113,o),
(476,58,o),
(338,58,cs),
(117,58,l),
(117,0,l)
);
},
{
closed = 1;
nodes = (
(135,0,l),
(135,730,l),
(103,730,l),
(103,0,l)
);
}
);
width = 630;
},
{
associatedMasterId = "41EDA971-A137-4972-81AF-7929AB7CAABF";
background = {
shapes = (
{
closed = 1;
nodes = (
(384,0,ls),
(542,0,o),
(623,98,o),
(623,209,cs),
(623,294,o),
(588,346,o),
(446,344,c),
(449,331,l),
(558,357,o),
(613,384,o),
(613,531,cs),
(613,643,o),
(553,730,o),
(367,730,cs),
(133,730,l),
(133,450,l),
(464,450,ls),
(492,450,o),
(504,437,o),
(504,418,cs),
(504,399,o),
(492,386,o),
(464,386,cs),
(148,386,l),
(148,286,l),
(457,286,ls),
(500,286,o),
(516,269,o),
(516,247,cs),
(516,224,o),
(500,208,o),
(457,208,cs),
(133,208,l),
(133,0,l)
);
},
{
closed = 1;
nodes = (
(176,0,l),
(176,730,l),
(80,730,l),
(80,0,l)
);
}
);
};
layerId = "3A803A59-695F-421C-82E6-DFFE2340975F";
name = "25 juin 24 à 13:36";
shapes = (
{
closed = 1;
nodes = (
(384,0,ls),
(542,0,o),
(623,98,o),
(623,209,cs),
(623,294,o),
(588,346,o),
(446,344,c),
(449,331,l),
(558,357,o),
(613,384,o),
(613,531,cs),
(613,643,o),
(553,730,o),
(367,730,cs),
(133,730,l),
(133,450,l),
(464,450,ls),
(492,450,o),
(504,437,o),
(504,418,cs),
(504,399,o),
(492,386,o),
(464,386,cs),
(148,386,l),
(148,286,l),
(457,286,ls),
(500,286,o),
(516,269,o),
(516,247,cs),
(516,224,o),
(500,208,o),
(457,208,cs),
(133,208,l),
(133,0,l)
);
},
{
closed = 1;
nodes = (
(176,0,l),
(176,730,l),
(80,730,l),
(80,0,l)
);
}
);
width = 651;
},
{
associatedMasterId = "41EDA971-A137-4972-81AF-7929AB7CAABF";
background = {
shapes = (
{
closed = 0;
nodes = (
(444,336,l),
(569,327,o),
(613,294,o),
(613,198,c)
);
},
{
closed = 0;
nodes = (
(451,336,l),
(138,336,l)
);
},
{
closed = 0;
nodes = (
(138,336,l),
(451,336,ls)
);
},
{
closed = 0;
nodes = (
(603,532,l),
(603,387,o),
(559,337,o),
(434,324,c)
);
}
);
};
layerId = "52E14CCF-909F-44C6-8A0B-1489BE120B45";
name = "26 juin 24 à 16:05";
shapes = (
{
closed = 1;
nodes = (
(366,0,ls),
(546,0,o),
(613,79,o),
(613,197,cs),
(613,303,o),
(564,341,o),
(439,347,c),
(439,335,l),
(564,352,o),
(603,396,o),
(603,531,cs),
(603,643,o),
(543,730,o),
(357,730,cs),
(123,730,l),
(123,450,l),
(454,450,ls),
(482,450,o),
(494,437,o),
(494,418,cs),
(494,399,o),
(482,386,o),
(454,386,cs),
(138,386,l),
(138,286,l),
(447,286,ls),
(490,286,o),
(506,269,o),
(506,247,cs),
(506,224,o),
(490,208,o),
(447,208,cs),
(123,208,l),
(123,0,l)
);
},
{
closed = 1;
nodes = (
(166,0,l),
(166,730,l),
(70,730,l),
(70,0,l)
);
}
);
width = 635;
},
{
associatedMasterId = "41EDA971-A137-4972-81AF-7929AB7CAABF";
background = {
shapes = (
{
closed = 0;
nodes = (
(444,336,l),
(569,327,o),
(613,294,o),
(613,198,c)
);
},
{
closed = 0;
nodes = (
(451,336,l),
(138,336,l)
);
},
{
closed = 0;
nodes = (
(138,336,l),
(451,336,ls)
);
},
{
closed = 0;
nodes = (
(603,532,l),
(603,387,o),
(559,337,o),
(434,324,c)
);
}
);
};
layerId = "8E60BF1F-99F5-44D4-8C73-11E416A9AD1A";
name = "2 juil. 24 à 14:53";
shapes = (
{
closed = 1;
nodes = (
(366,0,ls),
(546,0,o),
(613,75,o),
(613,195,cs),
(613,293,o),
(569,334,o),
(439,343,c),
(439,331,l),
(564,337,o),
(603,395,o),
(603,514,cs),
(603,643,o),
(543,730,o),
(357,730,cs),
(123,730,l),
(123,450,l),
(454,450,ls),
(482,450,o),
(494,437,o),
(494,418,cs),
(494,399,o),
(482,386,o),
(454,386,cs),
(138,386,l),
(138,286,l),
(447,286,ls),
(490,286,o),
(506,269,o),
(506,247,cs),
(506,224,o),
(490,208,o),
(447,208,cs),
(123,208,l),
(123,0,l)
);
},
{
closed = 1;
nodes = (
(166,0,l),
(166,730,l),
(70,730,l),
(70,0,l)
);
}
);
width = 635;
},
{
associatedMasterId = "41EDA971-A137-4972-81AF-7929AB7CAABF";
background = {
shapes = (
{
closed = 1;
nodes = (
(387,0,l),
(555,0,o),
(613,74,o),
(613,189,cs),
(613,288,o),
(575,334,o),
(458,340,c)
);
},
{
closed = 1;
nodes = (
(559,335,o),
(603,389,o),
(603,507,cs),
(603,642,o),
(535,730,o),
(335,730,c),
(420,328,l)
);
}
);
};
layerId = "9F2C151D-1D1D-462C-AF5A-C9388D3B549A";
name = "2 juil. 24 à 14:57";
shapes = (
{
closed = 1;
nodes = (
(366,0,ls),
(546,0,o),
(613,75,o),
(613,195,cs),
(613,293,o),
(569,334,o),
(439,343,c),
(439,331,l),
(564,337,o),
(603,395,o),
(603,514,cs),
(603,643,o),
(543,730,o),
(357,730,cs),
(123,730,l),
(123,450,l),
(449,450,ls),
(481,450,o),
(494,437,o),
(494,418,cs),
(494,399,o),
(481,386,o),
(449,386,cs),
(138,386,l),
(138,286,l),
(452,286,ls),
(491,286,o),
(506,269,o),
(506,246,cs),
(506,223,o),
(491,208,o),
(452,208,cs),
(123,208,l),
(123,0,l)
);
},
{
closed = 1;
nodes = (
(166,0,l),
(166,730,l),
(70,730,l),
(70,0,l)
);
}
);
width = 635;
},
{
associatedMasterId = "79167EE4-8C29-4BCE-A9E7-C1CFC4557E33";
layerId = "4AB7613E-C37D-4916-9643-957B576A6717";
name = "2 juil. 24 à 15:16";
shapes = (
{
closed = 1;
nodes = (
(340,0,ls),
(499,0,o),
(580,69,o),
(580,195,cs),
(580,293,o),
(538,354,o),
(397,381,c),
(410,358,l),
(523,371,o),
(567,469,o),
(567,545,cs),
(567,664,o),
(502,730,o),
(351,730,cs),
(117,730,l),
(117,672,l),
(353,672,ls),
(485,672,o),
(535,616,o),
(535,530,cs),
(535,444,o),
(475,388,o),
(343,388,cs),
(124,388,l),
(124,338,l),
(356,338,ls),
(488,338,o),
(548,282,o),
(548,196,cs),
(548,110,o),
(488,54,o),
(356,54,cs),
(117,54,l),
(117,0,l)
);
},
{
closed = 1;
nodes = (
(135,0,l),
(135,730,l),
(103,730,l),
(103,0,l)
);
}
);
width = 640;
},
{
associatedMasterId = "79167EE4-8C29-4BCE-A9E7-C1CFC4557E33";
background = {
shapes = (
{
closed = 1;
nodes = (
(346,672,l),
(478,672,o),
(535,616,o),
(535,530,cs),
(535,444,o),
(478,388,o),
(346,388,c)
);
},
{
closed = 1;
nodes = (
(359,338,l),
(491,338,o),
(548,282,o),
(548,196,cs),
(548,110,o),
(491,54,o),
(359,54,c)
);
}
);
};
layerId = "A3435697-5BE6-4001-AE2E-2ECBE380B478";
name = "2 juil. 24 à 15:17";
shapes = (
{
closed = 1;
nodes = (
(340,0,ls),
(499,0,o),
(580,69,o),
(580,195,cs),
(580,293,o),
(538,354,o),
(397,381,c),
(410,358,l),
(523,371,o),
(567,469,o),
(567,545,cs),
(567,664,o),
(502,730,o),
(351,730,cs),
(117,730,l),
(117,672,l),
(353,672,ls),
(485,672,o),
(535,616,o),
(535,530,cs),
(535,444,o),
(475,388,o),
(343,388,cs),
(124,388,l),
(124,338,l),
(356,338,ls),
(488,338,o),
(548,282,o),
(548,196,cs),
(548,110,o),
(488,54,o),
(356,54,cs),
(117,54,l),
(117,0,l)
);
},
{
closed = 1;
nodes = (
(135,0,l),
(135,730,l),
(103,730,l),
(103,0,l)
);
}
);
width = 640;
},
{
associatedMasterId = "79167EE4-8C29-4BCE-A9E7-C1CFC4557E33";
background = {
shapes = (
{
closed = 1;
nodes = (
(397,354,l),
(524,374,o),
(567,453,o),
(567,540,cs),
(567,663,o),
(494,730,o),
(339,730,c)
);
},
{
closed = 1;
nodes = (
(507,0,o),
(580,67,o),
(580,190,cs),
(580,277,o),
(537,356,o),
(410,376,c),
(352,0,l)
);
}
);
};
layerId = "543D142A-C09B-4C76-9903-14A4C51A14D2";
name = "2 juil. 24 à 15:19";
shapes = (
{
closed = 1;
nodes = (
(340,0,ls),
(499,0,o),
(580,69,o),
(580,195,cs),
(580,293,o),
(538,354,o),
(397,381,c),
(410,358,l),
(523,371,o),
(567,469,o),
(567,545,cs),
(567,664,o),
(502,730,o),
(351,730,cs),
(117,730,l),
(117,672,l),
(346,672,ls),
(478,672,o),
(535,616,o),
(535,530,cs),
(535,444,o),
(478,388,o),
(346,388,cs),
(124,388,l),
(124,338,l),
(359,338,ls),
(491,338,o),
(548,282,o),
(548,196,cs),
(548,110,o),
(491,54,o),
(359,54,cs),
(117,54,l),
(117,0,l)
);
},
{
closed = 1;
nodes = (
(135,0,l),
(135,730,l),
(103,730,l),
(103,0,l)
);
}
);
width = 640;
}
);
metricLeft = "=H";
unicode = 66;
},
{
glyphname = C;
lastChange = "2024-08-28 13:33:43 +0000";
layers = (
{
anchors = (
{
name = bottom;
pos = (385,0);
},
{
name = top;
pos = (394,730);
}
);
layerId = "79167EE4-8C29-4BCE-A9E7-C1CFC4557E33";
shapes = (
{
closed = 1;
nodes = (
(519,-8,o),
(601,48,o),
(634,107,c),
(621,144,l),
(575,87,o),
(484,48,o),
(395,50,cs),
(204,52,o),
(88,157,o),
(88,366,cs),
(88,564,o),
(203,676,o),
(395,676,cs),
(483,677,o),
(573,639,o),
(619,582,c),
(633,624,l),
(599,683,o),
(520,738,o),
(395,738,cs),
(192,738,o),
(56,608,o),
(56,361,cs),
(56,146,o),
(161,-8,o),
(394,-8,cs)
);
}
);
width = 675;
},
{
anchors = (
{
name = bottom;
pos = (334,0);
},
{
name = top;
pos = (349,730);
}
);
layerId = "41EDA971-A137-4972-81AF-7929AB7CAABF";
shapes = (
{
closed = 1;
nodes = (
(485,-15,o),
(574,35,o),
(622,113,c),
(571,264,l),
(523,226,o),
(451,203,o),
(348,203,cs),
(187,203,o),
(116,244,o),
(116,331,cs),
(116,413,o),
(184,456,o),
(352,456,cs),
(460,456,o),
(523,435,o),
(571,397,c),
(622,611,l),
(579,689,o),
(494,746,o),
(365,746,cs),
(171,745,o),
(28,633,o),
(28,353,cs),
(28,84,o),
(161,-15,o),
(349,-15,cs)
);
}
);
width = 632;
},
{
anchors = (
{
name = bottom;
pos = (330,0);
},
{
name = top;
pos = (346,730);
}
);
associatedMasterId = "41EDA971-A137-4972-81AF-7929AB7CAABF";
layerId = "C1E004A9-4CBD-4872-B88C-3127B55AD575";
name = "9 avr. 24 à 11:41";
shapes = (
{
closed = 1;
nodes = (
(477,-16,o),
(570,42,o),
(606,125,c),
(539,308,l),
(507,263,o),
(450,225,o),
(324,225,cs),
(139,223,o),
(98,291,o),
(100,329,cs),
(101,385,o),
(164,434,o),
(325,434,cs),
(404,434,o),
(489,418,o),
(537,371,c),
(600,605,l),
(559,700,o),
(481,746,o),
(342,746,cs),
(164,747,o),
(22,645,o),
(22,348,cs),
(22,134,o),
(105,-16,o),
(329,-16,cs)
);
}
);
width = 627;
},
{
anchors = (
{
name = bottom;
pos = (324,0);
},
{
name = top;
pos = (340,730);
}
);
associatedMasterId = "41EDA971-A137-4972-81AF-7929AB7CAABF";
layerId = "8F7E7209-0AAE-4315-A227-801C54BE71B7";
name = "9 avr. 24 à 12:34";
shapes = (
{
closed = 1;
nodes = (
(482,-15,o),
(572,35,o),
(620,113,c),
(569,264,l),
(521,226,o),
(448,203,o),
(344,203,cs),
(182,203,o),
(110,244,o),
(110,331,cs),
(110,413,o),
(179,456,o),
(348,456,cs),
(457,456,o),
(521,435,o),
(569,397,c),
(620,611,l),
(577,689,o),
(491,746,o),
(361,746,cs),
(166,745,o),
(22,633,o),
(22,353,cs),
(22,84,o),
(156,-15,o),
(345,-15,cs)
);
}
);
width = 621;
},
{
anchors = (
{
name = bottom;
pos = (413,0);
},
{
name = top;
pos = (399,730);
}
);
associatedMasterId = "79167EE4-8C29-4BCE-A9E7-C1CFC4557E33";
layerId = "93A64EC5-739E-4BE0-B5B2-474EF40ADEC3";
name = "10 avr. 24 à 15:00";
shapes = (
{
closed = 1;
nodes = (
(503,-8,o),
(593,38,o),
(637,106,c),
(623,140,l),
(572,78,o),
(482,49,o),
(401,50,cs),
(220,51,o),
(89,142,o),
(89,363,cs),
(89,554,o),
(187,676,o),
(405,676,cs),
(500,676,o),
(576,648,o),
(626,595,c),
(632,641,l),
(587,706,o),
(510,738,o),
(414,738,cs),
(199,738,o),
(57,596,o),
(57,356,cs),
(57,140,o),
(172,-8,o),
(400,-8,cs)
);
}
);
width = 676;
},
{
anchors = (
{
name = bottom;
pos = (413,0);
},
{
name = top;
pos = (399,730);
}
);
associatedMasterId = "79167EE4-8C29-4BCE-A9E7-C1CFC4557E33";
background = {
anchors = (
{
name = bottom;
pos = (380.562,3);
},
{
name = top;
pos = (395.099,727.193);
}
);
shapes = (
{
closed = 1;
nodes = (
(515,-8,o),
(600,50,o),
(634,111,c),
(617,158,l),
(571,101,o),
(480,62,o),
(391,64,cs),
(207,66,o),
(96,166,o),
(96,366,cs),
(96,554,o),
(206,661,o),
(390,661,cs),
(478,662,o),
(568,624,o),
(614,567,c),
(634,619,l),
(600,681,o),
(521,738,o),
(396,738,cs),
(193,738,o),
(57,608,o),
(57,361,cs),
(57,146,o),
(159,-8,o),
(385,-8,cs)
);
}
);
};
layerId = "B2FB25E6-7C5D-4B27-9BFC-D217C9C6E7A4";
name = "10 avr. 24 à 15:01";
shapes = (
{
closed = 1;
nodes = (
(503,-8,o),
(593,38,o),
(637,106,c),
(623,140,l),
(572,78,o),
(482,49,o),
(401,50,cs),
(220,51,o),
(89,142,o),
(89,363,cs),
(89,554,o),
(187,676,o),
(405,676,cs),
(500,676,o),
(576,648,o),
(626,595,c),
(632,641,l),
(587,706,o),
(510,738,o),
(414,738,cs),
(199,738,o),
(57,596,o),
(57,356,cs),
(57,140,o),
(172,-8,o),
(400,-8,cs)
);
}
);
width = 676;
},
{
anchors = (
{
name = bottom;
pos = (413,0);
},
{
name = top;
pos = (399,730);
}
);
associatedMasterId = "79167EE4-8C29-4BCE-A9E7-C1CFC4557E33";
layerId = "8DE7A59D-A4B8-487B-8D37-B54C7EAE3486";
name = "24 juin 24 à 11:59";
shapes = (
{
closed = 1;
nodes = (
(520,-8,o),
(601,50,o),
(634,111,c),
(622,144,l),
(576,87,o),
(485,48,o),
(396,50,cs),
(205,52,o),
(89,157,o),
(89,366,cs),
(89,564,o),
(204,676,o),
(396,676,cs),
(484,677,o),
(574,639,o),
(620,582,c),
(635,623,l),
(601,683,o),
(522,738,o),
(396,738,cs),
(193,738,o),
(57,608,o),
(57,361,cs),
(57,146,o),
(162,-8,o),
(395,-8,cs)
);
}
);
width = 676;
},
{
anchors = (
{
name = bottom;
pos = (413,0);
},
{
name = top;
pos = (399,730);
}
);
associatedMasterId = "79167EE4-8C29-4BCE-A9E7-C1CFC4557E33";
layerId = "BDBB30D5-B282-4089-A3C0-00C05D1176A2";
name = "24 juin 24 à 12:01";
shapes = (
{
closed = 1;
nodes = (
(520,-8,o),
(601,50,o),
(634,111,c),
(622,144,l),
(576,87,o),
(485,48,o),
(396,50,cs),
(205,52,o),
(89,157,o),
(89,366,cs),
(89,564,o),
(204,676,o),
(396,676,cs),
(484,677,o),
(574,639,o),
(620,582,c),
(633,621,l),
(599,682,o),
(520,738,o),
(396,738,cs),
(193,738,o),
(57,608,o),
(57,361,cs),
(57,146,o),
(162,-8,o),
(395,-8,cs)
);
}
);
width = 676;
}
);
metricLeft = "=O";
unicode = 67;
},
{
glyphname = D;
lastChange = "2024-08-28 13:41:00 +0000";
layers = (
{
anchors = (
{
name = top;
pos = (353,730);
}
);
background = {
anchors = (
{
name = top;
pos = (353,730);
}
);
shapes = (
{
closed = 1;
nodes = (
(323,0,ls),
(558,0,o),
(673,139,o),
(673,365,cs),
(673,601,o),
(576,730,o),
(323,730,cs),
(124,730,l),
(124,668,l),
(296,668,ls),
(545,668,o),
(641,574,o),
(641,363,cs),
(641,162,o),
(544,58,o),
(296,58,cs),
(132,58,l),
(132,0,l)
);
},
{
closed = 1;
nodes = (
(135,0,l),
(135,730,l),
(103,730,l),
(103,0,l)
);
}
);
};
layerId = "79167EE4-8C29-4BCE-A9E7-C1CFC4557E33";
shapes = (
{
closed = 1;
nodes = (
(323,0,ls),
(558,0,o),
(673,139,o),
(673,365,cs),
(673,601,o),
(576,730,o),
(323,730,cs),
(124,730,l),
(124,672,l),
(296,672,ls),
(545,672,o),
(641,577,o),
(641,363,cs),
(641,159,o),
(544,54,o),
(296,54,cs),
(132,54,l),
(132,0,l)
);
},
{
closed = 1;
nodes = (
(135,0,l),
(135,730,l),
(103,730,l),
(103,0,l)
);
}
);
width = 729;
},
{
anchors = (
{
name = top;
pos = (320,730);
}
);
background = {
anchors = (
{
name = top;
pos = (320,730);
}
);
shapes = (
{
closed = 1;
nodes = (
(371,440,l),
(489,440,o),
(535,404,o),
(535,332,cs),
(535,260,o),
(489,218,o),
(371,218,c),
(309,0,l),
(483,0,o),
(618,100,o),
(618,365,cs),
(618,631,o),
(483,730,o),
(309,730,c)
);
}
);
};
layerId = "41EDA971-A137-4972-81AF-7929AB7CAABF";
shapes = (
{
closed = 1;
nodes = (
(319,0,ls),
(493,0,o),
(628,100,o),
(628,365,cs),
(628,631,o),
(493,730,o),
(319,730,cs),
(118,730,l),
(118,440,l),
(381,440,ls),
(499,440,o),
(545,404,o),
(545,332,cs),
(545,260,o),
(499,218,o),
(382,218,cs),
(106,218,l),
(106,0,l)
);
},
{
closed = 1;
nodes = (
(166,0,l),
(166,730,l),
(70,730,l),
(70,0,l)
);
}
);
width = 656;
},
{
anchors = (
{
name = top;
pos = (330,730);
}
);
associatedMasterId = "41EDA971-A137-4972-81AF-7929AB7CAABF";
layerId = "AD22FB6D-F030-4344-A8E7-A7976066B982";
name = "9 avr. 24 à 11:37";
shapes = (
{
closed = 1;
nodes = (
(323,0,ls),
(500,0,o),
(628,50,o),
(628,363,cs),
(628,649,o),
(492,730,o),
(323,730,cs),
(128,730,l),
(128,437,l),
(407,437,ls),
(499,437,o),
(546,398,o),
(546,342,cs),
(546,270,o),
(500,222,o),
(408,222,cs),
(116,222,l),
(116,0,l)
);
},
{
closed = 1;
nodes = (
(176,0,l),
(176,730,l),
(80,730,l),
(80,0,l)
);
}
);
width = 650;
},
{
anchors = (
{
name = top;
pos = (330,730);
}
);
associatedMasterId = "41EDA971-A137-4972-81AF-7929AB7CAABF";
layerId = "4A8C6183-9986-4F60-AFAF-1EECF7C43158";
name = "9 avr. 24 à 11:45";
shapes = (
{
closed = 1;
nodes = (
(323,0,ls),
(500,0,o),
(628,50,o),
(628,363,cs),
(628,649,o),
(492,730,o),
(323,730,cs),
(128,730,l),
(128,440,l),
(407,440,ls),
(499,440,o),
(546,402,o),
(546,329,cs),
(546,256,o),
(500,218,o),
(408,218,cs),
(116,218,l),
(116,0,l)
);
},
{
closed = 1;
nodes = (
(176,0,l),
(176,730,l),
(80,730,l),
(80,0,l)
);
}
);
width = 650;
},
{
anchors = (
{
name = top;
pos = (330,730);
}
);
associatedMasterId = "41EDA971-A137-4972-81AF-7929AB7CAABF";
layerId = "CC6013B5-CBD6-476F-9D50-92822D7389E4";
name = "9 avr. 24 à 11:56";
shapes = (
{
closed = 1;
nodes = (
(323,0,ls),
(500,0,o),
(628,50,o),
(628,363,cs),
(628,649,o),
(492,730,o),
(323,730,cs),
(128,730,l),
(128,440,l),
(407,440,ls),
(499,440,o),
(546,402,o),
(546,329,cs),
(546,256,o),
(500,218,o),
(408,218,cs),
(116,218,l),
(116,0,l)
);
},
{
closed = 1;
nodes = (
(176,0,l),
(176,730,l),
(80,730,l),
(80,0,l)
);
}
);
width = 650;
},
{
anchors = (
{
name = top;
pos = (353,730);
}
);
associatedMasterId = "79167EE4-8C29-4BCE-A9E7-C1CFC4557E33";
layerId = "000C5480-0D75-4C34-84D8-907FD03B529F";
name = "24 juin 24 à 11:59";
shapes = (
{
closed = 1;
nodes = (
(323,0,ls),
(550,0,o),
(673,139,o),
(673,365,cs),
(673,601,o),
(576,730,o),
(323,730,cs),
(124,730,l),
(124,672,l),
(299,672,ls),
(545,672,o),
(641,576,o),
(641,364,cs),
(641,148,o),
(543,54,o),
(293,54,cs),
(132,54,l),
(132,0,l)
);
},
{
closed = 1;
nodes = (
(135,0,l),
(135,730,l),
(103,730,l),
(103,0,l)
);
}
);
width = 730;
}
);
metricLeft = "=H";
metricRight = "=O";
unicode = 68;
},
{
glyphname = Eth;
lastChange = "2024-08-28 13:41:00 +0000";
layers = (
{
layerId = "79167EE4-8C29-4BCE-A9E7-C1CFC4557E33";
shapes = (
{
closed = 1;
nodes = (
(419,337,l),
(419,387,l),
(68,387,l),
(68,337,l)
);
},
{
alignment = -1;
pos = (38,0);
ref = D;
}
);
width = 767;
},
{
layerId = "41EDA971-A137-4972-81AF-7929AB7CAABF";
shapes = (
{
closed = 1;
nodes = (
(399,264,l),
(399,396,l),
(13,396,l),
(13,264,l)
);
},
{
alignment = -1;
pos = (22,0);
ref = D;
}
);
width = 678;
},
{
associatedMasterId = "79167EE4-8C29-4BCE-A9E7-C1CFC4557E33";
layerId = "69A2E3DB-76BE-4E4D-AFB2-62A38BF8102D";
name = "8 août 24 à 20:55";
shapes = (
{
closed = 1;
nodes = (
(419,339,l),
(419,384,l),
(68,384,l),
(68,339,l)
);
},
{
alignment = -1;
pos = (38,0);
ref = D;
}
);
width = 768;
}
);
metricRight = "=D";
unicode = 208;
},
{
glyphname = E;
lastChange = "2024-06-27 16:22:01 +0000";
layers = (
{
anchors = (
{
name = ogonek;
pos = (500,0);
},
{
name = top;
pos = (329,730);
}
);
layerId = "79167EE4-8C29-4BCE-A9E7-C1CFC4557E33";
shapes = (
{
closed = 1;
nodes = (
(542,672,l),
(542,730,l),
(129,730,l),
(129,672,l)
);
},
{
closed = 1;
nodes = (
(135,0,l),
(135,730,l),
(103,730,l),
(103,0,l)
);
},
{
closed = 1;
nodes = (
(549,0,l),
(549,54,l),
(129,54,l),
(129,0,l)
);
},
{
closed = 1;
nodes = (
(462,345,l),
(462,395,l),
(131,395,l),
(131,345,l)
);
}
);
width = 601;
},
{
anchors = (
{
name = ogonek;
pos = (494,0);
},
{
name = top;
pos = (335,730);
}
);
layerId = "41EDA971-A137-4972-81AF-7929AB7CAABF";
shapes = (
{
closed = 1;
nodes = (
(561,450,l),
(561,730,l),
(108,730,l),
(108,450,l)
);
},
{
closed = 1;
nodes = (
(166,0,l),
(166,730,l),
(70,730,l),
(70,0,l)
);
},
{
closed = 1;
nodes = (
(566,0,l),
(566,208,l),
(108,208,l),
(108,0,l)
);
},
{
closed = 1;
nodes = (
(477,286,l),
(477,386,l),
(146,386,l),
(146,286,l)
);
}
);
width = 598;
},
{
anchors = (
{
name = ogonek;
pos = (504,0);
},
{
name = top;
pos = (345,730);
}
);
associatedMasterId = "41EDA971-A137-4972-81AF-7929AB7CAABF";
layerId = "C06E2A7E-D160-4840-9418-0522B5D41195";
name = "9 avr. 24 à 11:43";
shapes = (
{
closed = 1;
nodes = (
(571,435,l),
(571,730,l),
(118,730,l),
(118,435,l)
);
},
{
closed = 1;
nodes = (
(176,0,l),
(176,730,l),
(80,730,l),
(80,0,l)
);
},
{
closed = 1;
nodes = (
(576,0,l),
(576,223,l),
(118,223,l),
(118,0,l)
);
},
{
closed = 1;
nodes = (
(487,283,l),
(487,386,l),
(156,386,l),
(156,283,l)
);
}
);
width = 624;
}
);
metricLeft = "=H";
unicode = 69;
},
{
glyphname = Eogonek;
lastChange = "2024-08-28 12:22:49 +0000";
layers = (
{
background = {
shapes = (
{
closed = 1;
nodes = (
(506,-203,o),
(538,-185,o),
(552,-160,c),
(544,-125,l),
(526,-140,o),
(501,-150,o),
(467,-150,cs),
(431,-150,o),
(411,-135,o),
(411,-105,cs),
(411,-75,o),
(434,-40,o),
(518,0,c),
(493,11,l),
(409,-27,o),
(372,-77,o),
(372,-125,cs),
(372,-177,o),
(406,-203,o),
(461,-203,cs)
);
}
);
};
layerId = "79167EE4-8C29-4BCE-A9E7-C1CFC4557E33";
shapes = (
{
ref = E;
},
{
closed = 1;
nodes = (
(511,-203,o),
(543,-185,o),
(557,-160,c),
(549,-125,l),
(531,-140,o),
(506,-150,o),
(472,-150,cs),
(436,-150,o),
(416,-135,o),
(416,-105,cs),
(416,-75,o),
(438,-30,o),
(549,0,c),
(524,13,l),
(413,-15,o),
(377,-73,o),
(377,-125,cs),
(377,-177,o),
(411,-203,o),
(466,-203,cs)
);
}
);
width = 601;
},
{
background = {
shapes = (
{
closed = 1;
nodes = (
(516,-212,o),
(567,-183,o),
(585,-148,c),
(556,-63,l),
(530,-79,o),
(504,-87,o),
(484,-87,cs),
(456,-87,o),
(447,-79,o),
(447,-66,cs),
(447,-51,o),
(462,-29,o),
(543,0,c),
(480,25,l),
(376,-16,o),
(339,-56,o),
(339,-114,cs),
(339,-176,o),
(384,-212,o),
(458,-212,cs)
);
}
);
};
layerId = "41EDA971-A137-4972-81AF-7929AB7CAABF";
shapes = (
{
ref = E;
},
{
closed = 1;
nodes = (
(516,-212,o),
(567,-183,o),
(585,-148,c),
(556,-63,l),
(530,-79,o),
(504,-87,o),
(484,-87,cs),
(456,-87,o),
(447,-79,o),
(447,-66,cs),
(447,-51,o),
(462,-19,o),
(566,0,c),
(503,25,l),
(380,-6,o),
(339,-60,o),
(339,-118,cs),
(339,-177,o),
(384,-212,o),
(458,-212,cs)
);
}
);
width = 598;
},
{
associatedMasterId = "79167EE4-8C29-4BCE-A9E7-C1CFC4557E33";
layerId = "2AB2736C-3243-48A0-B612-842A829C1F82";
name = "28 août 24 à 14:21";
shapes = (
{
ref = E;
},
{
pos = (250,0);
ref = ogonekcomb;
}
);
width = 601;
},
{
associatedMasterId = "41EDA971-A137-4972-81AF-7929AB7CAABF";
layerId = "4C0EECF7-ED73-43E3-8890-96D46EE76B9A";
name = "28 août 24 à 14:21";
shapes = (
{
ref = E;
},
{
pos = (214,0);
ref = ogonekcomb;
}
);
width = 598;
}
);
unicode = 280;
},
{
glyphname = Schwa;
lastChange = "2024-06-27 15:03:41 +0000";
layers = (
{
layerId = "79167EE4-8C29-4BCE-A9E7-C1CFC4557E33";
shapes = (
{
closed = 1;
nodes = (
(232,738,o),
(140,682,o),
(103,619,c),
(116,578,l),
(172,643,o),
(268,678,o),
(362,676,cs),
(544,673,o),
(650,573,o),
(650,365,cs),
(650,348,ls),
(650,164,o),
(534,50,o),
(359,50,cs),
(186,50,o),
(104,161,o),
(99,351,c),
(82,319,l),
(658,319,l),
(658,369,l),
(69,369,l),
(63,108,o),
(187,-8,o),
(360,-8,cs),
(551,-8,o),
(682,118,o),
(682,369,cs),
(682,612,o),
(553,738,o),
(372,738,cs)
);
}
);
userData = {
RMXScaler = {
height = 133;
weight = -38;
width = 133;
};
};
width = 728;
},
{
layerId = "41EDA971-A137-4972-81AF-7929AB7CAABF";
shapes = (
{
closed = 1;
nodes = (
(217,746,o),
(118,705,o),
(66,616,c),
(116,408,l),
(164,448,o),
(241,472,o),
(349,472,cs),
(509,472,o),
(579,427,o),
(579,348,cs),
(579,309,ls),
(579,241,o),
(524,202,o),
(341,202,cs),
(179,202,o),
(136,239,o),
(135,305,c),
(98,283,l),
(594,283,l),
(594,379,l),
(48,379,l),
(32,103,o),
(137,-16,o),
(348,-16,cs),
(558,-16,o),
(664,120,o),
(664,369,cs),
(664,637,o),
(537,746,o),
(343,746,cs)
);
}
);
userData = {
RMXScaler = {
height = 130;
weight = 130;
width = 130;
};
};
width = 678;
},
{
associatedMasterId = "79167EE4-8C29-4BCE-A9E7-C1CFC4557E33";
layerId = "4A3014E6-B0FE-4F1D-8815-E64C00B7275E";
name = "27 juin 24 à 16:55";
width = 0;
},
{
associatedMasterId = "41EDA971-A137-4972-81AF-7929AB7CAABF";
background = {
shapes = (
{
closed = 1;
nodes = (
(507,-17,o),
(628,121,o),
(628,376,cs),
(628,638,o),
(526,747,o),
(332,747,cs),
(186,747,o),
(97,697,o),
(42,605,c),
(105,368,l),
(147,405,o),
(221,435,o),
(360,434,cs),
(502,433,o),
(550,387,o),
(550,305,cs),
(550,253,o),
(491,225,o),
(333,225,cs),
(190,225,o),
(115,253,o),
(115,301,c),
(104,292,l),
(578,292,l),
(578,371,l),
(37,371,l),
(35,92,o),
(136,-17,o),
(331,-17,cs)
);
}
);
};
layerId = "DB1BC842-3627-45D9-83FC-248A47CC6482";
name = "27 juin 24 à 16:56";
userData = {
RMXScaler = {
height = 130;
width = 130;
};
};
width = 0;
},
{
anchors = (
{
name = ogonek;
pos = (549,0);
},
{
name = top;
pos = (387,727);
}
);
associatedMasterId = "79167EE4-8C29-4BCE-A9E7-C1CFC4557E33";
background = {
shapes = (
{
ref = O;
}
);
};
layerId = "9D33D3BE-0C42-4429-9F55-CD5149109AE6";
name = "27 juin 24 à 16:57";
shapes = (
{
closed = 1;
nodes = (
(523,-10,o),
(608,47,o),
(642,111,c),
(629,150,l),
(578,84,o),
(489,49,o),
(403,50,cs),
(215,53,o),
(99,157,o),
(99,365,cs),
(99,382,ls),
(99,560,o),
(223,676,o),
(386,676,cs),
(562,676,o),
(642,558,o),
(642,358,c),
(663,408,l),
(87,408,l),
(87,363,l),
(676,363,l),
(682,621,o),
(558,737,o),
(385,737,cs),
(204,737,o),
(63,607,o),
(63,361,cs),
(63,149,o),
(166,-10,o),
(393,-10,cs)
);
}
);
userData = {
RMXScaler = {
height = 133;
weight = -38;
width = 133;
};
};
width = 728;
},
{
anchors = (
{
name = ogonek;
pos = (551,0);
},
{
name = top;
pos = (362,730);
}
);
associatedMasterId = "41EDA971-A137-4972-81AF-7929AB7CAABF";
background = {
shapes = (
{
ref = O;
}
);
};
layerId = "CFEB260B-0D85-452A-A24F-640FA93E89EA";
name = "27 juin 24 à 16:58";
shapes = (
{
closed = 1;
nodes = (
(481,-19,o),
(579,24,o),
(630,113,c),
(580,263,l),
(532,226,o),
(455,202,o),
(347,202,cs),
(193,202,o),
(125,247,o),
(125,326,cs),
(125,365,ls),
(125,433,o),
(180,476,o),
(355,476,cs),
(515,476,o),
(560,435,o),
(561,369,c),
(598,384,l),
(122,384,l),
(122,304,l),
(648,304,l),
(664,613,o),
(563,750,o),
(361,750,cs),
(142,750,o),
(32,603,o),
(32,357,cs),
(32,80,o),
(161,-19,o),
(357,-19,cs)
);
}
);
userData = {
RMXScaler = {
height = 130;
weight = 130;
width = 130;
};
};
width = 678;
},
{
associatedMasterId = "79167EE4-8C29-4BCE-A9E7-C1CFC4557E33";
background = {
shapes = (
{
pos = (-14,0);
ref = O;
}
);
};
layerId = "A607DECA-464E-4610-AEA0-CA7178FB4E8E";
name = "27 juin 24 à 17:00";
shapes = (
{
closed = 1;
nodes = (
(222,738,o),
(137,682,o),
(103,619,c),
(116,580,l),
(167,646,o),
(256,681,o),
(342,680,cs),
(530,677,o),
(646,573,o),
(646,365,cs),
(646,348,ls),
(646,170,o),
(522,54,o),
(359,54,cs),
(189,54,o),
(109,164,o),
(103,351,c),
(82,319,l),
(658,319,l),
(658,369,l),
(69,369,l),
(63,108,o),
(187,-8,o),
(360,-8,cs),
(541,-8,o),
(682,122,o),
(682,369,cs),
(682,580,o),
(579,738,o),
(352,738,cs)
);
}
);
userData = {
RMXScaler = {
height = 133;
weight = -38;
width = 133;
};
};
width = 728;
},
{
associatedMasterId = "41EDA971-A137-4972-81AF-7929AB7CAABF";
layerId = "FA0C3649-5307-4D16-A674-9B31F93ED730";
name = "27 juin 24 à 17:02";
shapes = (
{
closed = 1;
nodes = (
(215,746,o),
(117,704,o),
(66,617,c),
(116,467,l),
(164,504,o),
(241,528,o),
(349,528,cs),
(503,528,o),
(571,483,o),
(571,404,cs),
(571,365,ls),
(571,297,o),
(518,258,o),
(341,258,cs),
(179,258,o),
(136,295,o),
(135,361,c),
(98,339,l),
(574,339,l),
(574,435,l),
(48,435,l),
(32,120,o),
(133,-16,o),
(335,-16,cs),
(554,-16,o),
(664,130,o),
(664,373,cs),
(664,648,o),
(535,746,o),
(339,746,cs)
);
}
);
userData = {
RMXScaler = {
height = 130;
weight = 130;
width = 130;
};
};
width = 678;
}
);
unicode = 399;
userData = {
RMXScaler = {
source = e;
};
};
},
{
glyphname = F;
lastChange = "2024-06-26 13:58:45 +0000";
layers = (
{
layerId = "79167EE4-8C29-4BCE-A9E7-C1CFC4557E33";
shapes = (
{
closed = 1;
nodes = (
(542,672,l),
(542,730,l),
(128,730,l),
(128,672,l)
);
},
{
closed = 1;
nodes = (
(135,0,l),
(135,730,l),
(103,730,l),
(103,0,l)
);
},
{
closed = 1;
nodes = (
(462,345,l),
(462,395,l),
(129,395,l),
(129,345,l)
);
}
);
width = 557;
},
{
layerId = "41EDA971-A137-4972-81AF-7929AB7CAABF";
shapes = (
{
closed = 1;
nodes = (
(568,450,l),
(568,730,l),
(107,730,l),
(107,450,l)
);
},
{
closed = 1;
nodes = (
(166,0,l),
(166,730,l),
(70,730,l),
(70,0,l)
);
},
{
closed = 1;
nodes = (
(490,178,l),
(490,386,l),
(146,386,l),
(146,178,l)
);
}
);
width = 588;
},
{
associatedMasterId = "79167EE4-8C29-4BCE-A9E7-C1CFC4557E33";
background = {
shapes = (
{
ref = E;
}
);
};
layerId = "0281B972-C775-44F2-892D-9A809F8691C5";
name = "24 juin 24 à 15:09";
shapes = (
{
closed = 1;
nodes = (
(519,672,l),
(519,730,l),
(128,730,l),
(128,672,l)
);
},
{
closed = 1;
nodes = (
(135,0,l),
(135,730,l),
(103,730,l),
(103,0,l)
);
},
{
closed = 1;
nodes = (
(442,349,l),
(442,399,l),
(129,399,l),
(129,349,l)
);
}
);
width = 557;
}
);
metricLeft = "=H";
unicode = 70;
},
{
glyphname = G;
lastChange = "2024-08-28 15:24:22 +0000";
layers = (
{
anchors = (
{
name = bottom;
pos = (404,0);
},
{
name = top;
pos = (402,730);
}
);
background = {
shapes = (
{
closed = 1;
nodes = (
(507,-8,o),
(608,42,o),
(627,139,c),
(616,151,l),
(616,0,l),
(648,0,l),
(648,358,l),
(403,358,l),
(403,308,l),
(642,308,l),
(616,333,l),
(616,284,ls),
(616,124,o),
(523,49,o),
(380,50,cs),
(201,51,o),
(88,154,o),
(88,366,cs),
(88,564,o),
(205,674,o),
(400,676,cs),
(491,677,o),
(581,641,o),
(629,582,c),
(643,625,l),
(607,687,o),
(528,738,o),
(400,738,cs),
(194,738,o),
(56,608,o),
(56,361,cs),
(56,143,o),
(155,-8,o),
(378,-8,cs)
);
}
);
};
layerId = "79167EE4-8C29-4BCE-A9E7-C1CFC4557E33";
shapes = (
{
closed = 1;
nodes = (
(509,-8,o),
(600,42,o),
(622,139,c),
(616,151,l),
(616,0,l),
(648,0,l),
(648,358,l),
(403,358,l),
(403,308,l),
(642,308,l),
(616,333,l),
(616,254,ls),
(616,118,o),
(523,49,o),
(380,50,cs),
(201,51,o),
(88,154,o),
(88,366,cs),
(88,564,o),
(205,674,o),
(400,676,cs),
(491,677,o),
(581,641,o),
(629,582,c),
(643,625,l),
(607,687,o),
(528,738,o),
(400,738,cs),
(194,738,o),
(56,608,o),
(56,361,cs),
(56,143,o),
(155,-8,o),
(378,-8,cs)
);
}
);
width = 711;
},
{
anchors = (
{
name = bottom;
pos = (376,0);
},
{
name = top;
pos = (360,730);
}
);
background = {
shapes = (
{
closed = 1;
nodes = (
(371,456,l),
(477,456,o),
(547,436,o),
(595,398,c),
(646,611,l),
(602,690,o),
(517,746,o),
(384,746,c)
);
}
);
};
layerId = "41EDA971-A137-4972-81AF-7929AB7CAABF";
shapes = (
{
closed = 1;
nodes = (
(442,-16,o),
(517,8,o),
(555,114,c),
(540,121,l),
(540,0,l),
(636,0,l),
(636,368,l),
(347,368,l),
(347,268,l),
(626,268,l),
(539,364,l),
(540,272,ls),
(540,233,o),
(500,204,o),
(359,203,cs),
(171,202,o),
(115,256,o),
(116,331,cs),
(117,406,o),
(174,456,o),
(355,456,cs),
(465,456,o),
(535,439,o),
(587,398,c),
(638,611,l),
(594,693,o),
(507,746,o),
(376,746,cs),
(181,746,o),
(28,642,o),
(28,347,cs),
(28,89,o),
(165,-16,o),
(330,-16,cs)
);
}
);
width = 674;
},
{
anchors = (
{
name = bottom;
pos = (350,0);
},
{
name = top;
pos = (354,730);
}
);
associatedMasterId = "41EDA971-A137-4972-81AF-7929AB7CAABF";
layerId = "D4DEF9A0-D0F4-4241-8FC5-210F23394D18";
name = "9 avr. 24 à 12:28";
shapes = (
{
closed = 1;
nodes = (
(422,-17,o),
(497,7,o),
(537,114,c),
(532,121,l),
(548,0,l),
(618,0,l),
(618,368,l),
(347,368,l),
(347,282,l),
(608,282,l),
(555,364,l),
(556,284,ls),
(556,278,o),
(482,225,o),
(326,225,cs),
(167,223,o),
(104,272,o),
(104,327,cs),
(105,378,o),
(165,434,o),
(340,434,cs),
(424,434,o),
(513,418,o),
(562,371,c),
(624,605,l),
(581,701,o),
(505,747,o),
(352,747,cs),
(158,748,o),
(22,659,o),
(22,341,cs),
(22,48,o),
(142,-17,o),
(308,-17,cs)
);
}
);
width = 667;
},
{
anchors = (
{
name = bottom;
pos = (350,0);
},
{
name = top;
pos = (354,730);
}
);
associatedMasterId = "41EDA971-A137-4972-81AF-7929AB7CAABF";
layerId = "6D2F8099-63CB-454B-BC91-82BD35BEB652";
name = "9 avr. 24 à 12:31";
shapes = (
{
closed = 1;
nodes = (
(427,-16,o),
(499,8,o),
(537,114,c),
(522,121,l),
(522,0,l),
(618,0,l),
(618,368,l),
(347,368,l),
(347,268,l),
(608,268,l),
(521,364,l),
(522,272,ls),
(522,233,o),
(483,204,o),
(347,203,cs),
(164,202,o),
(109,256,o),
(110,331,cs),
(111,406,o),
(167,456,o),
(343,456,cs),
(448,456,o),
(518,439,o),
(569,396,c),
(620,613,l),
(578,694,o),
(480,746,o),
(364,746,cs),
(173,746,o),
(22,642,o),
(22,347,cs),
(22,89,o),
(156,-16,o),
(318,-16,cs)
);
}
);
width = 667;
},
{
anchors = (
{
name = bottom;
pos = (350,0);
},
{
name = top;
pos = (354,730);
}
);
associatedMasterId = "41EDA971-A137-4972-81AF-7929AB7CAABF";
layerId = "0CD35671-AD44-4134-AA1F-7A5ED3564958";
name = "9 avr. 24 à 12:33";
shapes = (
{
closed = 1;
nodes = (
(442,-16,o),
(519,8,o),
(557,114,c),
(542,121,l),
(542,0,l),
(638,0,l),
(638,368,l),
(345,368,l),
(345,268,l),
(628,268,l),
(541,364,l),
(542,272,ls),
(542,233,o),
(501,204,o),
(357,203,cs),
(166,202,o),
(109,256,o),
(110,331,cs),
(111,406,o),
(169,456,o),
(353,456,cs),
(463,456,o),
(536,439,o),
(589,396,c),
(640,613,l),
(596,694,o),
(495,746,o),
(374,746,cs),
(177,746,o),
(22,642,o),
(22,347,cs),
(22,89,o),
(161,-16,o),
(328,-16,cs)
);
}
);
width = 687;
},
{
anchors = (
{
name = bottom;
pos = (405,0);
},
{
name = top;
pos = (403,730);
}
);
associatedMasterId = "79167EE4-8C29-4BCE-A9E7-C1CFC4557E33";
background = {
anchors = (
{
name = bottom;
pos = (413,0);
},
{
name = top;
pos = (399,730);
}
);
shapes = (
{
closed = 1;
nodes = (
(515,-8,o),
(600,50,o),
(634,111,c),
(622,144,l),
(576,87,o),
(485,48,o),
(396,50,cs),
(205,52,o),
(89,157,o),
(89,366,cs),
(89,564,o),
(206,676,o),
(401,676,cs),
(491,677,o),
(583,639,o),
(630,582,c),
(644,619,l),
(609,681,o),
(529,738,o),
(401,738,cs),
(195,738,o),
(57,608,o),
(57,361,cs),
(57,146,o),
(159,-8,o),
(385,-8,cs)
);
}
);
};
layerId = "904F7F3B-E39C-4D43-8042-1D69012F07F5";
name = "24 juin 24 à 11:55";
shapes = (
{
closed = 1;
nodes = (
(508,-8,o),
(609,42,o),
(628,139,c),
(617,151,l),
(617,0,l),
(649,0,l),
(649,358,l),
(404,358,l),
(404,308,l),
(643,308,l),
(617,333,l),
(617,224,ls),
(617,86,o),
(491,49,o),
(394,50,cs),
(205,52,o),
(89,157,o),
(89,366,cs),
(89,564,o),
(206,676,o),
(401,676,cs),
(491,677,o),
(583,639,o),
(630,582,c),
(644,619,l),
(609,681,o),
(529,738,o),
(401,738,cs),
(195,738,o),
(57,608,o),
(57,361,cs),
(57,146,o),
(159,-8,o),
(390,-8,cs)
);
}
);
width = 712;
},
{
anchors = (
{
name = bottom;
pos = (405,0);
},
{
name = top;
pos = (403,730);
}
);
associatedMasterId = "79167EE4-8C29-4BCE-A9E7-C1CFC4557E33";
layerId = "D1B7A28C-4253-4AB7-8D31-84B46D31A587";
name = "24 juin 24 à 11:59";
shapes = (
{
closed = 1;
nodes = (
(508,-8,o),
(609,42,o),
(628,139,c),
(617,151,l),
(617,0,l),
(649,0,l),
(649,358,l),
(404,358,l),
(404,308,l),
(643,308,l),
(617,333,l),
(617,224,ls),
(617,86,o),
(491,49,o),
(394,50,cs),
(205,52,o),
(89,157,o),
(89,366,cs),
(89,564,o),
(206,674,o),
(401,676,cs),
(492,677,o),
(582,641,o),
(630,582,c),
(645,623,l),
(609,686,o),
(530,738,o),
(401,738,cs),
(195,738,o),
(57,608,o),
(57,361,cs),
(57,146,o),
(159,-8,o),
(390,-8,cs)
);
}
);
width = 712;
},
{
anchors = (
{
name = bottom;
pos = (405,0);
},
{
name = top;
pos = (403,730);
}
);
associatedMasterId = "79167EE4-8C29-4BCE-A9E7-C1CFC4557E33";
layerId = "AAE2D1C3-F7FA-4F24-AEDD-1F8378C4F23D";
name = "24 juin 24 à 12:01";
shapes = (
{
closed = 1;
nodes = (
(508,-8,o),
(609,42,o),
(628,139,c),
(617,151,l),
(617,0,l),
(649,0,l),
(649,358,l),
(404,358,l),
(404,308,l),
(643,308,l),
(617,333,l),
(617,224,ls),
(617,86,o),
(491,49,o),
(394,50,cs),
(205,52,o),
(89,157,o),
(89,366,cs),
(89,564,o),
(206,674,o),
(401,676,cs),
(492,677,o),
(582,641,o),
(630,582,c),
(643,621,l),
(607,685,o),
(528,738,o),
(401,738,cs),
(195,738,o),
(57,608,o),
(57,361,cs),
(57,146,o),
(159,-8,o),
(390,-8,cs)
);
}
);
width = 712;
},
{
anchors = (
{
name = bottom;
pos = (405,0);
},
{
name = top;
pos = (403,730);
}
);
associatedMasterId = "79167EE4-8C29-4BCE-A9E7-C1CFC4557E33";
layerId = "5D99FDF7-C04D-4FB4-85AE-CD468F2FDF44";
name = "25 juin 24 à 16:41";
shapes = (
{
closed = 1;
nodes = (
(508,-8,o),
(609,42,o),
(628,139,c),
(617,151,l),
(617,0,l),
(649,0,l),
(649,358,l),
(404,358,l),
(404,308,l),
(643,308,l),
(617,333,l),
(617,224,ls),
(617,86,o),
(491,49,o),
(394,50,cs),
(205,52,o),
(89,157,o),
(89,366,cs),
(89,564,o),
(206,674,o),
(401,676,cs),
(492,677,o),
(582,641,o),
(630,582,c),
(644,625,l),
(608,687,o),
(529,738,o),
(401,738,cs),
(195,738,o),
(57,608,o),
(57,361,cs),
(57,146,o),
(159,-8,o),
(390,-8,cs)
);
}
);
width = 712;
},
{
anchors = (
{
name = bottom;
pos = (405,0);
},
{
name = top;
pos = (403,730);
}
);
associatedMasterId = "79167EE4-8C29-4BCE-A9E7-C1CFC4557E33";
layerId = "9DFC55F2-E04F-4BBD-9356-D23B380A15D9";
name = "27 juin 24 à 18:05";
shapes = (
{
closed = 1;
nodes = (
(508,-8,o),
(609,42,o),
(628,139,c),
(617,151,l),
(617,0,l),
(649,0,l),
(649,358,l),
(404,358,l),
(404,308,l),
(643,308,l),
(617,333,l),
(617,284,ls),
(617,124,o),
(524,49,o),
(381,50,cs),
(202,51,o),
(89,154,o),
(89,366,cs),
(89,564,o),
(206,674,o),
(401,676,cs),
(492,677,o),
(582,641,o),
(630,582,c),
(644,625,l),
(608,687,o),
(529,738,o),
(401,738,cs),
(195,738,o),
(57,608,o),
(57,361,cs),
(57,143,o),
(156,-8,o),
(379,-8,cs)
);
}
);
width = 712;
}
);
metricLeft = "=O";
unicode = 71;
},
{
glyphname = H;
lastChange = "2024-06-26 13:43:53 +0000";
layers = (
{
anchors = (
{
name = top;
pos = (365,730);
}
);
layerId = "79167EE4-8C29-4BCE-A9E7-C1CFC4557E33";
shapes = (
{
closed = 1;
nodes = (
(608,351,l),
(608,401,l),
(128,401,l),
(128,351,l)
);
},
{
closed = 1;
nodes = (
(135,0,l),
(135,730,l),
(103,730,l),
(103,0,l)
);
},
{
closed = 1;
nodes = (
(633,0,l),
(633,730,l),
(601,730,l),
(601,0,l)
);
}
);
width = 735;
},
{
anchors = (
{
name = top;
pos = (365,730);
}
);
layerId = "41EDA971-A137-4972-81AF-7929AB7CAABF";
shapes = (
{
closed = 1;
nodes = (
(553,205,l),
(553,495,l),
(153,495,l),
(153,205,l)
);
},
{
closed = 1;
nodes = (
(166,0,l),
(166,730,l),
(70,730,l),
(70,0,l)
);
},
{
closed = 1;
nodes = (
(638,0,l),
(638,730,l),
(542,730,l),
(542,0,l)
);
}
);
width = 708;
}
);
unicode = 72;
},
{
glyphname = Hbar;
lastChange = "2024-08-28 12:23:37 +0000";
layers = (
{
layerId = "79167EE4-8C29-4BCE-A9E7-C1CFC4557E33";
shapes = (
{
closed = 1;
nodes = (
(751,547,l),
(751,597,l),
(32,597,l),
(32,547,l)
);
},
{
alignment = -1;
pos = (14,0);
ref = H;
}
);
width = 783;
},
{
layerId = "41EDA971-A137-4972-81AF-7929AB7CAABF";
shapes = (
{
closed = 1;
nodes = (
(704,549,l),
(704,681,l),
(-1,681,l),
(-1,549,l)
);
},
{
alignment = -1;
pos = (-6,0);
ref = H;
}
);
width = 703;
},
{
associatedMasterId = "41EDA971-A137-4972-81AF-7929AB7CAABF";
layerId = "9A6E7936-35DA-4E19-9807-0DA492C039D3";
name = "28 août 24 à 14:23";
shapes = (
{
closed = 1;
nodes = (
(704,559,l),
(704,657,l),
(-1,657,l),
(-1,559,l)
);
},
{
alignment = -1;
pos = (-6,0);
ref = H;
}
);
width = 703;
}
);
unicode = 294;
},
{
glyphname = I;
lastChange = "2024-08-28 12:23:56 +0000";
layers = (
{
anchors = (
{
name = ogonek;
pos = (245,0);
},
{
name = top;
pos = (210,730);
}
);
layerId = "79167EE4-8C29-4BCE-A9E7-C1CFC4557E33";
shapes = (
{
closed = 1;
nodes = (
(226,0,l),
(226,730,l),
(194,730,l),
(194,0,l)
);
},
{
closed = 1;
nodes = (
(372,0,l),
(372,54,l),
(52,54,l),
(52,0,l)
);
},
{
closed = 1;
nodes = (
(377,672,l),
(377,730,l),
(47,730,l),
(47,672,l)
);
}
);
width = 424;
},
{
anchors = (
{
name = ogonek;
pos = (307,0);
},
{
name = top;
pos = (246,730);
}
);
layerId = "41EDA971-A137-4972-81AF-7929AB7CAABF";
shapes = (
{
closed = 1;
nodes = (
(294,36,l),
(294,683,l),
(198,683,l),
(198,36,l)
);
},
{
closed = 1;
nodes = (
(438,0,l),
(438,218,l),
(54,218,l),
(54,0,l)
);
},
{
closed = 1;
nodes = (
(438,440,l),
(438,730,l),
(54,730,l),
(54,440,l)
);
}
);
width = 492;
},
{
anchors = (
{
name = ogonek;
pos = (320,0);
},
{
name = top;
pos = (273,730);
}
);
associatedMasterId = "41EDA971-A137-4972-81AF-7929AB7CAABF";
layerId = "CA9A493C-4CE0-472C-B798-846E428AEB1D";
name = "9 avr. 24 à 11:59";
shapes = (
{
closed = 1;
nodes = (
(311,36,l),
(311,683,l),
(215,683,l),
(215,36,l)
);
},
{
closed = 1;
nodes = (
(457,0,l),
(457,218,l),
(58,218,l),
(58,0,l)
);
},
{
closed = 1;
nodes = (
(444,440,l),
(444,730,l),
(76,730,l),
(76,440,l)
);
}
);
width = 516;
}
);
unicode = 73;
},
{
glyphname = Iogonek;
lastChange = "2024-08-28 12:27:05 +0000";
layers = (
{
background = {
shapes = (
{
closed = 1;
nodes = (
(251,-203,o),
(283,-185,o),
(297,-160,c),
(289,-125,l),
(271,-140,o),
(246,-150,o),
(212,-150,cs),
(176,-150,o),
(156,-135,o),
(156,-105,cs),
(156,-75,o),
(179,-40,o),
(263,0,c),
(238,11,l),
(154,-27,o),
(117,-77,o),
(117,-125,cs),
(117,-177,o),
(151,-203,o),
(206,-203,cs)
);
},
{
ref = I;
}
);
};
layerId = "79167EE4-8C29-4BCE-A9E7-C1CFC4557E33";
shapes = (
{
closed = 1;
nodes = (
(251,-203,o),
(283,-185,o),
(297,-160,c),
(289,-125,l),
(271,-140,o),
(246,-150,o),
(212,-150,cs),
(176,-150,o),
(156,-135,o),
(156,-105,cs),
(156,-75,o),
(176,-40,o),
(238,0,c),
(213,11,l),
(146,-31,o),
(117,-77,o),
(117,-124,cs),
(117,-177,o),
(151,-203,o),
(206,-203,cs)
);
},
{
ref = I;
}
);
width = 424;
},
{
layerId = "41EDA971-A137-4972-81AF-7929AB7CAABF";
shapes = (
{
closed = 1;
nodes = (
(320,-212,o),
(371,-183,o),
(389,-148,c),
(360,-63,l),
(337,-77,o),
(313,-87,o),
(287,-87,cs),
(263,-87,o),
(251,-77,o),
(251,-60,cs),
(251,-38,o),
(273,-13,o),
(315,0,c),
(258,25,l),
(180,-7,o),
(143,-60,o),
(143,-115,cs),
(143,-176,o),
(188,-212,o),
(261,-212,cs)
);
},
{
ref = I;
}
);
width = 492;
},
{
associatedMasterId = "79167EE4-8C29-4BCE-A9E7-C1CFC4557E33";
layerId = "DA93A46E-C681-4F37-86F7-2511B2A73417";
name = "28 août 24 à 12:47";
shapes = (
{
ref = I;
},
{
pos = (-5,0);
ref = ogonekcomb;
}
);
width = 424;
},
{
associatedMasterId = "41EDA971-A137-4972-81AF-7929AB7CAABF";
layerId = "6D1A8AF7-BC77-4985-8464-FE2CC9B104D6";
name = "28 août 24 à 12:48";
shapes = (
{
ref = I;
},
{
pos = (27,0);
ref = ogonekcomb;
}
);
width = 492;
}
);
unicode = 302;
},
{
glyphname = J;
lastChange = "2024-08-28 10:49:12 +0000";
layers = (
{
anchors = (
{
name = top;
pos = (236,730);
}
);
layerId = "79167EE4-8C29-4BCE-A9E7-C1CFC4557E33";
shapes = (
{
closed = 1;
nodes = (
(271,-8,o),
(342,47,o),
(342,220,cs),
(342,730,l),
(310,730,l),
(310,232,ls),
(310,93,o),
(266,50,o),
(175,50,cs),
(121,50,o),
(68,71,o),
(40,103,c),
(25,62,l),
(46,25,o),
(96,-8,o),
(174,-8,cs)
);
},
{
closed = 1;
nodes = (
(342,672,l),
(342,730,l),
(119,730,l),
(119,672,l)
);
}
);
width = 444;
},
{
anchors = (
{
name = top;
pos = (269,730);
}
);
background = {
shapes = (
{
closed = 1;
nodes = (
(395,-16,o),
(443,75,o),
(443,305,cs),
(443,730,l),
(347,730,l),
(347,328,ls),
(347,249,o),
(300,202,o),
(216,202,cs),
(131,202,o),
(74,232,o),
(54,255,c),
(4,94,l),
(29,26,o),
(94,-16,o),
(203,-16,cs)
);
},
{
closed = 1;
nodes = (
(399,440,l),
(399,730,l),
(85,730,l),
(85,440,l)
);
}
);
};
layerId = "41EDA971-A137-4972-81AF-7929AB7CAABF";
shapes = (
{
closed = 1;
nodes = (
(383,-16,o),
(443,77,o),
(443,285,cs),
(443,730,l),
(347,730,l),
(347,328,ls),
(347,249,o),
(305,202,o),
(207,202,cs),
(142,202,o),
(82,223,o),
(54,255,c),
(4,94,l),
(29,26,o),
(95,-16,o),
(211,-16,cs)
);
},
{
closed = 1;
nodes = (
(399,440,l),
(399,730,l),
(85,730,l),
(85,440,l)
);
}
);
width = 503;
},
{
anchors = (
{
name = top;
pos = (269,730);
}
);
associatedMasterId = "41EDA971-A137-4972-81AF-7929AB7CAABF";
background = {
shapes = (
{
closed = 1;
nodes = (
(395,-17,o),
(443,74,o),
(443,305,cs),
(443,730,l),
(347,730,l),
(347,346,ls),
(347,270,o),
(300,225,o),
(216,225,cs),
(134,225,o),
(78,252,o),
(59,273,c),
(4,94,l),
(29,25,o),
(94,-17,o),
(203,-17,cs)
);
},
{
closed = 1;
nodes = (
(399,440,l),
(399,730,l),
(85,730,l),
(85,440,l)
);
}
);
};
layerId = "3FCDB057-3248-4B21-A6DF-CA75517BB4A7";
name = "9 avr. 24 à 11:45";
shapes = (
{
closed = 1;
nodes = (
(395,-17,o),
(443,74,o),
(443,305,cs),
(443,730,l),
(347,730,l),
(347,346,ls),
(347,267,o),
(300,220,o),
(216,220,cs),
(134,220,o),
(78,250,o),
(59,273,c),
(4,94,l),
(29,25,o),
(94,-17,o),
(203,-17,cs)
);
},
{
closed = 1;
nodes = (
(399,440,l),
(399,730,l),
(85,730,l),
(85,440,l)
);
}
);
width = 515;
},
{
anchors = (
{
name = top;
pos = (256,730);
}
);
associatedMasterId = "79167EE4-8C29-4BCE-A9E7-C1CFC4557E33";
layerId = "A7F947EA-2886-45AD-A5AA-ACB5050C526D";
name = "10 avr. 24 à 15:05";
shapes = (
{
closed = 1;
nodes = (
(246,-8,o),
(332,68,o),
(332,247,cs),
(332,730,l),
(300,730,l),
(300,266,ls),
(300,108,o),
(251,46,o),
(150,46,cs),
(95,46,o),
(48,65,o),
(19,101,c),
(2,59,l),
(32,18,o),
(83,-8,o),
(151,-8,cs)
);
},
{
closed = 1;
nodes = (
(332,672,l),
(332,730,l),
(139,730,l),
(139,672,l)
);
}
);
width = 443;
},
{
anchors = (
{
name = top;
pos = (256,730);
}
);
associatedMasterId = "79167EE4-8C29-4BCE-A9E7-C1CFC4557E33";
background = {
anchors = (
{
name = bottom;
pos = (171,0);
},
{
name = top;
pos = (172,548);
}
);
};
layerId = "6F4CA140-3AE8-4324-8C55-61D062C27FB0";
name = "24 juin 24 à 12:19";
shapes = (
{
closed = 1;
nodes = (
(261,-8,o),
(332,47,o),
(332,220,cs),
(332,730,l),
(300,730,l),
(300,232,ls),
(300,93,o),
(256,50,o),
(165,50,cs),
(111,50,o),
(57,69,o),
(29,99,c),
(15,62,l),
(36,25,o),
(86,-8,o),
(164,-8,cs)
);
},
{
closed = 1;
nodes = (
(332,672,l),
(332,730,l),
(139,730,l),
(139,672,l)
);
}
);
width = 443;
},
{
anchors = (
{
name = top;
pos = (266,730);
}
);
associatedMasterId = "79167EE4-8C29-4BCE-A9E7-C1CFC4557E33";
layerId = "D956F24A-6C8D-4C03-B4AB-D047AC8141DC";
name = "24 juin 24 à 13:41";
shapes = (
{
closed = 1;
nodes = (
(271,-8,o),
(342,47,o),
(342,220,cs),
(342,730,l),
(310,730,l),
(310,232,ls),
(310,93,o),
(266,50,o),
(175,50,cs),
(121,50,o),
(68,71,o),
(40,103,c),
(25,62,l),
(46,25,o),
(96,-8,o),
(174,-8,cs)
);
},
{
closed = 1;
nodes = (
(342,672,l),
(342,730,l),
(149,730,l),
(149,672,l)
);
}
);
width = 444;
},
{
anchors = (
{
name = top;
pos = (269,730);
}
);
associatedMasterId = "41EDA971-A137-4972-81AF-7929AB7CAABF";
background = {
shapes = (
{
closed = 1;
nodes = (
(395,-16,o),
(443,75,o),
(443,305,cs),
(443,730,l),
(347,730,l),
(347,328,ls),
(347,249,o),
(300,202,o),
(216,202,cs),
(131,202,o),
(74,232,o),
(54,255,c),
(4,94,l),
(29,26,o),
(94,-16,o),
(203,-16,cs)
);
},
{
closed = 1;
nodes = (
(399,440,l),
(399,730,l),
(85,730,l),
(85,440,l)
);
}
);
};
layerId = "9160B26D-6899-45B8-B2A3-0E0083B75E1D";
name = "1 juil. 24 à 17:33";
shapes = (
{
closed = 1;
nodes = (
(395,-16,o),
(443,75,o),
(443,305,cs),
(443,730,l),
(347,730,l),
(347,328,ls),
(347,249,o),
(300,202,o),
(216,202,cs),
(131,202,o),
(74,232,o),
(54,255,c),
(4,94,l),
(29,26,o),
(94,-16,o),
(203,-16,cs)
);
},
{
closed = 1;
nodes = (
(399,440,l),
(399,730,l),
(85,730,l),
(85,440,l)
);
}
);
width = 503;
}
);
unicode = 74;
},
{
glyphname = K;
lastChange = "2024-06-26 14:00:01 +0000";
layers = (
{
anchors = (
{
name = bottom;
pos = (325,0);
}
);
layerId = "79167EE4-8C29-4BCE-A9E7-C1CFC4557E33";
shapes = (
{
closed = 1;
nodes = (
(637,730,l),
(566,730,l),
(121,289,l),
(132,229,l)
);
},
{
closed = 1;
nodes = (
(135,0,l),
(135,730,l),
(103,730,l),
(103,0,l)
);
},
{
closed = 1;
nodes = (
(635,0,l),
(264,420,l),
(240,399,l),
(592,0,l)
);
}
);
width = 668;
},
{
anchors = (
{
name = bottom;
pos = (347,0);
}
);
layerId = "41EDA971-A137-4972-81AF-7929AB7CAABF";
shapes = (
{
closed = 1;
nodes = (
(677,730,l),
(353,730,l),
(159,508,l),
(159,136,l)
);
},
{
closed = 1;
nodes = (
(166,0,l),
(166,730,l),
(70,730,l),
(70,0,l)
);
},
{
closed = 1;
nodes = (
(652,0,l),
(340,396,l),
(276,323,l),
(530,0,l)
);
}
);
width = 637;
},
{
anchors = (
{
name = bottom;
pos = (357,0);
}
);
associatedMasterId = "41EDA971-A137-4972-81AF-7929AB7CAABF";
layerId = "B2CA3C20-914A-42CE-83EA-775DEA864C0B";
name = "9 avr. 24 à 12:18";
shapes = (
{
closed = 1;
nodes = (
(687,730,l),
(379,730,l),
(171,466,l),
(169,136,l)
);
},
{
closed = 1;
nodes = (
(176,0,l),
(176,730,l),
(80,730,l),
(80,0,l)
);
},
{
closed = 1;
nodes = (
(662,0,l),
(298,462,l),
(250,368,l),
(540,0,l)
);
}
);
width = 645;
}
);
metricLeft = "=H";
unicode = 75;
},
{
glyphname = L;
lastChange = "2024-08-28 15:24:51 +0000";
layers = (
{
anchors = (
{
name = bottom;
pos = (322,0);
},
{
name = caroncomb.alt;
pos = (243,730);
},
{
name = top;
pos = (118,730);
}
);
layerId = "79167EE4-8C29-4BCE-A9E7-C1CFC4557E33";
shapes = (
{
closed = 1;
nodes = (
(135,0,l),
(135,730,l),
(103,730,l),
(103,0,l)
);
},
{
closed = 1;
nodes = (
(522,0,l),
(522,54,l),
(131,54,l),
(131,0,l)
);
}
);
width = 537;
},
{
anchors = (
{
name = bottom;
pos = (290,0);
},
{
name = caroncomb.alt;
pos = (233,730);
},
{
name = top;
pos = (124,730);
}
);
layerId = "41EDA971-A137-4972-81AF-7929AB7CAABF";
shapes = (
{
closed = 1;
nodes = (
(519,0,l),
(519,222,l),
(105,222,l),
(105,0,l)
);
},
{
closed = 1;
nodes = (
(166,0,l),
(166,730,l),
(70,730,l),
(70,0,l)
);
}
);
width = 539;
}
);
metricLeft = "=H";
unicode = 76;
},
{
glyphname = Lcaron;
lastChange = "2024-08-28 15:24:51 +0000";
layers = (
{
layerId = "79167EE4-8C29-4BCE-A9E7-C1CFC4557E33";
shapes = (
{
ref = L;
},
{
pos = (243,-42);
ref = caroncomb.alt;
}
);
width = 537;
},
{
layerId = "41EDA971-A137-4972-81AF-7929AB7CAABF";
shapes = (
{
ref = L;
},
{
pos = (233,-42);
ref = caroncomb.alt;
}
);
width = 539;
},
{
associatedMasterId = "41EDA971-A137-4972-81AF-7929AB7CAABF";
layerId = "1ADC5218-DD22-4F6D-9763-1A23CB1644DA";
name = "1 juil. 24 à 15:57";
shapes = (
{
closed = 1;
nodes = (
(312,402,l),
(524,730,l),
(321,730,l),
(257,402,l)
);
},
{
alignment = -1;
ref = L;
}
);
width = 559;
}
);
unicode = 317;
},
{
glyphname = Lslash;
lastChange = "2024-08-28 12:03:08 +0000";
layers = (
{
background = {
shapes = (
{
closed = 1;
nodes = (
(343,459,l),
(319,498,l),
(19,288,l),
(43,249,l)
);
}
);
};
layerId = "79167EE4-8C29-4BCE-A9E7-C1CFC4557E33";
shapes = (
{
closed = 1;
nodes = (
(345,458,l),
(318,500,l),
(17,289,l),
(44,247,l)
);
},
{
alignment = -1;
pos = (22,0);
ref = L;
}
);
width = 559;
},
{
layerId = "41EDA971-A137-4972-81AF-7929AB7CAABF";
shapes = (
{
closed = 1;
nodes = (
(447,497,l),
(383,612,l),
(-9,377,l),
(55,261,l)
);
},
{
alignment = -1;
pos = (54,0);
ref = L;
}
);
width = 593;
},
{
associatedMasterId = "79167EE4-8C29-4BCE-A9E7-C1CFC4557E33";
layerId = "C2B43684-1A87-4389-AFA8-4EEAC485898B";
name = "27 juin 24 à 18:24";
shapes = (
{
closed = 1;
nodes = (
(356,507,l),
(356,550,l),
(13,351,l),
(13,308,l)
);
},
{
alignment = -1;
pos = (22,0);
ref = L;
}
);
width = 576;
},
{
associatedMasterId = "41EDA971-A137-4972-81AF-7929AB7CAABF";
layerId = "CEA7468A-A5A3-4755-A90D-729FF63EEF4A";
name = "1 juil. 24 à 16:10";
shapes = (
{
closed = 1;
nodes = (
(368,497,l),
(368,624,l),
(-18,365,l),
(-18,238,l)
);
},
{
alignment = -1;
pos = (-10,0);
ref = L;
}
);
width = 546;
},
{
associatedMasterId = "79167EE4-8C29-4BCE-A9E7-C1CFC4557E33";
layerId = "C7796CDB-EE33-47FE-B788-059859BFBFAA";
name = "8 août 24 à 20:56";
shapes = (
{
closed = 1;
nodes = (
(344,458,l),
(317,500,l),
(17,290,l),
(44,248,l)
);
},
{
alignment = -1;
pos = (22,0);
ref = L;
}
);
width = 559;
}
);
metricRight = "=L";
unicode = 321;
},
{
glyphname = M;
lastChange = "2024-06-26 14:00:17 +0000";
layers = (
{
layerId = "79167EE4-8C29-4BCE-A9E7-C1CFC4557E33";
shapes = (
{
closed = 1;
nodes = (
(147,0,l),
(147,715,l),
(129,715,l),
(433,0,l),
(478,0,l),
(781,716,l),
(759,719,l),
(759,0,l),
(791,0,l),
(791,730,l),
(735,730,l),
(436,24,l),
(458,24,l),
(158,730,l),
(103,730,l),
(103,0,l)
);
}
);
width = 893;
},
{
background = {
shapes = (
{
closed = 1;
nodes = (
(314,0,l),
(314,545,l),
(285,550,l),
(481,0,l),
(603,0,l),
(799,550,l),
(774,563,l),
(774,0,l),
(870,0,l),
(870,730,l),
(604,730,l),
(436,260,l),
(490,260,l),
(324,730,l),
(70,730,l),
(70,0,l)
);
}
);
};
layerId = "41EDA971-A137-4972-81AF-7929AB7CAABF";
name = UltraBlack;
shapes = (
{
closed = 1;
nodes = (
(237,0,l),
(237,545,l),
(212,550,l),
(420,0,l),
(537,0,l),
(744,550,l),
(722,563,l),
(722,0,l),
(819,0,l),
(819,730,l),
(551,730,l),
(374,260,l),
(424,260,l),
(247,730,l),
(70,730,l),
(70,0,l)
);
}
);
width = 889;
},
{
associatedMasterId = "41EDA971-A137-4972-81AF-7929AB7CAABF";
background = {
shapes = (
{
closed = 1;
nodes = (
(174,0,l),
(174,545,l),
(93,532,l),
(390,0,l),
(481,0,l),
(744,562,l),
(696,563,l),
(696,0,l),
(849,0,l),
(849,730,l),
(708,730,l),
(456,200,l),
(570,200,l),
(280,730,l),
(81,730,l),
(81,0,l)
);
}
);
};
layerId = "89577F29-C61B-4D63-B858-FB7E14658940";
name = "9 avr. 24 à 12:20";
shapes = (
{
closed = 1;
nodes = (
(176,0,l),
(176,545,l),
(147,538,l),
(366,0,l),
(505,0,l),
(735,562,l),
(696,563,l),
(696,0,l),
(849,0,l),
(849,730,l),
(693,730,l),
(474,200,l),
(534,200,l),
(328,730,l),
(80,730,l),
(80,0,l)
);
}
);
width = 929;
},
{
associatedMasterId = "41EDA971-A137-4972-81AF-7929AB7CAABF";
layerId = "1013C4BE-BD42-4C38-82D1-73F70F0EFD52";
name = "9 avr. 24 à 12:21";
shapes = (
{
closed = 1;
nodes = (
(176,0,l),
(176,545,l),
(147,538,l),
(363,0,l),
(505,0,l),
(720,562,l),
(696,563,l),
(696,0,l),
(849,0,l),
(849,730,l),
(685,730,l),
(478,200,l),
(545,200,l),
(336,730,l),
(80,730,l),
(80,0,l)
);
}
);
width = 929;
},
{
associatedMasterId = "41EDA971-A137-4972-81AF-7929AB7CAABF";
layerId = "C1D1A80A-C7FC-4DEF-AB8E-9B21413A8534";
name = "9 avr. 24 à 12:23";
shapes = (
{
closed = 1;
nodes = (
(324,0,l),
(324,545,l),
(295,550,l),
(511,0,l),
(653,0,l),
(869,550,l),
(844,563,l),
(844,0,l),
(940,0,l),
(940,730,l),
(678,730,l),
(469,200,l),
(535,200,l),
(331,730,l),
(80,730,l),
(80,0,l)
);
}
);
width = 1020;
},
{
associatedMasterId = "41EDA971-A137-4972-81AF-7929AB7CAABF";
layerId = "41A9A4AC-0B79-4384-93D8-E732932F590A";
name = "9 avr. 24 à 14:47";
shapes = (
{
closed = 1;
nodes = (
(324,0,l),
(324,545,l),
(295,550,l),
(491,0,l),
(613,0,l),
(809,550,l),
(784,563,l),
(784,0,l),
(880,0,l),
(880,730,l),
(614,730,l),
(446,260,l),
(500,260,l),
(334,730,l),
(80,730,l),
(80,0,l)
);
}
);
width = 960;
},
{
associatedMasterId = "41EDA971-A137-4972-81AF-7929AB7CAABF";
layerId = "6089EBDF-5135-4E77-A312-1B0E7255A137";
name = "9 avr. 24 à 14:49";
shapes = (
{
closed = 1;
nodes = (
(176,0,l),
(176,545,l),
(155,550,l),
(373,0,l),
(486,0,l),
(704,550,l),
(684,563,l),
(684,0,l),
(781,0,l),
(781,730,l),
(513,730,l),
(327,260,l),
(374,260,l),
(186,730,l),
(80,730,l),
(80,0,l)
);
}
);
width = 861;
},
{
associatedMasterId = "41EDA971-A137-4972-81AF-7929AB7CAABF";
background = {
shapes = (
{
closed = 1;
nodes = (
(324,0,l),
(324,545,l),
(295,550,l),
(491,0,l),
(613,0,l),
(809,550,l),
(784,563,l),
(784,0,l),
(880,0,l),
(880,730,l),
(614,730,l),
(446,260,l),
(500,260,l),
(334,730,l),
(80,730,l),
(80,0,l)
);
}
);
};
layerId = "A9F87E53-17C5-45F3-991C-D46886E456C9";
name = "9 avr. 24 à 14:49";
shapes = (
{
closed = 1;
nodes = (
(176,0,l),
(176,545,l),
(155,550,l),
(373,0,l),
(486,0,l),
(704,550,l),
(684,563,l),
(684,0,l),
(781,0,l),
(781,730,l),
(513,730,l),
(327,260,l),
(374,260,l),
(186,730,l),
(80,730,l),
(80,0,l)
);
}
);
width = 861;
},
{
associatedMasterId = "79167EE4-8C29-4BCE-A9E7-C1CFC4557E33";
layerId = "C027C2C2-3693-40DB-BDCF-945B4CF46CE4";
name = "10 avr. 24 à 13:59";
shapes = (
{
closed = 1;
nodes = (
(135,0,l),
(135,715,l),
(129,715,l),
(433,0,l),
(470,0,l),
(773,716,l),
(759,719,l),
(759,0,l),
(791,0,l),
(791,730,l),
(744,730,l),
(445,24,l),
(464,24,l),
(164,730,l),
(103,730,l),
(103,0,l)
);
}
);
width = 893;
}
);
metricLeft = "=H";
metricRight = "=H";
unicode = 77;
},
{
glyphname = N;
lastChange = "2024-08-28 15:25:55 +0000";
layers = (
{
anchors = (
{
name = bottom;
pos = (401,0);
},
{
name = top;
pos = (422,730);
}
);
layerId = "79167EE4-8C29-4BCE-A9E7-C1CFC4557E33";
shapes = (
{
closed = 1;
nodes = (
(135,0,l),
(135,707,l),
(109,716,l),
(632,0,l),
(686,0,l),
(686,730,l),
(654,730,l),
(654,25,l),
(670,39,l),
(166,730,l),
(103,730,l),
(103,0,l)
);
}
);
width = 788;
},
{
anchors = (
{
name = bottom;
pos = (392,0);
},
{
name = top;
pos = (444,730);
}
);
associatedMasterId = "41EDA971-A137-4972-81AF-7929AB7CAABF";
layerId = "09D4F261-2D9A-47BB-8B1E-99959FA36E5F";
name = "9 avr. 24 à 12:16";
shapes = (
{
closed = 1;
nodes = (
(176,0,l),
(176,561,l),
(148,538,l),
(470,0,l),
(709,0,l),
(709,730,l),
(613,730,l),
(613,52,l),
(673,136,l),
(327,730,l),
(80,730,l),
(80,0,l)
);
}
);
width = 789;
},
{
anchors = (
{
name = bottom;
pos = (392,0);
},
{
name = top;
pos = (444,730);
}
);
associatedMasterId = "41EDA971-A137-4972-81AF-7929AB7CAABF";
layerId = "5097B9AB-4AB7-4E3E-8228-EF31059F05DE";
name = "9 avr. 24 à 12:17";
shapes = (
{
closed = 1;
nodes = (
(176,0,l),
(176,561,l),
(146,538,l),
(470,0,l),
(709,0,l),
(709,730,l),
(613,730,l),
(613,52,l),
(680,143,l),
(327,730,l),
(80,730,l),
(80,0,l)
);
}
);
width = 789;
},
{
anchors = (
{
name = bottom;
pos = (392,0);
},
{
name = top;
pos = (444,730);
}
);
associatedMasterId = "41EDA971-A137-4972-81AF-7929AB7CAABF";
layerId = "C75AFFB3-2329-476E-A6BC-AABC27025785";
name = "9 avr. 24 à 12:18";
shapes = (
{
closed = 1;
nodes = (
(176,0,l),
(176,561,l),
(159,548,l),
(501,0,l),
(709,0,l),
(709,730,l),
(613,730,l),
(613,52,l),
(668,143,l),
(303,730,l),
(80,730,l),
(80,0,l)
);
}
);
width = 789;
},
{
anchors = (
{
name = bottom;
pos = (462,0);
},
{
name = top;
pos = (514,730);
}
);
associatedMasterId = "41EDA971-A137-4972-81AF-7929AB7CAABF";
layerId = "94E61717-E09B-49BE-BE20-8E938640D15E";
name = "9 avr. 24 à 12:25";
shapes = (
{
closed = 1;
nodes = (
(324,0,l),
(324,561,l),
(302,563,l),
(540,0,l),
(799,0,l),
(799,730,l),
(555,730,l),
(555,52,l),
(593,119,l),
(337,730,l),
(80,730,l),
(80,0,l)
);
}
);
width = 879;
},
{
anchors = (
{
name = bottom;
pos = (382,0);
},
{
name = top;
pos = (413,730);
}
);
layerId = "41EDA971-A137-4972-81AF-7929AB7CAABF";
name = Black;
shapes = (
{
closed = 1;
nodes = (
(166,0,l),
(166,561,l),
(136,538,l),
(460,0,l),
(699,0,l),
(699,730,l),
(603,730,l),
(603,52,l),
(673,138,l),
(317,730,l),
(70,730,l),
(70,0,l)
);
}
);
width = 769;
}
);
metricLeft = "=H";
metricRight = "=H";
unicode = 78;
},
{
glyphname = Eng;
lastChange = "2024-07-01 14:10:19 +0000";
layers = (
{
background = {
anchors = (
{
name = bottom;
pos = (371,0);
},
{
name = top;
pos = (435,730);
}
);
};
layerId = "79167EE4-8C29-4BCE-A9E7-C1CFC4557E33";
shapes = (
{
closed = 1;
nodes = (
(615,-204,o),
(686,-156,o),
(686,-6,cs),
(686,730,l),
(654,730,l),
(654,36,l),
(681,45,l),
(166,730,l),
(103,730,l),
(103,0,l),
(135,0,l),
(135,717,l),
(108,717,l),
(681,-44,l),
(654,0,l),
(654,-110,o),
(608,-146,o),
(519,-146,cs),
(465,-146,o),
(412,-125,o),
(384,-93,c),
(369,-134,l),
(390,-171,o),
(440,-204,o),
(518,-204,cs)
);
}
);
width = 788;
},
{
background = {
shapes = (
{
closed = 1;
nodes = (
(699,0,l),
(699,730,l),
(603,730,l),
(603,52,l),
(670,307,l),
(317,730,l),
(70,730,l),
(70,0,l),
(166,0,l),
(166,561,l),
(136,538,l),
(623,-23,l)
);
},
{
closed = 1;
nodes = (
(645,-211,o),
(699,-144,o),
(699,10,cs),
(699,524,l),
(603,524,l),
(603,8,ls),
(603,-21,o),
(567,-33,o),
(514,-33,cs),
(437,-33,o),
(390,-13,o),
(358,10,c),
(313,-135,l),
(337,-179,o),
(396,-211,o),
(495,-211,cs)
);
}
);
};
layerId = "41EDA971-A137-4972-81AF-7929AB7CAABF";
shapes = (
{
closed = 1;
nodes = (
(642,-211,o),
(697,-147,o),
(699,0,cs),
(699,730,l),
(603,730,l),
(603,342,l),
(632,352,l),
(317,730,l),
(70,730,l),
(70,0,l),
(166,0,l),
(166,548,l),
(136,537,l),
(632,-33,l),
(603,7,l),
(603,-21,o),
(566,-33,o),
(514,-33,cs),
(437,-33,o),
(390,-13,o),
(358,10,c),
(313,-135,l),
(337,-179,o),
(396,-211,o),
(495,-211,cs)
);
}
);
width = 769;
},
{
associatedMasterId = "79167EE4-8C29-4BCE-A9E7-C1CFC4557E33";
background = {
shapes = (
{
pos = (10,0);
ref = N;
},
{
pos = (354,-196);
ref = J;
}
);
};
layerId = "EBED50F6-078F-4DB5-9D94-760855EBA5A6";
name = "27 juin 24 à 18:27";
shapes = (
{
closed = 1;
nodes = (
(706,13,l),
(706,730,l),
(663,730,l),
(663,45,l),
(662,63,l),
(158,730,l),
(103,730,l),
(103,0,l),
(145,0,l),
(145,707,l),
(113,716,l),
(668,-9,l)
);
},
{
closed = 1;
nodes = (
(627,-209,o),
(706,-142,o),
(706,13,c),
(663,55,l),
(663,-95,o),
(624,-153,o),
(544,-153,cs),
(496,-153,o),
(444,-140,o),
(403,-91,c),
(386,-158,l),
(435,-196,o),
(482,-209,o),
(539,-209,cs)
);
}
);
width = 808;
},
{
associatedMasterId = "41EDA971-A137-4972-81AF-7929AB7CAABF";
layerId = "0502ACA1-3403-44EE-9AA1-81F4D299CC6E";
name = "1 juil. 24 à 16:01";
shapes = (
{
closed = 1;
nodes = (
(699,89,l),
(699,730,l),
(603,730,l),
(603,45,l),
(705,229,l),
(317,730,l),
(70,730,l),
(70,0,l),
(166,0,l),
(166,561,l),
(164,522,l),
(605,-29,l)
);
},
{
closed = 1;
nodes = (
(654,-217,o),
(699,-131,o),
(699,89,c),
(603,29,l),
(603,12,o),
(556,-3,o),
(477,-3,cs),
(397,-3,o),
(347,25,o),
(335,47,c),
(286,-102,l),
(304,-168,o),
(365,-217,o),
(473,-217,cs)
);
}
);
width = 775;
},
{
associatedMasterId = "41EDA971-A137-4972-81AF-7929AB7CAABF";
layerId = "FF0D8D05-B369-4CB9-A8B7-8100904FC484";
name = "1 juil. 24 à 16:08";
shapes = (
{
closed = 1;
nodes = (
(699,89,l),
(699,730,l),
(603,730,l),
(603,45,l),
(704,229,l),
(317,730,l),
(70,730,l),
(70,0,l),
(166,0,l),
(166,561,l),
(164,522,l),
(605,-29,l)
);
},
{
closed = 1;
nodes = (
(654,-217,o),
(699,-131,o),
(699,89,c),
(603,29,l),
(603,12,o),
(556,-3,o),
(477,-3,cs),
(397,-3,o),
(347,25,o),
(335,47,c),
(286,-102,l),
(304,-168,o),
(365,-217,o),
(473,-217,cs)
);
}
);
width = 775;
}
);
metricLeft = "=N";
metricRight = "=N";
unicode = 330;
},
{
glyphname = O;
lastChange = "2024-08-28 13:33:55 +0000";
layers = (
{
anchors = (
{
name = top;
pos = (370,730);
}
);
layerId = "79167EE4-8C29-4BCE-A9E7-C1CFC4557E33";
shapes = (
{
closed = 1;
nodes = (
(559,-8,o),
(683,133,o),
(683,365,cs),
(683,597,o),
(559,738,o),
(370,738,cs),
(180,738,o),
(56,597,o),
(56,365,cs),
(56,133,o),
(180,-8,o),
(370,-8,cs)
);
},
{
closed = 1;
nodes = (
(192,50,o),
(88,176,o),
(88,365,cs),
(88,553,o),
(192,676,o),
(370,676,cs),
(548,676,o),
(651,553,o),
(651,365,cs),
(651,176,o),
(548,50,o),
(370,50,cs)
);
}
);
width = 739;
},
{
anchors = (
{
name = top;
pos = (349,730);
}
);
layerId = "41EDA971-A137-4972-81AF-7929AB7CAABF";
shapes = (
{
closed = 1;
nodes = (
(530,-16,o),
(670,88,o),
(670,365,cs),
(670,643,o),
(530,746,o),
(349,746,cs),
(167,746,o),
(28,643,o),
(28,365,cs),
(28,88,o),
(167,-16,o),
(349,-16,cs)
);
},
{
closed = 1;
nodes = (
(181,202,o),
(111,245,o),
(111,329,cs),
(111,413,o),
(181,456,o),
(349,456,cs),
(517,456,o),
(587,413,o),
(587,329,cs),
(587,245,o),
(517,202,o),
(349,202,cs)
);
}
);
width = 698;
},
{
anchors = (
{
name = top;
pos = (330,730);
}
);
associatedMasterId = "41EDA971-A137-4972-81AF-7929AB7CAABF";
layerId = "E483341D-927E-4DF7-B2D8-9AB9078BFFCF";
name = "9 avr. 24 à 11:24";
shapes = (
{
closed = 1;
nodes = (
(510,-16,o),
(641,78,o),
(641,342,cs),
(641,653,o),
(515,746,o),
(331,746,cs),
(150,746,o),
(22,653,o),
(22,342,cs),
(22,78,o),
(156,-16,o),
(331,-16,cs)
);
},
{
closed = 1;
nodes = (
(180,208,o),
(97,256,o),
(97,328,cs),
(97,406,o),
(180,456,o),
(331,456,cs),
(482,456,o),
(566,406,o),
(566,328,cs),
(566,254,o),
(482,208,o),
(331,208,cs)
);
}
);
width = 663;
},
{
anchors = (
{
name = top;
pos = (375,730);
}
);
associatedMasterId = "79167EE4-8C29-4BCE-A9E7-C1CFC4557E33";
layerId = "B10B1586-D3F4-4F6A-9FEB-EF90F800A987";
name = "10 avr. 24 à 15:02";
shapes = (
{
closed = 1;
nodes = (
(563,-8,o),
(696,120,o),
(696,370,cs),
(696,611,o),
(562,738,o),
(375,738,cs),
(191,738,o),
(57,612,o),
(57,370,cs),
(57,119,o),
(189,-8,o),
(375,-8,cs)
);
},
{
closed = 1;
nodes = (
(205,50,o),
(89,145,o),
(89,364,cs),
(89,570,o),
(205,676,o),
(375,676,cs),
(546,676,o),
(664,570,o),
(664,364,cs),
(664,145,o),
(546,50,o),
(375,50,cs)
);
}
);
width = 753;
},
{
anchors = (
{
name = top;
pos = (375,730);
}
);
associatedMasterId = "79167EE4-8C29-4BCE-A9E7-C1CFC4557E33";
layerId = "418110D7-6368-43EE-BCD0-DA6BF137FA85";
name = "27 juin 24 à 16:48";
shapes = (
{
closed = 1;
nodes = (
(569,-8,o),
(696,130,o),
(696,365,cs),
(696,600,o),
(569,738,o),
(378,738,cs),
(184,738,o),
(57,600,o),
(57,365,cs),
(57,130,o),
(184,-8,o),
(378,-8,cs)
);
},
{
closed = 1;
nodes = (
(196,50,o),
(89,173,o),
(89,365,cs),
(89,555,o),
(196,676,o),
(377,676,cs),
(558,676,o),
(664,557,o),
(664,365,cs),
(664,172,o),
(558,50,o),
(377,50,cs)
);
}
);
width = 753;
},
{
anchors = (
{
name = top;
pos = (338,730);
}
);
associatedMasterId = "41EDA971-A137-4972-81AF-7929AB7CAABF";
layerId = "754AA85F-B1B2-4CFA-ABD9-437F6139C2A9";
name = "2 juil. 24 à 14:41";
shapes = (
{
closed = 1;
nodes = (
(515,-16,o),
(651,88,o),
(651,365,cs),
(651,643,o),
(515,746,o),
(340,746,cs),
(163,746,o),
(28,643,o),
(28,365,cs),
(28,88,o),
(163,-16,o),
(340,-16,cs)
);
},
{
closed = 1;
nodes = (
(180,202,o),
(111,250,o),
(111,331,cs),
(111,414,o),
(181,456,o),
(341,456,cs),
(504,456,o),
(568,414,o),
(568,331,cs),
(568,250,o),
(504,202,o),
(341,202,cs)
);
}
);
width = 679;
}
);
unicode = 79;
},
{
glyphname = Oslash;
lastChange = "2024-08-28 15:18:26 +0000";
layers = (
{
layerId = "79167EE4-8C29-4BCE-A9E7-C1CFC4557E33";
shapes = (
{
closed = 1;
nodes = (
(705,706,l),
(672,738,l),
(48,24,l),
(81,-8,l)
);
},
{
alignment = -1;
ref = O;
}
);
width = 739;
},
{
layerId = "41EDA971-A137-4972-81AF-7929AB7CAABF";
shapes = (
{
closed = 1;
nodes = (
(669,676,l),
(567,762,l),
(8,53,l),
(107,-34,l)
);
},
{
alignment = -1;
ref = O;
}
);
width = 698;
},
{
associatedMasterId = "79167EE4-8C29-4BCE-A9E7-C1CFC4557E33";
layerId = "102E39D0-127B-456D-8A54-C0C4EB2E89E2";
name = "28 juin 24 à 13:33";
shapes = (
{
closed = 1;
nodes = (
(123,-3,l),
(692,733,l),
(636,733,l),
(67,-3,l)
);
},
{
alignment = -1;
ref = O;
}
);
width = 753;
},
{
associatedMasterId = "79167EE4-8C29-4BCE-A9E7-C1CFC4557E33";
layerId = "4FA0E06D-1660-4197-8A26-20CE9FDDE5D8";
name = "8 août 24 à 20:56";
shapes = (
{
closed = 1;
nodes = (
(696,717,l),
(672,738,l),
(57,13,l),
(81,-8,l)
);
},
{
alignment = -1;
ref = O;
}
);
width = 753;
},
{
associatedMasterId = "79167EE4-8C29-4BCE-A9E7-C1CFC4557E33";
layerId = "C65F7C35-1A7A-4823-A2DB-C300CF477291";
name = "8 août 24 à 21:00";
shapes = (
{
closed = 1;
nodes = (
(709,704,l),
(672,738,l),
(44,26,l),
(81,-8,l)
);
},
{
alignment = -1;
ref = O;
}
);
width = 753;
},
{
associatedMasterId = "79167EE4-8C29-4BCE-A9E7-C1CFC4557E33";
layerId = "5EEC0C23-AF6A-42D6-8E1F-3FECA99A1C83";
name = "28 août 24 à 12:49";
shapes = (
{
closed = 1;
nodes = (
(705,706,l),
(672,738,l),
(48,24,l),
(81,-8,l)
);
},
{
alignment = -1;
ref = O;
}
);
width = 753;
},
{
associatedMasterId = "41EDA971-A137-4972-81AF-7929AB7CAABF";
layerId = "A12A90A3-257C-4769-8EB6-FE35A55F4C4C";
name = "28 août 24 à 14:28";
shapes = (
{
closed = 1;
nodes = (
(139,-17,l),
(640,747,l),
(529,747,l),
(28,-17,l)
);
},
{
alignment = -1;
ref = O;
}
);
width = 680;
}
);
metricLeft = "=O@365";
metricRight = "=O@365";
unicode = 216;
},
{
glyphname = OE;
lastChange = "2024-08-28 13:41:00 +0000";
layers = (
{
background = {
shapes = (
{
closed = 1;
nodes = (
(376,730,l),
(183,730,o),
(56,595,o),
(56,365,cs),
(56,135,o),
(183,0,o),
(376,0,c),
(376,54,l),
(195,54,o),
(88,175,o),
(88,365,cs),
(88,554,o),
(195,672,o),
(376,672,c)
);
}
);
};
layerId = "79167EE4-8C29-4BCE-A9E7-C1CFC4557E33";
name = Light;
shapes = (
{
closed = 1;
nodes = (
(541,0,l),
(541,54,l),
(409,54,ls),
(204,54,o),
(88,159,o),
(88,363,cs),
(88,577,o),
(207,672,o),
(411,672,cs),
(541,672,l),
(541,730,l),
(406,730,ls),
(181,730,o),
(56,601,o),
(56,365,cs),
(56,139,o),
(171,0,o),
(406,0,cs)
);
},
{
alignment = -1;
pos = (421,0);
ref = E;
}
);
width = 1022;
},
{
background = {
anchors = (
{
name = top;
pos = (336,730);
}
);
shapes = (
{
closed = 1;
nodes = (
(486,218,l),
(274,218,ls),
(157,218,o),
(111,260,o),
(111,332,cs),
(111,404,o),
(157,440,o),
(275,440,cs),
(474,440,l),
(474,730,l),
(337,730,ls),
(163,730,o),
(28,631,o),
(28,365,cs),
(28,100,o),
(163,0,o),
(337,0,cs),
(486,0,l)
);
}
);
};
layerId = "41EDA971-A137-4972-81AF-7929AB7CAABF";
name = Light;
shapes = (
{
closed = 1;
nodes = (
(486,0,l),
(486,208,l),
(274,208,ls),
(157,208,o),
(111,254,o),
(111,332,cs),
(111,411,o),
(157,450,o),
(275,450,cs),
(474,450,l),
(474,730,l),
(337,730,ls),
(163,730,o),
(28,631,o),
(28,365,cs),
(28,100,o),
(163,0,o),
(337,0,cs)
);
},
{
alignment = -1;
pos = (357,0);
ref = E;
}
);
width = 955;
},
{
associatedMasterId = "79167EE4-8C29-4BCE-A9E7-C1CFC4557E33";
layerId = "4D59C4D2-1C17-4930-A908-1C656FC97720";
name = "24 juin 24 à 14:54";
shapes = (
{
closed = 1;
nodes = (
(566,0,l),
(566,54,l),
(447,54,ls),
(210,54,o),
(104,147,o),
(104,364,cs),
(104,573,o),
(205,681,o),
(440,681,cs),
(582,681,l),
(582,730,l),
(417,730,ls),
(152,730,o),
(57,604,o),
(57,365,cs),
(57,136,o),
(179,0,o),
(417,0,cs)
);
},
{
alignment = -1;
pos = (428,0);
ref = E;
}
);
width = 1029;
},
{
associatedMasterId = "79167EE4-8C29-4BCE-A9E7-C1CFC4557E33";
background = {
shapes = (
{
closed = 1;
nodes = (
(377,730,l),
(184,730,o),
(57,595,o),
(57,365,cs),
(57,135,o),
(184,0,o),
(377,0,c),
(377,54,l),
(196,54,o),
(89,175,o),
(89,365,cs),
(89,554,o),
(196,672,o),
(377,672,c)
);
}
);
};
layerId = "3AF0C441-AB12-4B95-8A16-1FDE5CC57C24";
name = "28 juin 24 à 13:09";
shapes = (
{
closed = 1;
nodes = (
(542,0,l),
(542,54,l),
(434,54,ls),
(186,54,o),
(89,159,o),
(89,363,cs),
(89,577,o),
(185,672,o),
(434,672,cs),
(542,672,l),
(542,730,l),
(407,730,ls),
(154,730,o),
(57,601,o),
(57,365,cs),
(57,139,o),
(172,0,o),
(407,0,cs)
);
},
{
alignment = -1;
pos = (422,0);
ref = E;
}
);
width = 1023;
}
);
metricLeft = "=O";
metricRight = "=E";
unicode = 338;
},
{
glyphname = P;
lastChange = "2024-06-26 13:57:38 +0000";
layers = (
{
background = {
shapes = (
{
closed = 1;
nodes = (
(368,283,ls),
(551,283,o),
(612,405,o),
(612,506,cs),
(612,651,o),
(541,730,o),
(370,730,cs),
(118,730,l),
(118,672,l),
(372,672,ls),
(522,672,o),
(579,605,o),
(579,503,cs),
(579,402,o),
(511,337,o),
(360,337,cs),
(124,337,l),
(124,283,l)
);
},
{
closed = 1;
nodes = (
(135,0,l),
(135,730,l),
(103,730,l),
(103,0,l)
);
}
);
};
layerId = "79167EE4-8C29-4BCE-A9E7-C1CFC4557E33";
shapes = (
{
closed = 1;
nodes = (
(368,283,ls),
(519,283,o),
(612,373,o),
(612,506,cs),
(612,651,o),
(541,730,o),
(370,730,cs),
(118,730,l),
(118,672,l),
(372,672,ls),
(522,672,o),
(579,605,o),
(579,503,cs),
(579,402,o),
(511,337,o),
(360,337,cs),
(124,337,l),
(124,283,l)
);
},
{
closed = 1;
nodes = (
(135,0,l),
(135,730,l),
(103,730,l),
(103,0,l)
);
}
);
width = 641;
},
{
layerId = "41EDA971-A137-4972-81AF-7929AB7CAABF";
shapes = (
{
closed = 1;
nodes = (
(339,132,ls),
(522,132,o),
(620,205,o),
(620,424,cs),
(620,666,o),
(518,730,o),
(349,730,cs),
(124,730,l),
(124,435,l),
(480,435,ls),
(518,435,o),
(538,421,o),
(538,396,cs),
(538,367,o),
(523,352,o),
(480,352,cs),
(139,352,l),
(139,132,l)
);
},
{
closed = 1;
nodes = (
(166,0,l),
(166,730,l),
(70,730,l),
(70,0,l)
);
}
);
width = 636;
},
{
associatedMasterId = "79167EE4-8C29-4BCE-A9E7-C1CFC4557E33";
background = {
shapes = (
{
closed = 1;
nodes = (
(357,-121,ls),
(536,-121,o),
(626,-40,o),
(626,107,cs),
(626,204,o),
(592,271,o),
(482,307,c),
(575,342,o),
(612,437,o),
(612,514,cs),
(612,653,o),
(539,730,o),
(370,730,cs),
(103,730,l),
(103,-121,l)
);
},
{
closed = 1;
nodes = (
(135,668,l),
(372,668,ls),
(522,668,o),
(579,603,o),
(579,503,cs),
(579,402,o),
(511,337,o),
(360,337,cs),
(135,337,l)
);
}
);
};
layerId = "6E916132-E227-4349-B509-C043D7B02815";
name = "24 juin 24 à 12:08";
shapes = (
{
closed = 1;
nodes = (
(368,283,ls),
(551,283,o),
(612,418,o),
(612,514,cs),
(612,635,o),
(549,730,o),
(358,730,cs),
(118,730,l),
(118,668,l),
(339,668,ls),
(515,668,o),
(579,608,o),
(579,516,cs),
(579,401,o),
(511,337,o),
(346,337,cs),
(124,337,l),
(124,283,l)
);
},
{
closed = 1;
nodes = (
(135,0,l),
(135,730,l),
(103,730,l),
(103,0,l)
);
}
);
width = 641;
},
{
associatedMasterId = "79167EE4-8C29-4BCE-A9E7-C1CFC4557E33";
background = {
shapes = (
{
closed = 0;
nodes = (
(369,283,ls),
(545,283,o),
(612,387,o),
(612,507,cs),
(612,626,o),
(545,730,o),
(369,730,cs)
);
},
{
closed = 0;
nodes = (
(369,283,ls),
(545,283,o),
(612,387,o),
(612,507,cs),
(612,626,o),
(545,730,o),
(369,730,cs)
);
}
);
};
layerId = "B7CB63EE-34FD-469B-9B38-88506EB15D26";
name = "24 juin 24 à 15:34";
shapes = (
{
closed = 1;
nodes = (
(368,283,ls),
(551,283,o),
(612,414,o),
(612,514,cs),
(612,653,o),
(539,730,o),
(370,730,cs),
(118,730,l),
(118,672,l),
(372,672,ls),
(522,672,o),
(579,605,o),
(579,503,cs),
(579,402,o),
(511,337,o),
(360,337,cs),
(124,337,l),
(124,283,l)
);
},
{
closed = 1;
nodes = (
(135,0,l),
(135,730,l),
(103,730,l),
(103,0,l)
);
}
);
width = 641;
}
);
metricLeft = "=H";
unicode = 80;
},
{
glyphname = Thorn;
lastChange = "2024-06-27 14:54:54 +0000";
layers = (
{
layerId = "79167EE4-8C29-4BCE-A9E7-C1CFC4557E33";
shapes = (
{
closed = 1;
nodes = (
(368,142,ls),
(519,142,o),
(612,232,o),
(612,365,cs),
(612,510,o),
(541,589,o),
(370,589,cs),
(121,589,l),
(121,531,l),
(372,531,ls),
(522,531,o),
(579,464,o),
(579,362,cs),
(579,261,o),
(511,196,o),
(360,196,cs),
(121,196,l),
(121,142,l)
);
},
{
closed = 1;
nodes = (
(135,0,l),
(135,730,l),
(103,730,l),
(103,0,l)
);
}
);
width = 641;
},
{
layerId = "41EDA971-A137-4972-81AF-7929AB7CAABF";
shapes = (
{
closed = 1;
nodes = (
(338,66,ls),
(521,66,o),
(619,140,o),
(619,357,cs),
(619,599,o),
(517,664,o),
(348,664,cs),
(124,664,l),
(124,369,l),
(480,369,ls),
(519,369,o),
(539,358,o),
(541,335,cs),
(544,302,o),
(524,285,o),
(480,285,cs),
(138,285,l),
(138,66,l)
);
},
{
closed = 1;
nodes = (
(166,0,l),
(166,730,l),
(70,730,l),
(70,0,l)
);
}
);
width = 635;
},
{
associatedMasterId = "79167EE4-8C29-4BCE-A9E7-C1CFC4557E33";
layerId = "602134B5-7BB6-4ED4-ACCD-B2E1E1C5C0B7";
name = "27 juin 24 à 16:54";
shapes = (
{
closed = 1;
nodes = (
(375,144,ls),
(566,144,o),
(627,282,o),
(627,379,cs),
(627,497,o),
(564,592,o),
(365,592,cs),
(118,592,l),
(118,549,l),
(345,549,ls),
(516,549,o),
(580,484,o),
(580,383,cs),
(580,268,o),
(512,205,o),
(354,205,cs),
(135,205,l),
(135,144,l)
);
},
{
closed = 1;
nodes = (
(145,0,l),
(145,730,l),
(103,730,l),
(103,0,l)
);
}
);
width = 656;
}
);
metricLeft = "=P";
metricRight = "=P";
unicode = 222;
},
{
glyphname = Q;
lastChange = "2024-08-28 15:28:30 +0000";
layers = (
{
layerId = "79167EE4-8C29-4BCE-A9E7-C1CFC4557E33";
shapes = (
{
closed = 1;
nodes = (
(634,-47,l),
(398,277,l),
(361,250,l),
(597,-74,l)
);
},
{
alignment = -1;
ref = O;
}
);
width = 739;
},
{
layerId = "41EDA971-A137-4972-81AF-7929AB7CAABF";
shapes = (
{
closed = 1;
nodes = (
(652,-10,l),
(396,351,l),
(288,276,l),
(544,-86,l)
);
},
{
alignment = -1;
ref = O;
}
);
width = 698;
},
{
associatedMasterId = "79167EE4-8C29-4BCE-A9E7-C1CFC4557E33";
layerId = "BDD6185A-CB76-44BB-961D-59CD8E1830B7";
name = "28 août 24 à 17:26";
shapes = (
{
closed = 1;
nodes = (
(647,-75,l),
(401,263,l),
(361,263,l),
(607,-75,l)
);
},
{
alignment = -1;
ref = O;
}
);
width = 739;
},
{
associatedMasterId = "41EDA971-A137-4972-81AF-7929AB7CAABF";
layerId = "169B63E8-823D-45DA-BB76-1E4C69659A9F";
name = "28 août 24 à 17:26";
shapes = (
{
closed = 1;
nodes = (
(661,-86,l),
(410,326,l),
(298,326,l),
(549,-86,l)
);
},
{
alignment = -1;
ref = O;
}
);
visible = 1;
width = 698;
}
);
metricLeft = "=O@365";
metricRight = "=O@365";
unicode = 81;
},
{
glyphname = R;
lastChange = "2024-06-26 14:12:45 +0000";
layers = (
{
anchors = (
{
name = bottom;
pos = (349,0);
},
{
name = top;
pos = (332,730);
}
);
background = {
shapes = (
{
closed = 1;
nodes = (
(647,-8,o),
(673,10,o),
(685,36,c),
(671,68,l),
(662,58,o),
(639,50,o),
(623,50,cs),
(576,50,o),
(555,74,o),
(534,177,cs),
(512,286,o),
(494,324,o),
(424,334,c),
(434,316,l),
(548,337,o),
(607,411,o),
(607,517,cs),
(607,651,o),
(543,730,o),
(366,730,cs),
(103,730,l),
(103,0,l),
(135,0,l),
(135,668,l),
(369,668,ls),
(518,668,o),
(575,605,o),
(575,508,cs),
(575,411,o),
(507,348,o),
(358,348,cs),
(125,348,l),
(125,298,l),
(383,298,ls),
(452,298,o),
(482,282,o),
(502,173,cs),
(530,24,o),
(557,-8,o),
(614,-8,cs)
);
}
);
};
layerId = "79167EE4-8C29-4BCE-A9E7-C1CFC4557E33";
shapes = (
{
closed = 1;
nodes = (
(647,-8,o),
(673,10,o),
(685,36,c),
(671,68,l),
(662,58,o),
(639,50,o),
(623,50,cs),
(576,50,o),
(555,74,o),
(534,177,cs),
(512,286,o),
(494,324,o),
(424,334,c),
(434,316,l),
(548,337,o),
(607,411,o),
(607,517,cs),
(607,651,o),
(543,730,o),
(366,730,cs),
(103,730,l),
(103,0,l),
(135,0,l),
(135,672,l),
(369,672,ls),
(518,672,o),
(575,610,o),
(575,515,cs),
(575,414,o),
(507,348,o),
(358,348,cs),
(125,348,l),
(125,298,l),
(383,298,ls),
(452,298,o),
(482,282,o),
(502,173,cs),
(530,24,o),
(557,-8,o),
(614,-8,cs)
);
}
);
width = 697;
},
{
anchors = (
{
name = bottom;
pos = (344,0);
},
{
name = top;
pos = (337,730);
}
);
layerId = "41EDA971-A137-4972-81AF-7929AB7CAABF";
shapes = (
{
closed = 1;
nodes = (
(637,-16,o),
(671,15,o),
(687,57,c),
(638,208,l),
(623,199,o),
(605,192,o),
(584,192,cs),
(551,192,o),
(541,203,o),
(530,239,cs),
(515,287,o),
(488,295,o),
(422,295,c),
(427,285,l),
(567,270,o),
(627,354,o),
(627,506,cs),
(627,653,o),
(557,730,o),
(401,730,cs),
(70,730,l),
(70,0,l),
(166,0,l),
(166,450,l),
(458,450,ls),
(492,450,o),
(511,437,o),
(511,411,cs),
(511,382,o),
(498,367,o),
(459,367,cs),
(152,367,l),
(150,209,l),
(368,209,ls),
(425,209,o),
(442,198,o),
(450,133,cs),
(464,20,o),
(501,-16,o),
(581,-16,cs)
);
}
);
width = 689;
},
{
anchors = (
{
name = bottom;
pos = (345,0);
},
{
name = top;
pos = (330,730);
}
);
associatedMasterId = "79167EE4-8C29-4BCE-A9E7-C1CFC4557E33";
layerId = "EA8795F4-8AC2-4EF3-9638-54CF5AF0DDFC";
name = "9 avr. 24 à 14:21";
shapes = (
{
closed = 1;
nodes = (
(631,-8,o),
(654,13,o),
(666,42,c),
(652,74,l),
(643,62,o),
(624,53,o),
(604,53,cs),
(482,53,o),
(569,319,o),
(418,345,c),
(424,318,l),
(549,352,o),
(594,434,o),
(594,530,cs),
(594,658,o),
(535,730,o),
(326,730,cs),
(107,730,l),
(107,0,l),
(140,0,l),
(140,677,l),
(347,677,ls),
(510,677,o),
(562,618,o),
(562,532,cs),
(562,411,o),
(497,347,o),
(337,347,cs),
(131,347,l),
(131,299,l),
(379,299,ls),
(553,299,o),
(442,-8,o),
(599,-8,cs)
);
}
);
width = 692;
},
{
anchors = (
{
name = bottom;
pos = (343,0);
},
{
name = top;
pos = (327,730);
}
);
associatedMasterId = "79167EE4-8C29-4BCE-A9E7-C1CFC4557E33";
layerId = "BAB6DC4E-E921-46A1-9211-43B75FC48155";
name = "24 juin 24 à 12:01";
shapes = (
{
closed = 1;
nodes = (
(633,-8,o),
(658,10,o),
(670,36,c),
(656,68,l),
(646,57,o),
(624,50,o),
(610,50,cs),
(567,50,o),
(545,69,o),
(524,177,cs),
(503,285,o),
(485,324,o),
(416,334,c),
(426,320,l),
(537,340,o),
(594,413,o),
(594,517,cs),
(594,651,o),
(528,730,o),
(333,730,cs),
(103,730,l),
(103,0,l),
(135,0,l),
(135,672,l),
(329,672,ls),
(493,672,o),
(562,620,o),
(562,510,cs),
(562,413,o),
(491,348,o),
(329,348,cs),
(126,348,l),
(126,298,l),
(376,298,ls),
(443,298,o),
(469,281,o),
(489,173,cs),
(516,24,o),
(543,-8,o),
(601,-8,cs)
);
}
);
width = 688;
},
{
anchors = (
{
name = bottom;
pos = (343,0);
},
{
name = top;
pos = (327,730);
}
);
associatedMasterId = "79167EE4-8C29-4BCE-A9E7-C1CFC4557E33";
background = {
shapes = (
{
closed = 1;
nodes = (
(354,672,ls),
(489,672,o),
(562,613,o),
(562,510,cs),
(562,408,o),
(489,348,o),
(354,348,cs),
(135,348,l),
(135,672,l)
);
},
{
closed = 1;
nodes = (
(354,672,ls),
(489,672,o),
(562,613,o),
(562,510,cs),
(562,408,o),
(489,348,o),
(354,348,cs),
(135,348,l),
(135,672,l)
);
},
{
closed = 1;
nodes = (
(135,672,l),
(354,672,ls),
(489,672,o),
(562,613,o),
(562,510,cs),
(562,408,o),
(489,348,o),
(354,348,cs),
(135,348,l)
);
}
);
};
layerId = "47AEB12A-F44C-484C-AFFF-6BA39C5ADD29";
name = "24 juin 24 à 12:02";
shapes = (
{
closed = 1;
nodes = (
(633,-8,o),
(658,10,o),
(670,36,c),
(656,68,l),
(646,57,o),
(624,50,o),
(610,50,cs),
(567,50,o),
(545,69,o),
(524,177,cs),
(503,285,o),
(485,324,o),
(416,334,c),
(426,320,l),
(537,340,o),
(594,413,o),
(594,517,cs),
(594,651,o),
(528,730,o),
(333,730,cs),
(103,730,l),
(103,0,l),
(135,0,l),
(135,672,l),
(329,672,ls),
(493,672,o),
(562,620,o),
(562,510,cs),
(562,413,o),
(491,348,o),
(329,348,cs),
(126,348,l),
(126,298,l),
(376,298,ls),
(443,298,o),
(469,281,o),
(489,173,cs),
(516,24,o),
(543,-8,o),
(601,-8,cs)
);
}
);
width = 688;
},
{
anchors = (
{
name = bottom;
pos = (343,0);
},
{
name = top;
pos = (327,730);
}
);
associatedMasterId = "79167EE4-8C29-4BCE-A9E7-C1CFC4557E33";
layerId = "E9DC31E0-3A90-492F-88F9-01CF736A215F";
name = "24 juin 24 à 13:41";
shapes = (
{
closed = 1;
nodes = (
(633,-8,o),
(658,10,o),
(670,36,c),
(656,68,l),
(646,57,o),
(624,50,o),
(610,50,cs),
(567,50,o),
(545,69,o),
(524,177,cs),
(503,285,o),
(485,324,o),
(416,334,c),
(426,316,l),
(537,337,o),
(594,411,o),
(594,517,cs),
(594,651,o),
(532,730,o),
(360,730,cs),
(103,730,l),
(103,0,l),
(135,0,l),
(135,668,l),
(363,668,ls),
(507,668,o),
(562,605,o),
(562,508,cs),
(562,411,o),
(496,348,o),
(352,348,cs),
(126,348,l),
(126,298,l),
(376,298,ls),
(443,298,o),
(469,281,o),
(489,173,cs),
(516,24,o),
(543,-8,o),
(601,-8,cs)
);
}
);
width = 688;
},
{
anchors = (
{
name = bottom;
pos = (343,0);
},
{
name = top;
pos = (327,730);
}
);
associatedMasterId = "79167EE4-8C29-4BCE-A9E7-C1CFC4557E33";
background = {
shapes = (
{
closed = 1;
nodes = (
(633,-8,o),
(658,10,o),
(670,36,c),
(656,68,l),
(646,57,o),
(624,50,o),
(610,50,cs),
(567,50,o),
(545,69,o),
(524,177,cs),
(503,285,o),
(485,324,o),
(416,334,c),
(426,316,l),
(537,337,o),
(594,411,o),
(594,517,cs),
(594,651,o),
(532,730,o),
(360,730,cs),
(103,730,l),
(103,0,l),
(135,0,l),
(135,668,l),
(363,668,ls),
(507,668,o),
(562,605,o),
(562,508,cs),
(562,411,o),
(496,348,o),
(352,348,cs),
(126,348,l),
(126,298,l),
(376,298,ls),
(443,298,o),
(469,281,o),
(489,173,cs),
(516,24,o),
(543,-8,o),
(601,-8,cs)
);
}
);
};
layerId = "DB77C72E-22FC-473E-B67E-FFF20635D1B5";
name = "24 juin 24 à 13:48";
shapes = (
{
closed = 1;
nodes = (
(633,-8,o),
(658,10,o),
(670,36,c),
(656,68,l),
(646,57,o),
(624,50,o),
(610,50,cs),
(567,50,o),
(544,69,o),
(523,178,cs),
(502,285,o),
(484,324,o),
(416,334,c),
(426,316,l),
(537,337,o),
(594,411,o),
(594,517,cs),
(594,651,o),
(532,730,o),
(360,730,cs),
(103,730,l),
(103,0,l),
(135,0,l),
(135,668,l),
(363,668,ls),
(507,668,o),
(562,605,o),
(562,508,cs),
(562,411,o),
(496,348,o),
(352,348,cs),
(126,348,l),
(126,298,l),
(376,298,ls),
(444,298,o),
(471,281,o),
(491,173,cs),
(518,24,o),
(544,-8,o),
(601,-8,cs)
);
}
);
width = 688;
},
{
anchors = (
{
name = bottom;
pos = (354,0);
},
{
name = top;
pos = (347,730);
}
);
associatedMasterId = "41EDA971-A137-4972-81AF-7929AB7CAABF";
layerId = "E906C6EF-8752-47E2-952A-1FD77E3D6C1E";
name = "25 juin 24 à 13:55";
shapes = (
{
closed = 1;
nodes = (
(651,-16,o),
(689,15,o),
(707,58,c),
(658,209,l),
(642,200,o),
(622,192,o),
(599,192,cs),
(565,192,o),
(543,201,o),
(536,242,cs),
(523,314,o),
(498,332,o),
(432,332,c),
(437,323,l),
(577,310,o),
(637,387,o),
(637,526,cs),
(637,658,o),
(567,730,o),
(411,730,cs),
(80,730,l),
(80,0,l),
(176,0,l),
(176,450,l),
(479,450,ls),
(508,450,o),
(521,439,o),
(521,418,cs),
(521,397,o),
(506,386,o),
(479,386,cs),
(162,386,l),
(162,208,l),
(397,208,ls),
(435,208,o),
(447,196,o),
(456,146,cs),
(478,18,o),
(516,-16,o),
(588,-16,cs)
);
}
);
width = 719;
},
{
anchors = (
{
name = bottom;
pos = (344,0);
},
{
name = top;
pos = (337,730);
}
);
associatedMasterId = "41EDA971-A137-4972-81AF-7929AB7CAABF";
background = {
shapes = (
{
closed = 1;
nodes = (
(641,-16,o),
(679,15,o),
(697,58,c),
(648,209,l),
(632,200,o),
(612,192,o),
(589,192,cs),
(555,192,o),
(533,201,o),
(526,242,cs),
(514,306,o),
(488,322,o),
(422,322,c),
(427,313,l),
(567,299,o),
(627,380,o),
(627,526,cs),
(627,658,o),
(557,730,o),
(401,730,cs),
(70,730,l),
(70,0,l),
(166,0,l),
(166,450,l),
(469,450,ls),
(498,450,o),
(511,439,o),
(511,418,cs),
(511,397,o),
(496,386,o),
(469,386,cs),
(152,386,l),
(150,228,l),
(365,228,ls),
(421,228,o),
(438,216,o),
(448,156,cs),
(471,20,o),
(507,-16,o),
(578,-16,cs)
);
}
);
};
layerId = "498F9808-D012-4CDE-A26C-892C0329EFFB";
name = "26 juin 24 à 15:55";
shapes = (
{
closed = 1;
nodes = (
(637,-16,o),
(671,15,o),
(687,57,c),
(638,208,l),
(623,199,o),
(605,192,o),
(584,192,cs),
(553,192,o),
(535,201,o),
(524,252,cs),
(512,306,o),
(488,322,o),
(422,322,c),
(427,313,l),
(567,299,o),
(627,380,o),
(627,526,cs),
(627,658,o),
(557,730,o),
(401,730,cs),
(70,730,l),
(70,0,l),
(166,0,l),
(166,450,l),
(469,450,ls),
(498,450,o),
(511,439,o),
(511,418,cs),
(511,397,o),
(496,386,o),
(469,386,cs),
(152,386,l),
(150,228,l),
(365,228,ls),
(421,228,o),
(440,216,o),
(449,146,cs),
(465,20,o),
(501,-16,o),
(581,-16,cs)
);
}
);
width = 699;
},
{
anchors = (
{
name = bottom;
pos = (344,0);
},
{
name = top;
pos = (337,730);
}
);
associatedMasterId = "41EDA971-A137-4972-81AF-7929AB7CAABF";
background = {
shapes = (
{
closed = 1;
nodes = (
(166,449,l),
(459,449,ls),
(493,449,o),
(511,435,o),
(511,410,cs),
(511,381,o),
(498,366,o),
(459,366,cs),
(166,366,l)
);
}
);
};
layerId = "69E3DDC2-B0E2-4918-B381-3A32BB842B4B";
name = "26 juin 24 à 16:11";
shapes = (
{
closed = 1;
nodes = (
(637,-16,o),
(671,15,o),
(687,57,c),
(638,208,l),
(623,199,o),
(605,192,o),
(584,192,cs),
(551,192,o),
(541,203,o),
(530,239,cs),
(515,287,o),
(488,295,o),
(422,295,c),
(427,285,l),
(567,270,o),
(627,354,o),
(627,506,cs),
(627,653,o),
(557,730,o),
(401,730,cs),
(70,730,l),
(70,0,l),
(166,0,l),
(166,450,l),
(469,450,ls),
(498,450,o),
(511,439,o),
(511,418,cs),
(511,397,o),
(496,386,o),
(469,386,cs),
(152,386,l),
(150,228,l),
(368,228,ls),
(425,228,o),
(440,216,o),
(449,146,cs),
(465,20,o),
(501,-16,o),
(581,-16,cs)
);
}
);
width = 689;
}
);
metricLeft = "=H";
unicode = 82;
},
{
glyphname = S;
lastChange = "2024-06-28 11:10:14 +0000";
layers = (
{
anchors = (
{
name = bottom;
pos = (319,0);
},
{
name = top;
pos = (327,730);
}
);
layerId = "79167EE4-8C29-4BCE-A9E7-C1CFC4557E33";
shapes = (
{
closed = 1;
nodes = (
(472,-8,o),
(569,73,o),
(569,202,cs),
(569,313,o),
(513,364,o),
(319,387,cs),
(153,407,o),
(111,447,o),
(111,531,cs),
(111,609,o),
(166,675,o),
(315,678,cs),
(414,680,o),
(495,640,o),
(541,582,c),
(557,627,l),
(525,683,o),
(443,738,o),
(324,738,cs),
(176,738,o),
(68,657,o),
(68,529,cs),
(68,418,o),
(135,370,o),
(308,351,cs),
(477,332,o),
(527,291,o),
(527,208,cs),
(527,115,o),
(464,48,o),
(310,48,cs),
(214,48,o),
(121,87,o),
(74,146,c),
(59,105,l),
(96,42,o),
(183,-8,o),
(316,-8,cs)
);
}
);
width = 621;
},
{
anchors = (
{
name = bottom;
pos = (326,0);
},
{
name = top;
pos = (307,730);
}
);
background = {
shapes = (
{
closed = 1;
nodes = (
(504,-16,o),
(599,52,o),
(599,204,cs),
(599,336,o),
(507,374,o),
(347,380,cs),
(204,384,o),
(175,392,o),
(175,422,cs),
(175,449,o),
(207,466,o),
(319,466,cs),
(421,466,o),
(494,447,o),
(540,408,c),
(590,615,l),
(545,694,o),
(465,746,o),
(333,746,cs),
(152,746,o),
(40,660,o),
(40,498,cs),
(40,337,o),
(127,291,o),
(289,286,cs),
(425,281,o),
(452,271,o),
(452,240,cs),
(452,213,o),
(434,192,o),
(326,192,cs),
(200,192,o),
(124,220,o),
(63,276,c),
(8,114,l),
(55,35,o),
(155,-16,o),
(305,-16,cs)
);
}
);
};
layerId = "41EDA971-A137-4972-81AF-7929AB7CAABF";
shapes = (
{
closed = 1;
nodes = (
(506,-16,o),
(601,52,o),
(601,204,cs),
(601,336,o),
(509,374,o),
(349,380,cs),
(206,384,o),
(177,392,o),
(177,422,cs),
(177,449,o),
(209,466,o),
(321,466,cs),
(423,466,o),
(496,447,o),
(542,408,c),
(592,615,l),
(547,694,o),
(467,746,o),
(335,746,cs),
(154,746,o),
(42,660,o),
(42,498,cs),
(42,337,o),
(129,291,o),
(291,286,cs),
(427,281,o),
(454,271,o),
(454,240,cs),
(454,213,o),
(436,192,o),
(328,192,cs),
(205,192,o),
(131,218,o),
(71,270,c),
(16,108,l),
(62,33,o),
(160,-16,o),
(307,-16,cs)
);
}
);
width = 613;
},
{
anchors = (
{
name = bottom;
pos = (367,0);
},
{
name = top;
pos = (348,730);
}
);
associatedMasterId = "41EDA971-A137-4972-81AF-7929AB7CAABF";
layerId = "FCE51720-F812-4DBA-8B55-36100D78562B";
name = "9 avr. 24 à 11:38";
shapes = (
{
closed = 1;
nodes = (
(543,-17,o),
(644,43,o),
(645,206,cs),
(646,457,o),
(202,348,o),
(202,413,cs),
(202,428,o),
(237,434,o),
(344,434,cs),
(462,434,o),
(537,406,o),
(570,371,c),
(633,605,l),
(590,700,o),
(515,747,o),
(364,747,cs),
(176,747,o),
(73,650,o),
(73,485,cs),
(73,201,o),
(505,339,o),
(505,259,cs),
(505,240,o),
(484,225,o),
(379,225,cs),
(226,225,o),
(132,268,o),
(103,310,c),
(46,130,l),
(89,38,o),
(168,-17,o),
(356,-17,cs)
);
}
);
width = 672;
},
{
anchors = (
{
name = bottom;
pos = (367,0);
},
{
name = top;
pos = (348,730);
}
);
associatedMasterId = "41EDA971-A137-4972-81AF-7929AB7CAABF";
background = {
anchors = (
{
name = bottom;
pos = (361.866,4);
},
{
name = top;
pos = (363.146,724.693);
}
);
shapes = (
{
pos = (30,0);
ref = O;
},
{
closed = 1;
nodes = (
(514,-8,o),
(606,74,o),
(605,197,cs),
(601,482,o),
(152,291,o),
(152,539,cs),
(152,612,o),
(219,678,o),
(367,678,cs),
(458,678,o),
(528,641,o),
(573,594,c),
(578,641,l),
(534,708,o),
(453,738,o),
(371,738,cs),
(213,738,o),
(116,659,o),
(116,539,cs),
(116,248,o),
(571,436,o),
(571,199,cs),
(571,110,o),
(491,48,o),
(342,48,cs),
(250,48,o),
(167,80,o),
(119,143,c),
(101,101,l),
(144,37,o),
(236,-8,o),
(348,-8,cs)
);
}
);
};
layerId = "9E8E2190-0C38-4060-BA5F-07591E8753B4";
name = "9 avr. 24 à 11:40";
shapes = (
{
closed = 1;
nodes = (
(546,-16,o),
(642,50,o),
(642,205,cs),
(642,334,o),
(553,373,o),
(387,377,cs),
(241,380,o),
(221,388,o),
(221,409,cs),
(221,430,o),
(243,442,o),
(374,442,cs),
(475,442,o),
(533,425,o),
(580,388,c),
(634,607,l),
(590,690,o),
(508,746,o),
(372,746,cs),
(188,746,o),
(75,659,o),
(75,493,cs),
(75,336,o),
(158,289,o),
(324,286,cs),
(464,282,o),
(482,273,o),
(482,250,cs),
(482,229,o),
(460,211,o),
(356,211,cs),
(227,211,o),
(162,238,o),
(100,291,c),
(41,115,l),
(88,35,o),
(189,-16,o),
(344,-16,cs)
);
}
);
width = 672;
},
{
anchors = (
{
name = bottom;
pos = (367,0);
},
{
name = top;
pos = (348,730);
}
);
associatedMasterId = "41EDA971-A137-4972-81AF-7929AB7CAABF";
background = {
anchors = (
{
name = bottom;
pos = (361.866,4);
},
{
name = top;
pos = (363.146,724.693);
}
);
shapes = (
{
closed = 1;
nodes = (
(514,-8,o),
(606,74,o),
(605,197,cs),
(601,482,o),
(152,291,o),
(152,539,cs),
(152,612,o),
(219,678,o),
(367,678,cs),
(458,678,o),
(528,641,o),
(573,594,c),
(578,641,l),
(534,708,o),
(453,738,o),
(371,738,cs),
(213,738,o),
(116,659,o),
(116,539,cs),
(116,248,o),
(571,436,o),
(571,199,cs),
(571,110,o),
(491,48,o),
(342,48,cs),
(250,48,o),
(167,80,o),
(119,143,c),
(101,101,l),
(144,37,o),
(236,-8,o),
(348,-8,cs)
);
}
);
};
layerId = "656180A2-5446-49BE-85D3-91B28EFBBA93";
name = "9 avr. 24 à 11:40";
shapes = (
{
ref = O;
}
);
width = 698;
},
{
anchors = (
{
name = bottom;
pos = (367,0);
},
{
name = top;
pos = (348,730);
}
);
associatedMasterId = "41EDA971-A137-4972-81AF-7929AB7CAABF";
background = {
shapes = (
{
closed = 1;
nodes = (
(543,-15,o),
(638,52,o),
(638,204,cs),
(638,335,o),
(546,372,o),
(386,378,cs),
(243,382,o),
(214,391,o),
(214,422,cs),
(214,448,o),
(241,465,o),
(373,465,cs),
(473,465,o),
(533,446,o),
(579,409,c),
(628,610,l),
(584,692,o),
(503,745,o),
(372,745,cs),
(191,745,o),
(79,659,o),
(79,498,cs),
(79,341,o),
(166,297,o),
(328,292,cs),
(464,287,o),
(491,277,o),
(491,244,cs),
(491,216,o),
(463,193,o),
(355,193,cs),
(229,193,o),
(163,221,o),
(102,276,c),
(47,114,l),
(94,35,o),
(194,-15,o),
(344,-15,cs)
);
}
);
};
layerId = "0F1331AE-12A3-41BF-A346-15C1F27D62FE";
name = "9 avr. 24 à 12:31";
shapes = (
{
closed = 1;
nodes = (
(543,-15,o),
(638,52,o),
(638,204,cs),
(638,335,o),
(546,372,o),
(386,378,cs),
(243,382,o),
(214,391,o),
(214,422,cs),
(214,448,o),
(246,465,o),
(358,465,cs),
(458,465,o),
(533,446,o),
(579,409,c),
(628,610,l),
(584,692,o),
(503,745,o),
(372,745,cs),
(191,745,o),
(79,659,o),
(79,498,cs),
(79,341,o),
(166,297,o),
(328,292,cs),
(464,287,o),
(491,277,o),
(491,244,cs),
(491,216,o),
(473,193,o),
(365,193,cs),
(239,193,o),
(163,221,o),
(102,276,c),
(47,114,l),
(94,35,o),
(194,-15,o),
(344,-15,cs)
);
}
);
width = 672;
},
{
anchors = (
{
name = bottom;
pos = (367,0);
},
{
name = top;
pos = (348,730);
}
);
associatedMasterId = "41EDA971-A137-4972-81AF-7929AB7CAABF";
background = {
shapes = (
{
closed = 1;
nodes = (
(362,465,l),
(465,465,o),
(533,445,o),
(579,408,c),
(629,615,l),
(586,692,o),
(504,746,o),
(375,746,c)
);
}
);
};
layerId = "41B55272-4C8C-44CB-A055-7F03BF7B4612";
name = "9 avr. 24 à 13:30";
shapes = (
{
closed = 1;
nodes = (
(543,-15,o),
(638,52,o),
(638,204,cs),
(638,335,o),
(546,372,o),
(386,378,cs),
(243,382,o),
(214,391,o),
(214,422,cs),
(214,448,o),
(246,465,o),
(358,465,cs),
(460,465,o),
(533,446,o),
(579,408,c),
(629,615,l),
(584,694,o),
(504,746,o),
(372,746,cs),
(191,746,o),
(79,660,o),
(79,498,cs),
(79,341,o),
(166,297,o),
(328,292,cs),
(464,287,o),
(491,277,o),
(491,244,cs),
(491,216,o),
(473,193,o),
(365,193,cs),
(239,193,o),
(163,221,o),
(102,276,c),
(47,114,l),
(94,35,o),
(194,-15,o),
(344,-15,cs)
);
}
);
width = 672;
},
{
anchors = (
{
name = bottom;
pos = (347,0);
},
{
name = top;
pos = (328,730);
}
);
associatedMasterId = "41EDA971-A137-4972-81AF-7929AB7CAABF";
layerId = "9EA7435F-FEB5-4A33-91B1-9896157AD721";
name = "26 juin 24 à 15:44";
shapes = (
{
closed = 1;
nodes = (
(525,-16,o),
(620,52,o),
(620,204,cs),
(620,336,o),
(528,374,o),
(368,380,cs),
(225,384,o),
(196,392,o),
(196,422,cs),
(196,449,o),
(228,466,o),
(340,466,cs),
(442,466,o),
(515,447,o),
(561,408,c),
(611,615,l),
(566,694,o),
(486,746,o),
(354,746,cs),
(173,746,o),
(61,660,o),
(61,498,cs),
(61,337,o),
(148,291,o),
(310,286,cs),
(446,281,o),
(473,271,o),
(473,240,cs),
(473,213,o),
(455,192,o),
(347,192,cs),
(221,192,o),
(145,220,o),
(84,276,c),
(29,114,l),
(76,35,o),
(176,-16,o),
(326,-16,cs)
);
}
);
width = 637;
},
{
anchors = (
{
name = bottom;
pos = (319,0);
},
{
name = top;
pos = (333,730);
}
);
associatedMasterId = "79167EE4-8C29-4BCE-A9E7-C1CFC4557E33";
background = {
shapes = (
{
closed = 1;
nodes = (
(476,-8,o),
(567,69,o),
(567,197,cs),
(567,315,o),
(514,363,o),
(319,387,cs),
(151,407,o),
(109,447,o),
(109,531,cs),
(109,605,o),
(167,673,o),
(315,676,cs),
(409,678,o),
(493,639,o),
(539,582,c),
(555,627,l),
(522,685,o),
(445,738,o),
(324,738,cs),
(174,738,o),
(71,659,o),
(71,531,cs),
(71,418,o),
(131,371,o),
(308,351,cs),
(479,332,o),
(529,291,o),
(529,208,cs),
(529,120,o),
(463,50,o),
(310,50,cs),
(218,50,o),
(123,88,o),
(76,146,c),
(61,105,l),
(99,41,o),
(181,-8,o),
(316,-8,cs)
);
}
);
};
layerId = "A2238676-AE75-4021-B98A-536DC1CE5926";
name = "27 juin 24 à 16:46";
shapes = (
{
closed = 1;
nodes = (
(473,-8,o),
(567,71,o),
(567,202,cs),
(567,313,o),
(511,364,o),
(319,387,cs),
(154,407,o),
(113,447,o),
(113,531,cs),
(113,605,o),
(170,673,o),
(315,676,cs),
(409,678,o),
(493,639,o),
(539,582,c),
(555,627,l),
(522,685,o),
(445,738,o),
(324,738,cs),
(177,738,o),
(70,657,o),
(70,529,cs),
(70,420,o),
(134,370,o),
(308,351,cs),
(476,332,o),
(525,291,o),
(525,208,cs),
(525,120,o),
(460,50,o),
(310,50,cs),
(218,50,o),
(123,88,o),
(76,146,c),
(61,105,l),
(99,41,o),
(181,-8,o),
(316,-8,cs)
);
}
);
width = 621;
},
{
anchors = (
{
name = bottom;
pos = (319,0);
},
{
name = top;
pos = (333,730);
}
);
associatedMasterId = "79167EE4-8C29-4BCE-A9E7-C1CFC4557E33";
background = {
shapes = (
{
closed = 1;
nodes = (
(473,-8,o),
(567,71,o),
(567,202,cs),
(567,313,o),
(511,364,o),
(319,387,cs),
(154,407,o),
(113,447,o),
(113,531,cs),
(113,605,o),
(170,673,o),
(315,676,cs),
(409,678,o),
(493,639,o),
(539,582,c),
(555,627,l),
(522,685,o),
(445,738,o),
(324,738,cs),
(177,738,o),
(70,657,o),
(70,529,cs),
(70,420,o),
(134,370,o),
(308,351,cs),
(476,332,o),
(525,291,o),
(525,208,cs),
(525,120,o),
(460,50,o),
(310,50,cs),
(218,50,o),
(123,88,o),
(76,146,c),
(61,105,l),
(99,41,o),
(181,-8,o),
(316,-8,cs)
);
}
);
};
layerId = "5554DE5D-1D9E-49EB-A2A6-67F53288DE4D";
name = "27 juin 24 à 16:50";
shapes = (
{
closed = 1;
nodes = (
(471,-8,o),
(567,73,o),
(567,202,cs),
(567,313,o),
(511,364,o),
(319,387,cs),
(154,407,o),
(113,447,o),
(113,531,cs),
(113,608,o),
(167,673,o),
(315,676,cs),
(413,678,o),
(493,639,o),
(539,582,c),
(555,627,l),
(523,683,o),
(443,738,o),
(324,738,cs),
(177,738,o),
(70,657,o),
(70,529,cs),
(70,420,o),
(134,370,o),
(308,351,cs),
(476,332,o),
(525,291,o),
(525,208,cs),
(525,116,o),
(463,50,o),
(310,50,cs),
(214,50,o),
(123,88,o),
(76,146,c),
(61,105,l),
(98,42,o),
(183,-8,o),
(316,-8,cs)
);
}
);
width = 621;
}
);
unicode = 83;
},
{
glyphname = Germandbls;
lastChange = "2024-07-01 15:32:13 +0000";
layers = (
{
layerId = "79167EE4-8C29-4BCE-A9E7-C1CFC4557E33";
shapes = (
{
closed = 1;
nodes = (
(604,-8,o),
(685,71,o),
(685,220,cs),
(685,344,o),
(601,411,o),
(442,416,c),
(437,390,l),
(630,643,l),
(630,692,l),
(593,718,o),
(514,738,o),
(415,738,cs),
(186,738,o),
(103,623,o),
(103,421,cs),
(103,0,l),
(135,0,l),
(135,420,ls),
(135,602,o),
(216,678,o),
(413,678,cs),
(502,678,o),
(571,660,o),
(602,639,c),
(607,665,l),
(393,385,l),
(394,367,l),
(583,370,o),
(652,306,o),
(652,211,cs),
(652,109,o),
(580,50,o),
(459,50,cs),
(374,50,o),
(287,87,o),
(243,143,c),
(227,103,l),
(261,43,o),
(341,-8,o),
(464,-8,cs)
);
}
);
width = 725;
},
{
layerId = "41EDA971-A137-4972-81AF-7929AB7CAABF";
shapes = (
{
closed = 1;
nodes = (
(581,-16,o),
(684,50,o),
(684,217,cs),
(684,339,o),
(627,414,o),
(512,432,c),
(502,396,l),
(641,531,l),
(641,697,l),
(598,724,o),
(510,746,o),
(393,746,cs),
(184,746,o),
(70,654,o),
(70,487,cs),
(70,0,l),
(164,0,l),
(164,341,ls),
(163,432,o),
(230,466,o),
(359,466,cs),
(419,466,o),
(465,458,o),
(484,449,c),
(464,462,l),
(363,373,l),
(390,281,l),
(567,284,o),
(601,269,o),
(601,238,cs),
(601,208,o),
(565,192,o),
(473,192,cs),
(363,192,o),
(312,207,o),
(269,239,c),
(215,91,l),
(251,22,o),
(328,-16,o),
(437,-16,cs)
);
}
);
width = 708;
},
{
associatedMasterId = "79167EE4-8C29-4BCE-A9E7-C1CFC4557E33";
layerId = "7418B8A5-1064-428C-A4A1-EC7B34E56735";
name = "28 juin 24 à 13:10";
shapes = (
{
closed = 1;
nodes = (
(609,-9,o),
(704,64,o),
(704,239,cs),
(704,371,o),
(617,441,o),
(443,437,c),
(453,412,l),
(635,655,l),
(635,692,l),
(598,719,o),
(519,739,o),
(420,739,cs),
(215,739,o),
(103,649,o),
(103,487,cs),
(103,0,l),
(145,0,l),
(145,493,ls),
(145,639,o),
(239,694,o),
(418,694,cs),
(516,694,o),
(593,678,o),
(627,659,c),
(637,704,l),
(396,397,l),
(399,376,l),
(583,396,o),
(657,322,o),
(657,225,cs),
(657,121,o),
(591,51,o),
(476,51,cs),
(409,51,o),
(323,83,o),
(292,146,c),
(264,71,l),
(309,19,o),
(388,-9,o),
(479,-9,cs)
);
}
);
width = 730;
},
{
associatedMasterId = "79167EE4-8C29-4BCE-A9E7-C1CFC4557E33";
background = {
shapes = (
{
closed = 1;
nodes = (
(611,-8,o),
(693,80,o),
(693,226,c),
(661,232,l),
(661,126,o),
(604,48,o),
(470,48,cs),
(389,48,o),
(307,81,o),
(266,133,c),
(252,93,l),
(285,37,o),
(358,-8,o),
(476,-8,cs)
);
},
{
angle = 180;
pos = (727,730);
ref = U;
}
);
};
layerId = "88675051-289E-4CB2-8037-B6650C99D4D5";
name = "28 juin 24 à 13:19";
shapes = (
{
closed = 1;
nodes = (
(601,-8,o),
(693,68,o),
(693,230,cs),
(693,371,o),
(608,439,o),
(438,435,c),
(443,412,l),
(630,645,l),
(630,692,l),
(593,718,o),
(514,738,o),
(415,738,cs),
(213,738,o),
(103,648,o),
(103,487,cs),
(103,0,l),
(135,0,l),
(135,493,ls),
(135,627,o),
(231,678,o),
(413,678,cs),
(502,678,o),
(571,660,o),
(602,639,c),
(600,658,l),
(391,397,l),
(394,376,l),
(585,389,o),
(661,325,o),
(661,221,cs),
(661,117,o),
(592,48,o),
(470,48,cs),
(389,48,o),
(307,81,o),
(266,133,c),
(252,93,l),
(285,38,o),
(358,-8,o),
(476,-8,cs)
);
}
);
width = 725;
},
{
associatedMasterId = "79167EE4-8C29-4BCE-A9E7-C1CFC4557E33";
background = {
shapes = (
{
closed = 1;
nodes = (
(578,-7,o),
(693,58,o),
(693,225,cs),
(693,344,o),
(595,423,o),
(419,413,c),
(406,383,l),
(673,691,l),
(634,695,l),
(368,389,l),
(368,373,l),
(582,392,o),
(652,314,o),
(652,216,cs),
(652,118,o),
(573,51,o),
(448,51,cs),
(359,49,o),
(266,92,o),
(219,153,c),
(201,112,l),
(236,50,o),
(324,-7,o),
(451,-7,cs)
);
}
);
};
layerId = "F45515D1-D52C-49CF-B2F0-783DD6D57E9B";
name = "28 juin 24 à 13:21";
shapes = (
{
closed = 1;
nodes = (
(601,-8,o),
(693,68,o),
(693,230,cs),
(693,371,o),
(608,439,o),
(438,435,c),
(443,412,l),
(630,645,l),
(630,692,l),
(593,718,o),
(514,738,o),
(415,738,cs),
(186,738,o),
(103,623,o),
(103,421,cs),
(103,0,l),
(135,0,l),
(135,420,ls),
(135,602,o),
(216,678,o),
(413,678,cs),
(502,678,o),
(571,660,o),
(602,639,c),
(600,658,l),
(391,397,l),
(394,376,l),
(585,389,o),
(661,325,o),
(661,221,cs),
(661,117,o),
(592,48,o),
(470,48,cs),
(389,48,o),
(307,81,o),
(266,133,c),
(252,93,l),
(285,38,o),
(358,-8,o),
(476,-8,cs)
);
}
);
width = 725;
},
{
associatedMasterId = "79167EE4-8C29-4BCE-A9E7-C1CFC4557E33";
background = {
shapes = (
{
closed = 0;
nodes = (
(456,-8,ls),
(605,-8,o),
(693,77,o),
(693,228,cs)
);
},
{
closed = 0;
nodes = (
(657,217,ls),
(657,115,o),
(580,50,o),
(453,50,cs)
);
}
);
};
layerId = "94F0642D-CAFD-42FA-A2E8-9C7DA2689D3E";
name = "28 juin 24 à 13:26";
shapes = (
{
closed = 1;
nodes = (
(605,-8,o),
(693,77,o),
(693,228,cs),
(693,358,o),
(602,431,o),
(429,424,c),
(425,398,l),
(630,643,l),
(630,692,l),
(593,718,o),
(514,738,o),
(415,738,cs),
(186,738,o),
(103,623,o),
(103,421,cs),
(103,0,l),
(135,0,l),
(135,420,ls),
(135,602,o),
(216,678,o),
(413,678,cs),
(502,678,o),
(571,660,o),
(602,639,c),
(607,665,l),
(380,393,l),
(381,375,l),
(584,391,o),
(657,320,o),
(657,219,cs),
(657,115,o),
(580,50,o),
(459,50,cs),
(374,50,o),
(287,87,o),
(243,143,c),
(227,103,l),
(261,43,o),
(341,-8,o),
(464,-8,cs)
);
}
);
width = 725;
},
{
associatedMasterId = "41EDA971-A137-4972-81AF-7929AB7CAABF";
layerId = "D920C1B0-4CCC-4E79-8958-1114164D2254";
name = "1 juil. 24 à 17:25";
shapes = (
{
closed = 1;
nodes = (
(576,-17,o),
(677,44,o),
(677,197,cs),
(677,336,o),
(597,411,o),
(435,407,c),
(462,322,l),
(649,501,l),
(649,706,l),
(605,729,o),
(516,747,o),
(397,747,cs),
(185,747,o),
(70,655,o),
(70,487,cs),
(70,0,l),
(164,0,l),
(165,311,ls),
(165,401,o),
(232,434,o),
(363,434,cs),
(424,434,o),
(470,420,o),
(489,405,c),
(469,432,l),
(365,343,l),
(387,240,l),
(555,242,o),
(599,227,o),
(599,203,cs),
(599,185,o),
(542,171,o),
(469,171,cs),
(352,171,o),
(308,189,o),
(262,222,c),
(222,97,l),
(256,23,o),
(329,-17,o),
(434,-17,cs)
);
}
);
width = 695;
},
{
associatedMasterId = "41EDA971-A137-4972-81AF-7929AB7CAABF";
layerId = "79ECD2B3-FBF4-4BD6-ABD2-D3E12D0697C2";
name = "1 juil. 24 à 17:30";
shapes = (
{
closed = 1;
nodes = (
(576,-16,o),
(677,50,o),
(677,217,cs),
(677,339,o),
(621,414,o),
(508,432,c),
(508,396,l),
(649,531,l),
(649,697,l),
(605,724,o),
(516,746,o),
(397,746,cs),
(185,746,o),
(70,654,o),
(70,487,cs),
(70,0,l),
(164,0,l),
(165,341,ls),
(165,432,o),
(232,466,o),
(363,466,cs),
(424,466,o),
(470,454,o),
(489,442,c),
(469,462,l),
(365,373,l),
(387,281,l),
(561,284,o),
(594,269,o),
(594,238,cs),
(594,208,o),
(559,192,o),
(469,192,cs),
(361,192,o),
(310,207,o),
(268,239,c),
(215,91,l),
(250,22,o),
(326,-16,o),
(434,-16,cs)
);
}
);
width = 695;
},
{
associatedMasterId = "41EDA971-A137-4972-81AF-7929AB7CAABF";
layerId = "B51FE8AA-20CB-4B8E-AFE9-5166C4F6D9B5";
name = "1 juil. 24 à 17:30";
shapes = (
{
closed = 1;
nodes = (
(576,-16,o),
(677,50,o),
(677,217,cs),
(677,339,o),
(621,414,o),
(508,432,c),
(508,396,l),
(649,531,l),
(649,697,l),
(605,724,o),
(516,746,o),
(397,746,cs),
(185,746,o),
(70,654,o),
(70,487,cs),
(70,0,l),
(164,0,l),
(165,341,ls),
(165,432,o),
(232,466,o),
(363,466,cs),
(424,466,o),
(470,454,o),
(489,442,c),
(469,462,l),
(365,373,l),
(387,281,l),
(561,284,o),
(594,269,o),
(594,238,cs),
(594,208,o),
(559,192,o),
(469,192,cs),
(361,192,o),
(310,207,o),
(268,239,c),
(215,91,l),
(250,22,o),
(326,-16,o),
(434,-16,cs)
);
}
);
width = 695;
}
);
metricLeft = "=H";
unicode = 7838;
},
{
glyphname = T;
lastChange = "2024-08-28 12:36:38 +0000";
layers = (
{
anchors = (
{
name = bottom;
pos = (264,0);
},
{
name = top;
pos = (256,730);
}
);
layerId = "79167EE4-8C29-4BCE-A9E7-C1CFC4557E33";
shapes = (
{
closed = 1;
nodes = (
(537,672,l),
(537,730,l),
(-6,730,l),
(-6,672,l)
);
},
{
closed = 1;
nodes = (
(280,0,l),
(280,730,l),
(248,730,l),
(248,0,l)
);
}
);
width = 530;
},
{
anchors = (
{
name = bottom;
pos = (297,0);
},
{
name = top;
pos = (297,730);
}
);
layerId = "41EDA971-A137-4972-81AF-7929AB7CAABF";
shapes = (
{
closed = 1;
nodes = (
(583,440,l),
(583,730,l),
(10,730,l),
(10,440,l)
);
},
{
closed = 1;
nodes = (
(345,0,l),
(345,675,l),
(249,675,l),
(249,0,l)
);
}
);
width = 593;
}
);
unicode = 84;
},
{
glyphname = Tbar;
lastChange = "2024-08-28 12:37:17 +0000";
layers = (
{
layerId = "79167EE4-8C29-4BCE-A9E7-C1CFC4557E33";
shapes = (
{
closed = 1;
nodes = (
(477,376,l),
(477,426,l),
(61,426,l),
(61,376,l)
);
},
{
alignment = -1;
ref = T;
}
);
width = 540;
},
{
layerId = "41EDA971-A137-4972-81AF-7929AB7CAABF";
shapes = (
{
closed = 1;
nodes = (
(556,176,l),
(556,358,l),
(62,358,l),
(62,176,l)
);
},
{
alignment = -1;
ref = T;
}
);
width = 613;
},
{
associatedMasterId = "41EDA971-A137-4972-81AF-7929AB7CAABF";
layerId = "536C055C-AB51-4943-B16E-5E7CD2E5579D";
name = "1 juil. 24 à 16:17";
shapes = (
{
closed = 1;
nodes = (
(556,211,l),
(556,308,l),
(62,308,l),
(62,211,l)
);
},
{
alignment = -1;
ref = T;
}
);
width = 613;
}
);
unicode = 358;
},
{
glyphname = U;
lastChange = "2024-06-28 11:40:40 +0000";
layers = (
{
anchors = (
{
name = ogonek;
pos = (549,0);
},
{
name = top;
pos = (364,730);
}
);
layerId = "79167EE4-8C29-4BCE-A9E7-C1CFC4557E33";
shapes = (
{
closed = 1;
nodes = (
(506,-8,o),
(624,87,o),
(624,300,cs),
(624,730,l),
(592,730,l),
(592,310,ls),
(592,132,o),
(506,50,o),
(356,50,cs),
(201,50,o),
(114,132,o),
(114,310,cs),
(114,730,l),
(82,730,l),
(82,301,ls),
(82,91,o),
(175,-8,o),
(358,-8,cs)
);
}
);
width = 706;
},
{
anchors = (
{
name = ogonek;
pos = (395,0);
},
{
name = top;
pos = (360,730);
}
);
layerId = "41EDA971-A137-4972-81AF-7929AB7CAABF";
shapes = (
{
closed = 1;
nodes = (
(551,-16,o),
(652,94,o),
(652,341,cs),
(652,730,l),
(556,730,l),
(556,393,ls),
(556,262,o),
(498,202,o),
(360,202,cs),
(222,202,o),
(156,262,o),
(156,393,cs),
(156,730,l),
(60,730,l),
(60,318,ls),
(60,72,o),
(172,-16,o),
(359,-16,cs)
);
}
);
width = 712;
},
{
anchors = (
{
name = ogonek;
pos = (393,0);
},
{
name = top;
pos = (358,730);
}
);
associatedMasterId = "41EDA971-A137-4972-81AF-7929AB7CAABF";
layerId = "20072FF2-2F01-4924-A939-DC1A8E743C93";
name = "9 avr. 24 à 11:33";
shapes = (
{
closed = 1;
nodes = (
(549,-17,o),
(650,93,o),
(650,341,cs),
(650,730,l),
(555,730,l),
(555,413,ls),
(555,284,o),
(497,225,o),
(358,225,cs),
(218,225,o),
(151,284,o),
(151,413,cs),
(151,730,l),
(60,730,l),
(60,318,ls),
(60,71,o),
(171,-17,o),
(357,-17,cs)
);
}
);
width = 710;
},
{
anchors = (
{
name = ogonek;
pos = (395,0);
},
{
name = top;
pos = (360,730);
}
);
associatedMasterId = "41EDA971-A137-4972-81AF-7929AB7CAABF";
layerId = "D342C548-73FB-45FD-90AD-57D6DEC167E5";
name = "9 avr. 24 à 11:47";
shapes = (
{
closed = 1;
nodes = (
(551,-17,o),
(652,93,o),
(652,341,cs),
(652,730,l),
(556,730,l),
(556,413,ls),
(556,284,o),
(498,225,o),
(360,225,cs),
(222,225,o),
(156,284,o),
(156,413,cs),
(156,730,l),
(60,730,l),
(60,318,ls),
(60,71,o),
(172,-17,o),
(359,-17,cs)
);
}
);
width = 712;
},
{
anchors = (
{
name = ogonek;
pos = (399,0);
},
{
name = top;
pos = (364,730);
}
);
associatedMasterId = "79167EE4-8C29-4BCE-A9E7-C1CFC4557E33";
layerId = "55B738E8-4DC4-4210-A470-231300F28D82";
name = "24 juin 24 à 13:42";
shapes = (
{
closed = 1;
nodes = (
(506,-8,o),
(624,87,o),
(624,300,cs),
(624,730,l),
(592,730,l),
(592,310,ls),
(592,132,o),
(506,50,o),
(356,50,cs),
(201,50,o),
(114,132,o),
(114,310,cs),
(114,730,l),
(82,730,l),
(82,301,ls),
(82,91,o),
(175,-8,o),
(348,-8,cs)
);
}
);
width = 706;
}
);
unicode = 85;
},
{
glyphname = Uogonek;
lastChange = "2024-08-28 11:47:59 +0000";
layers = (
{
background = {
shapes = (
{
ref = U;
},
{
pos = (299,0);
ref = ogonekcomb;
}
);
};
layerId = "79167EE4-8C29-4BCE-A9E7-C1CFC4557E33";
shapes = (
{
ref = U;
},
{
closed = 1;
nodes = (
(559,-203,o),
(588,-185,o),
(601,-160,c),
(593,-125,l),
(576,-140,o),
(553,-150,o),
(521,-150,cs),
(482,-150,o),
(460,-135,o),
(460,-99,cs),
(460,-57,o),
(483,-8,o),
(558,79,c),
(533,82,l),
(458,4,o),
(421,-58,o),
(421,-119,cs),
(421,-177,o),
(458,-203,o),
(516,-203,cs)
);
}
);
width = 706;
},
{
layerId = "41EDA971-A137-4972-81AF-7929AB7CAABF";
shapes = (
{
ref = U;
},
{
closed = 1;
nodes = (
(417,-221,o),
(466,-185,o),
(484,-141,c),
(455,-55,l),
(433,-76,o),
(406,-94,o),
(380,-94,cs),
(361,-94,o),
(348,-84,o),
(348,-71,cs),
(348,-54,o),
(363,-31,o),
(448,0,c),
(381,25,l),
(277,-17,o),
(240,-60,o),
(240,-120,cs),
(240,-184,o),
(285,-221,o),
(359,-221,cs)
);
}
);
width = 712;
},
{
associatedMasterId = "79167EE4-8C29-4BCE-A9E7-C1CFC4557E33";
layerId = "6F538809-9950-46BE-B102-DBD86B4ABDD2";
name = "28 août 24 à 12:51";
shapes = (
{
ref = U;
},
{
pos = (299,0);
ref = ogonekcomb;
}
);
width = 706;
}
);
unicode = 370;
},
{
glyphname = V;
lastChange = "2024-06-26 13:44:12 +0000";
layers = (
{
background = {
shapes = (
{
closed = 1;
nodes = (
(356,0,l),
(665,730,l),
(613,730,l),
(320,39,l),
(333,39,l),
(35,730,l),
(0,730,l),
(315,0,l)
);
}
);
};
layerId = "79167EE4-8C29-4BCE-A9E7-C1CFC4557E33";
shapes = (
{
closed = 1;
nodes = (
(353,0,l),
(665,730,l),
(613,730,l),
(317,39,l),
(331,39,l),
(35,730,l),
(0,730,l),
(312,0,l)
);
}
);
width = 665;
},
{
layerId = "41EDA971-A137-4972-81AF-7929AB7CAABF";
shapes = (
{
closed = 1;
nodes = (
(423,0,l),
(738,730,l),
(472,730,l),
(257,230,l),
(296,230,l),
(103,730,l),
(0,730,l),
(282,0,l)
);
}
);
width = 738;
},
{
associatedMasterId = "41EDA971-A137-4972-81AF-7929AB7CAABF";
layerId = "3F349DDF-FCD8-496C-917B-BF742A0EC973";
name = "1 déc. 21 à 17:02";
shapes = (
{
closed = 1;
nodes = (
(414,0,l),
(719,730,l),
(478,730,l),
(243,153,l),
(324,148,l),
(107,730,l),
(0,730,l),
(271,0,l)
);
}
);
width = 719;
},
{
associatedMasterId = "41EDA971-A137-4972-81AF-7929AB7CAABF";
layerId = "6B81ED71-F8CD-47F3-BDE7-9056636A46A6";
name = "9 avr. 24 à 12:19";
shapes = (
{
closed = 1;
nodes = (
(424,0,l),
(739,730,l),
(498,730,l),
(253,153,l),
(329,148,l),
(104,730,l),
(1,730,l),
(283,0,l)
);
}
);
width = 739;
},
{
associatedMasterId = "79167EE4-8C29-4BCE-A9E7-C1CFC4557E33";
background = {
shapes = (
{
closed = 1;
nodes = (
(355,0,l),
(670,730,l),
(620,730,l),
(321,39,l),
(337,39,l),
(47,730,l),
(7,730,l),
(313,0,l)
);
}
);
};
layerId = "53005D2D-F36C-4EB0-B308-9A46830B7F60";
name = "24 juin 24 à 14:44";
shapes = (
{
closed = 1;
nodes = (
(357,0,l),
(672,730,l),
(620,730,l),
(321,39,l),
(335,39,l),
(42,730,l),
(7,730,l),
(316,0,l)
);
}
);
width = 646;
},
{
associatedMasterId = "79167EE4-8C29-4BCE-A9E7-C1CFC4557E33";
background = {
shapes = (
{
closed = 1;
nodes = (
(363,0,l),
(672,730,l),
(620,730,l),
(327,39,l),
(340,39,l),
(42,730,l),
(7,730,l),
(322,0,l)
);
}
);
};
layerId = "97128D7B-4E32-4A25-882B-FBBAB83A6C19";
name = "24 juin 24 à 14:45";
shapes = (
{
closed = 1;
nodes = (
(357,0,l),
(672,730,l),
(620,730,l),
(321,39,l),
(335,39,l),
(42,730,l),
(7,730,l),
(316,0,l)
);
}
);
width = 646;
}
);
unicode = 86;
},
{
glyphname = W;
lastChange = "2024-08-28 15:29:19 +0000";
layers = (
{
anchors = (
{
name = top;
pos = (460,730);
}
);
layerId = "79167EE4-8C29-4BCE-A9E7-C1CFC4557E33";
shapes = (
{
closed = 1;
nodes = (
(268,0,l),
(462,581,l),
(441,601,l),
(642,0,l),
(684,0,l),
(909,730,l),
(859,730,l),
(644,33,l),
(662,41,l),
(464,633,l),
(429,633,l),
(231,41,l),
(249,33,l),
(34,730,l),
(0,730,l),
(225,0,l)
);
}
);
width = 909;
},
{
anchors = (
{
name = top;
pos = (465,730);
}
);
layerId = "41EDA971-A137-4972-81AF-7929AB7CAABF";
shapes = (
{
closed = 1;
nodes = (
(378,0,l),
(536,373,l),
(485,373,l),
(603,0,l),
(749,0,l),
(980,730,l),
(747,730,l),
(567,154,l),
(653,153,l),
(501,658,l),
(385,658,l),
(198,154,l),
(283,154,l),
(101,730,l),
(0,730,l),
(230,0,l)
);
}
);
width = 980;
},
{
anchors = (
{
name = top;
pos = (423,730);
}
);
associatedMasterId = "41EDA971-A137-4972-81AF-7929AB7CAABF";
layerId = "89678D5F-6973-4618-936A-4A3755FA4218";
name = "1 déc. 21 à 16:52";
shapes = (
{
closed = 1;
nodes = (
(366,0,l),
(494,373,l),
(456,373,l),
(544,0,l),
(717,0,l),
(918,730,l),
(685,730,l),
(535,154,l),
(608,153,l),
(486,658,l),
(343,658,l),
(186,154,l),
(259,154,l),
(90,730,l),
(-14,730,l),
(194,0,l)
);
}
);
width = 891;
},
{
anchors = (
{
name = top;
pos = (467,730);
}
);
associatedMasterId = "79167EE4-8C29-4BCE-A9E7-C1CFC4557E33";
layerId = "8FE8DE05-29AD-4A70-9119-25825DFFC08E";
name = "24 juin 24 à 14:43";
shapes = (
{
closed = 1;
nodes = (
(267,0,l),
(480,581,l),
(453,621,l),
(641,0,l),
(685,0,l),
(916,730,l),
(866,730,l),
(645,34,l),
(664,35,l),
(483,633,l),
(448,633,l),
(233,47,l),
(250,32,l),
(40,730,l),
(7,730,l),
(226,0,l)
);
}
);
width = 890;
},
{
anchors = (
{
name = top;
pos = (467,730);
}
);
associatedMasterId = "79167EE4-8C29-4BCE-A9E7-C1CFC4557E33";
background = {
shapes = (
{
closed = 1;
nodes = (
(282,0,l),
(458,581,l),
(443,581,l),
(656,0,l),
(697,0,l),
(916,730,l),
(866,730,l),
(656,32,l),
(673,47,l),
(458,633,l),
(423,633,l),
(242,35,l),
(261,34,l),
(41,730,l),
(7,730,l),
(238,0,l)
);
}
);
};
layerId = "8E291124-C3DE-47EB-9D68-F39B1357DC48";
name = "24 juin 24 à 14:44";
shapes = (
{
closed = 1;
nodes = (
(267,0,l),
(480,581,l),
(453,621,l),
(641,0,l),
(685,0,l),
(916,730,l),
(866,730,l),
(645,34,l),
(664,35,l),
(483,633,l),
(448,633,l),
(233,47,l),
(250,32,l),
(40,730,l),
(7,730,l),
(226,0,l)
);
}
);
width = 890;
}
);
metricLeft = "=V";
metricRight = "=V";
unicode = 87;
},
{
glyphname = X;
lastChange = "2024-04-10 14:17:36 +0000";
layers = (
{
background = {
shapes = (
{
closed = 1;
nodes = (
(88,0,l),
(321,339,l),
(338,349,l),
(596,730,l),
(557,730,l),
(333,398,l),
(314,385,l),
(49,0,l)
);
},
{
closed = 1;
nodes = (
(612,0,l),
(346,383,l),
(309,356,l),
(556,0,l)
);
},
{
closed = 1;
nodes = (
(340,382,l),
(91,730,l),
(33,730,l),
(303,355,l)
);
}
);
};
layerId = "79167EE4-8C29-4BCE-A9E7-C1CFC4557E33";
shapes = (
{
closed = 1;
nodes = (
(99,0,l),
(334,335,l),
(348,352,l),
(609,730,l),
(551,730,l),
(311,384,l),
(307,380,l),
(41,0,l)
);
},
{
closed = 1;
nodes = (
(609,0,l),
(345,361,l),
(319,342,l),
(569,0,l)
);
},
{
closed = 1;
nodes = (
(328,384,l),
(75,730,l),
(36,730,l),
(305,361,l)
);
}
);
width = 634;
},
{
layerId = "41EDA971-A137-4972-81AF-7929AB7CAABF";
shapes = (
{
closed = 1;
nodes = (
(265,0,l),
(406,238,l),
(442,277,l),
(720,730,l),
(454,730,l),
(310,486,l),
(275,442,l),
(0,0,l)
);
},
{
closed = 1;
nodes = (
(691,0,l),
(454,344,l),
(392,266,l),
(574,0,l)
);
},
{
closed = 1;
nodes = (
(369,432,l),
(162,730,l),
(47,730,l),
(306,353,l)
);
}
);
width = 720;
}
);
unicode = 88;
},
{
glyphname = Y;
lastChange = "2024-08-28 15:29:51 +0000";
layers = (
{
anchors = (
{
name = top;
pos = (309,730);
}
);
layerId = "79167EE4-8C29-4BCE-A9E7-C1CFC4557E33";
shapes = (
{
closed = 1;
nodes = (
(322,294,l),
(607,730,l),
(550,730,l),
(295,340,l),
(318,340,l),
(53,730,l),
(15,730,l),
(310,294,l)
);
},
{
closed = 1;
nodes = (
(331,0,l),
(331,336,l),
(299,336,l),
(299,0,l)
);
}
);
width = 608;
},
{
anchors = (
{
name = top;
pos = (318,730);
}
);
layerId = "41EDA971-A137-4972-81AF-7929AB7CAABF";
shapes = (
{
closed = 1;
nodes = (
(345,210,l),
(696,730,l),
(402,730,l),
(213,452,l),
(263,451,l),
(110,730,l),
(0,730,l),
(286,210,l)
);
},
{
closed = 1;
nodes = (
(366,0,l),
(366,321,l),
(270,321,l),
(270,0,l)
);
}
);
width = 696;
},
{
anchors = (
{
name = top;
pos = (326,730);
}
);
associatedMasterId = "41EDA971-A137-4972-81AF-7929AB7CAABF";
layerId = "E7EF232D-7AE5-4126-856B-2D6F5501537B";
name = "9 avr. 24 à 12:26";
shapes = (
{
closed = 1;
nodes = (
(316,329,l),
(84,730,l),
(-26,730,l),
(291,179,l)
);
},
{
closed = 1;
nodes = (
(670,730,l),
(402,730,l),
(234,459,l),
(332,210,l)
);
},
{
closed = 1;
nodes = (
(339,0,l),
(339,321,l),
(243,321,l),
(243,0,l)
);
}
);
width = 622;
},
{
anchors = (
{
name = top;
pos = (352,730);
}
);
associatedMasterId = "41EDA971-A137-4972-81AF-7929AB7CAABF";
layerId = "8E9D083E-442A-401E-8817-3EDF951DA210";
name = "9 avr. 24 à 12:27";
shapes = (
{
closed = 1;
nodes = (
(358,210,l),
(696,730,l),
(405,730,l),
(224,452,l),
(271,451,l),
(111,730,l),
(0,730,l),
(299,210,l)
);
},
{
closed = 1;
nodes = (
(376,0,l),
(376,321,l),
(280,321,l),
(280,0,l)
);
}
);
width = 696;
}
);
unicode = 89;
},
{
glyphname = Z;
lastChange = "2024-08-28 15:30:35 +0000";
layers = (
{
anchors = (
{
name = top;
pos = (363,730);
}
);
layerId = "79167EE4-8C29-4BCE-A9E7-C1CFC4557E33";
shapes = (
{
closed = 1;
nodes = (
(627,0,l),
(627,54,l),
(88,54,l),
(77,21,l),
(616,685,l),
(616,730,l),
(86,730,l),
(86,672,l),
(584,672,l),
(598,714,l),
(56,46,l),
(56,0,l)
);
}
);
width = 660;
},
{
anchors = (
{
name = top;
pos = (330,730);
}
);
layerId = "41EDA971-A137-4972-81AF-7929AB7CAABF";
shapes = (
{
closed = 1;
nodes = (
(612,0,l),
(612,218,l),
(223,218,l),
(231,208,l),
(595,465,l),
(595,730,l),
(53,730,l),
(53,440,l),
(417,440,l),
(417,457,l),
(36,187,l),
(36,0,l)
);
}
);
width = 628;
},
{
anchors = (
{
name = top;
pos = (336,730);
}
);
associatedMasterId = "41EDA971-A137-4972-81AF-7929AB7CAABF";
layerId = "E8ED42BC-AD32-48ED-B03E-19D83DF20663";
name = "9 avr. 24 à 11:35";
shapes = (
{
closed = 1;
nodes = (
(631,0,l),
(631,223,l),
(242,222,l),
(250,217,l),
(614,523,l),
(614,730,l),
(72,730,l),
(72,435,l),
(421,435,l),
(400,463,l),
(55,158,l),
(55,0,l)
);
}
);
width = 650;
}
);
unicode = 90;
},
{
glyphname = a;
lastChange = "2024-08-28 15:49:40 +0000";
layers = (
{
anchors = (
{
name = ogonek;
pos = (458,0);
},
{
name = top;
pos = (269,548);
}
);
background = {
shapes = (
{
closed = 1;
nodes = (
(477,0,l),
(465,56,o),
(457,122,o),
(457,179,cs),
(457,371,ls),
(457,504,o),
(391,556,o),
(275,556,cs),
(187,556,o),
(114,527,o),
(78,464,c),
(92,427,l),
(121,463,o),
(185,498,o),
(267,498,cs),
(378,498,o),
(427,457,o),
(427,356,cs),
(427,162,ls),
(427,119,o),
(435,53,o),
(447,0,c)
);
},
{
closed = 1;
nodes = (
(412,263,l),
(379,288,o),
(320,304,o),
(260,304,cs),
(125,304,o),
(48,245,o),
(48,151,cs),
(48,53,o),
(107,-8,o),
(243,-8,cs),
(329,-8,o),
(431,42,o),
(434,126,c),
(427,177,l),
(426,96,o),
(340,46,o),
(247,46,cs),
(132,46,o),
(78,90,o),
(78,154,cs),
(78,223,o),
(139,270,o),
(257,270,cs),
(317,270,o),
(372,258,o),
(402,232,c)
);
}
);
};
layerId = "79167EE4-8C29-4BCE-A9E7-C1CFC4557E33";
shapes = (
{
closed = 1;
nodes = (
(477,0,l),
(465,56,o),
(457,122,o),
(457,179,cs),
(457,371,ls),
(457,504,o),
(391,556,o),
(275,556,cs),
(187,556,o),
(114,527,o),
(78,464,c),
(92,427,l),
(121,463,o),
(185,498,o),
(267,498,cs),
(378,498,o),
(427,457,o),
(427,356,cs),
(427,162,ls),
(427,119,o),
(435,53,o),
(447,0,c)
);
},
{
closed = 1;
nodes = (
(442,253,l),
(402,288,o),
(332,304,o),
(260,304,cs),
(125,304,o),
(48,243,o),
(48,143,cs),
(48,49,o),
(107,-8,o),
(243,-8,cs),
(329,-8,o),
(431,42,o),
(434,126,c),
(427,177,l),
(426,96,o),
(340,46,o),
(247,46,cs),
(136,46,o),
(84,90,o),
(84,154,cs),
(84,223,o),
(138,270,o),
(257,270,cs),
(329,270,o),
(395,258,o),
(432,222,c)
);
}
);
width = 537;
},
{
anchors = (
{
name = ogonek;
pos = (419,0);
},
{
name = top;
pos = (245,556);
}
);
layerId = "41EDA971-A137-4972-81AF-7929AB7CAABF";
shapes = (
{
closed = 1;
nodes = (
(472,0,l),
(461,55,o),
(453,110,o),
(453,179,cs),
(453,378,ls),
(453,505,o),
(386,572,o),
(253,572,cs),
(123,572,o),
(66,523,o),
(33,464,c),
(75,294,l),
(112,321,o),
(159,335,o),
(238,335,cs),
(334,335,o),
(361,318,o),
(361,276,cs),
(361,136,ls),
(361,68,o),
(370,30,o),
(378,0,c)
);
},
{
closed = 1;
nodes = (
(373,272,l),
(336,287,o),
(286,294,o),
(227,294,cs),
(86,294,o),
(12,246,o),
(12,135,cs),
(12,50,o),
(62,-16,o),
(199,-16,cs),
(314,-16,o),
(373,51,o),
(373,130,c),
(361,213,l),
(361,182,o),
(335,173,o),
(245,173,cs),
(144,173,o),
(121,182,o),
(121,200,cs),
(121,219,o),
(146,226,o),
(245,226,cs),
(299,226,o),
(345,218,o),
(363,211,c)
);
}
);
width = 492;
},
{
anchors = (
{
name = ogonek;
pos = (458,0);
},
{
name = top;
pos = (269,548);
}
);
associatedMasterId = "79167EE4-8C29-4BCE-A9E7-C1CFC4557E33";
background = {
shapes = (
{
closed = 1;
nodes = (
(477,0,l),
(465,56,o),
(457,122,o),
(457,179,cs),
(457,371,ls),
(457,504,o),
(391,556,o),
(275,556,cs),
(187,556,o),
(114,527,o),
(78,464,c),
(92,427,l),
(121,463,o),
(185,498,o),
(267,498,cs),
(378,498,o),
(427,457,o),
(427,356,cs),
(427,162,ls),
(427,119,o),
(435,53,o),
(447,0,c)
);
},
{
closed = 1;
nodes = (
(412,263,l),
(379,288,o),
(320,304,o),
(260,304,cs),
(125,304,o),
(48,245,o),
(48,151,cs),
(48,53,o),
(107,-8,o),
(243,-8,cs),
(329,-8,o),
(431,42,o),
(434,126,c),
(427,177,l),
(426,96,o),
(340,46,o),
(247,46,cs),
(132,46,o),
(78,90,o),
(78,154,cs),
(78,223,o),
(139,270,o),
(257,270,cs),
(317,270,o),
(372,258,o),
(402,232,c)
);
}
);
};
layerId = "7ED8E81F-E75C-4263-A122-8913BEBDD60C";
name = "28 août 24 à 14:51";
shapes = (
{
closed = 1;
nodes = (
(477,0,l),
(465,56,o),
(457,122,o),
(457,179,cs),
(457,371,ls),
(457,504,o),
(391,556,o),
(275,556,cs),
(187,556,o),
(114,527,o),
(78,464,c),
(92,427,l),
(121,463,o),
(185,498,o),
(267,498,cs),
(378,498,o),
(427,457,o),
(427,356,cs),
(427,162,ls),
(427,119,o),
(435,53,o),
(447,0,c)
);
},
{
closed = 1;
nodes = (
(442,253,l),
(402,288,o),
(332,304,o),
(260,304,cs),
(125,304,o),
(48,245,o),
(48,151,cs),
(48,53,o),
(107,-8,o),
(243,-8,cs),
(329,-8,o),
(431,42,o),
(434,126,c),
(427,177,l),
(426,96,o),
(340,46,o),
(247,46,cs),
(132,46,o),
(78,90,o),
(78,154,cs),
(78,223,o),
(139,270,o),
(257,270,cs),
(329,270,o),
(395,258,o),
(432,222,c)
);
}
);
width = 537;
},
{
anchors = (
{
name = ogonek;
pos = (417,0);
},
{
name = top;
pos = (243,564);
}
);
associatedMasterId = "41EDA971-A137-4972-81AF-7929AB7CAABF";
background = {
shapes = (
{
closed = 1;
nodes = (
(470,0,l),
(459,56,o),
(451,111,o),
(451,182,cs),
(451,383,ls),
(451,513,o),
(384,580,o),
(251,580,cs),
(124,580,o),
(68,531,o),
(36,471,c),
(78,300,l),
(114,328,o),
(159,342,o),
(236,342,cs),
(332,342,o),
(359,325,o),
(359,281,cs),
(359,138,ls),
(359,69,o),
(368,31,o),
(376,0,c)
);
},
{
closed = 1;
nodes = (
(371,272,l),
(334,287,o),
(286,294,o),
(225,294,cs),
(92,294,o),
(10,247,o),
(10,135,cs),
(10,50,o),
(60,-16,o),
(197,-16,cs),
(312,-16,o),
(371,52,o),
(371,132,c),
(359,215,l),
(359,183,o),
(333,173,o),
(245,173,cs),
(146,173,o),
(123,184,o),
(123,204,cs),
(123,225,o),
(147,234,o),
(245,234,cs),
(297,234,o),
(343,226,o),
(361,218,c)
);
}
);
};
layerId = "C20CA28D-8FBD-4DEB-BD4D-D5E9337FBA4E";
name = "28 août 24 à 14:54";
shapes = (
{
closed = 1;
nodes = (
(470,0,l),
(459,56,o),
(451,111,o),
(451,182,cs),
(451,383,ls),
(451,513,o),
(384,580,o),
(251,580,cs),
(124,580,o),
(68,531,o),
(36,471,c),
(78,300,l),
(114,328,o),
(159,342,o),
(236,342,cs),
(332,342,o),
(359,325,o),
(359,281,cs),
(359,138,ls),
(359,69,o),
(368,31,o),
(376,0,c)
);
},
{
closed = 1;
nodes = (
(371,272,l),
(334,287,o),
(286,294,o),
(225,294,cs),
(92,294,o),
(10,247,o),
(10,135,cs),
(10,50,o),
(60,-16,o),
(197,-16,cs),
(312,-16,o),
(371,52,o),
(371,132,c),
(359,215,l),
(359,183,o),
(333,173,o),
(245,173,cs),
(146,173,o),
(123,184,o),
(123,204,cs),
(123,225,o),
(147,234,o),
(245,234,cs),
(297,234,o),
(343,226,o),
(361,218,c)
);
}
);
width = 494;
},
{
anchors = (
{
name = ogonek;
pos = (417,0);
},
{
name = top;
pos = (243,564);
}
);
associatedMasterId = "41EDA971-A137-4972-81AF-7929AB7CAABF";
background = {
shapes = (
{
closed = 1;
nodes = (
(470,0,l),
(459,56,o),
(451,111,o),
(451,182,cs),
(451,383,ls),
(451,513,o),
(384,580,o),
(251,580,cs),
(124,580,o),
(68,531,o),
(36,471,c),
(78,300,l),
(114,328,o),
(159,342,o),
(236,342,cs),
(332,342,o),
(359,325,o),
(359,281,cs),
(359,138,ls),
(359,69,o),
(368,31,o),
(376,0,c)
);
},
{
closed = 1;
nodes = (
(371,272,l),
(334,287,o),
(286,294,o),
(225,294,cs),
(92,294,o),
(10,247,o),
(10,135,cs),
(10,50,o),
(60,-16,o),
(197,-16,cs),
(312,-16,o),
(371,52,o),
(371,132,c),
(359,215,l),
(359,183,o),
(333,173,o),
(245,173,cs),
(146,173,o),
(123,184,o),
(123,204,cs),
(123,225,o),
(147,234,o),
(245,234,cs),
(297,234,o),
(343,226,o),
(361,218,c)
);
}
);
};
layerId = "57065390-60F1-4EEE-81CF-B8337CA51F90";
name = "28 août 24 à 15:04";
shapes = (
{
closed = 1;
nodes = (
(470,0,l),
(459,56,o),
(451,111,o),
(451,182,cs),
(451,383,ls),
(451,513,o),
(384,580,o),
(251,580,cs),
(124,580,o),
(68,531,o),
(36,471,c),
(78,300,l),
(114,328,o),
(159,342,o),
(236,342,cs),
(332,342,o),
(359,325,o),
(359,281,cs),
(359,138,ls),
(359,69,o),
(368,31,o),
(376,0,c)
);
},
{
closed = 1;
nodes = (
(371,276,l),
(334,291,o),
(286,298,o),
(225,298,cs),
(84,298,o),
(10,250,o),
(10,137,cs),
(10,50,o),
(60,-16,o),
(197,-16,cs),
(312,-16,o),
(371,52,o),
(371,132,c),
(359,215,l),
(359,183,o),
(333,173,o),
(243,173,cs),
(142,173,o),
(119,183,o),
(119,202,cs),
(119,222,o),
(143,230,o),
(243,230,cs),
(296,230,o),
(343,222,o),
(361,214,c)
);
}
);
width = 494;
}
);
unicode = 97;
},
{
glyphname = ae;
lastChange = "2024-08-28 15:32:07 +0000";
layers = (
{
anchors = (
{
name = top;
pos = (442,548);
}
);
background = {
anchors = (
{
name = ogonek;
pos = (445,0);
},
{
name = top;
pos = (254,548);
}
);
shapes = (
{
closed = 1;
nodes = (
(457,179,l),
(457,371,ls),
(457,504,o),
(391,556,o),
(275,556,cs),
(187,556,o),
(114,527,o),
(78,464,c),
(92,427,l),
(121,463,o),
(185,498,o),
(267,498,cs),
(378,498,o),
(427,457,o),
(427,356,cs),
(427,162,l)
);
},
{
closed = 1;
nodes = (
(442,253,l),
(402,288,o),
(332,304,o),
(260,304,cs),
(125,304,o),
(48,245,o),
(48,151,cs),
(48,53,o),
(107,-8,o),
(243,-8,cs),
(329,-8,o),
(431,42,o),
(434,126,c),
(427,177,l),
(426,96,o),
(340,46,o),
(247,46,cs),
(132,46,o),
(78,90,o),
(78,154,cs),
(78,223,o),
(139,270,o),
(257,270,cs),
(329,270,o),
(395,258,o),
(432,222,c)
);
}
);
};
layerId = "79167EE4-8C29-4BCE-A9E7-C1CFC4557E33";
shapes = (
{
closed = 1;
nodes = (
(457,179,l),
(457,371,ls),
(457,504,o),
(391,556,o),
(275,556,cs),
(187,556,o),
(114,527,o),
(78,464,c),
(92,427,l),
(121,463,o),
(185,498,o),
(267,498,cs),
(378,498,o),
(427,457,o),
(427,356,cs),
(427,162,l)
);
},
{
closed = 1;
nodes = (
(344,-8,o),
(431,42,o),
(449,165,c),
(427,187,l),
(426,94,o),
(340,46,o),
(247,46,cs),
(132,46,o),
(78,90,o),
(78,154,cs),
(78,223,o),
(131,270,o),
(249,270,cs),
(432,270,l),
(442,304,l),
(254,304,ls),
(117,304,o),
(48,245,o),
(48,151,cs),
(48,53,o),
(107,-8,o),
(243,-8,cs)
);
},
{
alignment = -1;
pos = (385,0);
ref = e;
}
);
width = 921;
},
{
anchors = (
{
name = top;
pos = (439,564);
}
);
layerId = "41EDA971-A137-4972-81AF-7929AB7CAABF";
shapes = (
{
closed = 1;
nodes = (
(453,182,l),
(453,383,ls),
(453,513,o),
(386,580,o),
(253,580,cs),
(123,580,o),
(66,531,o),
(33,471,c),
(75,300,l),
(112,328,o),
(159,342,o),
(238,342,cs),
(334,342,o),
(361,325,o),
(361,281,cs),
(361,138,l)
);
},
{
closed = 1;
nodes = (
(314,-16,o),
(373,32,o),
(393,132,c),
(361,215,l),
(361,183,o),
(335,173,o),
(247,173,cs),
(145,173,o),
(121,183,o),
(121,202,cs),
(121,222,o),
(142,230,o),
(207,230,cs),
(373,230,l),
(373,297,l),
(217,297,ls),
(86,297,o),
(12,249,o),
(12,135,cs),
(12,50,o),
(62,-16,o),
(199,-16,cs)
);
},
{
alignment = -1;
pos = (340,0);
ref = e;
}
);
width = 859;
},
{
anchors = (
{
name = top;
pos = (442,563);
}
);
associatedMasterId = "41EDA971-A137-4972-81AF-7929AB7CAABF";
layerId = "D78A08BF-4E15-4DF3-956C-D9732552B6FD";
name = "25 juin 24 à 17:10";
shapes = (
{
closed = 1;
nodes = (
(455,342,l),
(455,384,ls),
(455,515,o),
(393,583,o),
(274,583,cs),
(132,583,o),
(74,533,o),
(48,471,c),
(96,285,l),
(130,316,o),
(173,335,o),
(245,335,cs),
(325,335,o),
(359,314,o),
(359,272,cs),
(359,243,l)
);
},
{
closed = 1;
nodes = (
(318,-18,o),
(399,21,o),
(435,197,c),
(359,202,l),
(359,177,o),
(308,180,o),
(248,180,cs),
(153,180,o),
(126,193,o),
(126,206,cs),
(126,215,o),
(150,224,o),
(242,224,cs),
(331,224,o),
(373,207,o),
(394,165,c),
(402,219,l),
(388,265,o),
(341,301,o),
(226,301,cs),
(92,301,o),
(10,245,o),
(10,144,cs),
(10,50,o),
(58,-18,o),
(212,-18,cs)
);
},
{
alignment = -1;
pos = (343,0);
ref = e;
}
);
width = 861;
},
{
anchors = (
{
name = top;
pos = (442,563);
}
);
associatedMasterId = "41EDA971-A137-4972-81AF-7929AB7CAABF";
layerId = "ED628B7D-AC7F-4C84-A931-75E763243534";
name = "25 juin 24 à 17:10";
shapes = (
{
closed = 1;
nodes = (
(455,342,l),
(455,384,ls),
(455,515,o),
(393,583,o),
(274,583,cs),
(132,583,o),
(74,533,o),
(48,471,c),
(96,285,l),
(130,316,o),
(173,335,o),
(245,335,cs),
(325,335,o),
(359,314,o),
(359,272,cs),
(359,243,l)
);
},
{
closed = 1;
nodes = (
(318,-18,o),
(399,21,o),
(435,197,c),
(359,202,l),
(359,177,o),
(308,180,o),
(248,180,cs),
(153,180,o),
(126,193,o),
(126,206,cs),
(126,215,o),
(150,224,o),
(242,224,cs),
(331,224,o),
(373,207,o),
(394,165,c),
(402,219,l),
(388,265,o),
(341,301,o),
(226,301,cs),
(92,301,o),
(10,245,o),
(10,144,cs),
(10,50,o),
(58,-18,o),
(212,-18,cs)
);
},
{
alignment = -1;
pos = (343,0);
ref = e;
}
);
width = 861;
},
{
anchors = (
{
name = top;
pos = (442,548);
}
);
associatedMasterId = "79167EE4-8C29-4BCE-A9E7-C1CFC4557E33";
background = {
anchors = (
{
name = ogonek;
pos = (445,0);
},
{
name = top;
pos = (254,548);
}
);
shapes = (
{
closed = 1;
nodes = (
(457,179,l),
(457,371,ls),
(457,504,o),
(391,556,o),
(275,556,cs),
(187,556,o),
(114,527,o),
(78,464,c),
(92,427,l),
(121,463,o),
(185,498,o),
(267,498,cs),
(378,498,o),
(427,457,o),
(427,356,cs),
(427,162,l)
);
},
{
closed = 1;
nodes = (
(442,253,l),
(402,288,o),
(332,304,o),
(260,304,cs),
(125,304,o),
(48,245,o),
(48,151,cs),
(48,53,o),
(107,-8,o),
(243,-8,cs),
(329,-8,o),
(431,42,o),
(434,126,c),
(427,177,l),
(426,96,o),
(340,46,o),
(247,46,cs),
(132,46,o),
(78,90,o),
(78,154,cs),
(78,223,o),
(139,270,o),
(257,270,cs),
(329,270,o),
(395,258,o),
(432,222,c)
);
}
);
};
layerId = "CC9DA1C3-E408-444D-A0D1-524A38FE5BE6";
name = "28 août 24 à 13:48";
shapes = (
{
closed = 1;
nodes = (
(457,179,l),
(457,371,ls),
(457,504,o),
(391,556,o),
(275,556,cs),
(187,556,o),
(114,527,o),
(78,464,c),
(92,427,l),
(121,463,o),
(185,498,o),
(267,498,cs),
(378,498,o),
(427,457,o),
(427,356,cs),
(427,162,l)
);
},
{
closed = 1;
nodes = (
(344,-8,o),
(431,42,o),
(449,165,c),
(427,177,l),
(426,96,o),
(340,46,o),
(247,46,cs),
(132,46,o),
(78,90,o),
(78,154,cs),
(78,223,o),
(139,270,o),
(257,270,cs),
(432,270,l),
(442,304,l),
(260,304,ls),
(125,304,o),
(48,245,o),
(48,151,cs),
(48,53,o),
(107,-8,o),
(243,-8,cs)
);
},
{
alignment = -1;
pos = (381,0);
ref = e;
}
);
width = 917;
}
);
metricLeft = "=a";
metricRight = "=e";
unicode = 230;
},
{
glyphname = b;
lastChange = "2024-08-28 15:49:51 +0000";
layers = (
{
layerId = "41EDA971-A137-4972-81AF-7929AB7CAABF";
name = Extralight;
shapes = (
{
closed = 1;
nodes = (
(447,-16,o),
(550,64,o),
(550,278,cs),
(550,492,o),
(450,572,o),
(320,572,cs),
(208,572,o),
(121,523,o),
(121,366,cs),
(121,190,ls),
(121,33,o),
(206,-16,o),
(315,-16,cs)
);
},
{
closed = 1;
nodes = (
(144,0,l),
(144,99,l),
(136,122,l),
(136,387,l),
(144,410,l),
(144,772,l),
(52,772,l),
(52,0,l)
);
},
{
closed = 1;
nodes = (
(180,182,o),
(136,203,o),
(136,246,cs),
(136,290,o),
(179,309,o),
(302,309,cs),
(423,309,o),
(471,290,o),
(471,246,cs),
(471,203,o),
(423,182,o),
(302,182,cs)
);
}
);
width = 572;
},
{
layerId = "79167EE4-8C29-4BCE-A9E7-C1CFC4557E33";
name = Extralight;
shapes = (
{
closed = 1;
nodes = (
(444,-8,o),
(532,97,o),
(532,274,cs),
(532,451,o),
(442,556,o),
(307,556,cs),
(171,556,o),
(80,452,o),
(80,290,cs),
(80,257,ls),
(80,95,o),
(174,-8,o),
(312,-8,cs)
);
},
{
closed = 1;
nodes = (
(102,0,l),
(102,147,l),
(101,188,l),
(101,366,l),
(102,395,l),
(102,772,l),
(72,772,l),
(72,0,l)
);
},
{
closed = 1;
nodes = (
(176,46,o),
(101,133,o),
(101,271,cs),
(101,409,o),
(176,498,o),
(302,498,cs),
(428,498,o),
(502,410,o),
(502,271,cs),
(502,132,o),
(428,46,o),
(302,46,cs)
);
}
);
width = 574;
},
{
associatedMasterId = "41EDA971-A137-4972-81AF-7929AB7CAABF";
layerId = "81B8A110-43C9-4C26-9961-A8AADBF4799E";
name = "9 avr. 24 à 10:28";
shapes = (
{
closed = 1;
nodes = (
(451,-18,o),
(555,72,o),
(552,300,cs),
(551,507,o),
(448,581,o),
(339,581,cs),
(223,582,o),
(135,524,o),
(117,371,c),
(114,190,l),
(126,42,o),
(205,-18,o),
(330,-18,cs)
);
},
{
closed = 1;
nodes = (
(146,0,l),
(146,59,l),
(137,137,l),
(137,335,l),
(146,422,l),
(146,787,l),
(50,787,l),
(50,0,l)
);
},
{
closed = 1;
nodes = (
(214,180,o),
(138,199,o),
(137,247,cs),
(136,295,o),
(213,317,o),
(305,317,cs),
(404,317,o),
(470,298,o),
(471,246,cs),
(473,195,o),
(406,180,o),
(308,180,cs)
);
}
);
width = 571;
},
{
associatedMasterId = "79167EE4-8C29-4BCE-A9E7-C1CFC4557E33";
layerId = "2F900E39-44E4-4962-9216-4A7F14E2B2EC";
name = "10 avr. 24 à 11:32";
shapes = (
{
closed = 1;
nodes = (
(417,-8,o),
(517,68,o),
(521,266,cs),
(525,450,o),
(448,556,o),
(312,556,cs),
(196,556,o),
(137,496,o),
(101,414,c),
(95,152,l),
(124,49,o),
(195,-8,o),
(292,-8,cs)
);
},
{
closed = 1;
nodes = (
(101,0,l),
(101,153,l),
(100,182,l),
(100,364,l),
(101,405,l),
(101,772,l),
(71,772,l),
(71,0,l)
);
},
{
closed = 1;
nodes = (
(163,46,o),
(102,136,o),
(100,274,cs),
(98,419,o),
(164,498,o),
(296,498,cs),
(428,498,o),
(493,419,o),
(491,274,cs),
(489,135,o),
(429,46,o),
(296,46,cs)
);
}
);
width = 567;
},
{
associatedMasterId = "79167EE4-8C29-4BCE-A9E7-C1CFC4557E33";
layerId = "865916C0-842D-4718-B7C0-19FC96799764";
name = "24 juin 24 à 16:17";
shapes = (
{
closed = 1;
nodes = (
(435,-8,o),
(521,97,o),
(521,274,cs),
(521,451,o),
(433,556,o),
(301,556,cs),
(168,556,o),
(79,452,o),
(79,290,cs),
(79,257,ls),
(79,95,o),
(171,-8,o),
(306,-8,cs)
);
},
{
closed = 1;
nodes = (
(101,0,l),
(101,147,l),
(100,188,l),
(100,366,l),
(101,395,l),
(101,772,l),
(71,772,l),
(71,0,l)
);
},
{
closed = 1;
nodes = (
(173,50,o),
(100,137,o),
(100,275,cs),
(100,413,o),
(173,502,o),
(296,502,cs),
(419,502,o),
(491,414,o),
(491,275,cs),
(491,136,o),
(419,50,o),
(296,50,cs)
);
}
);
width = 567;
},
{
associatedMasterId = "79167EE4-8C29-4BCE-A9E7-C1CFC4557E33";
layerId = "6AAD4855-F1E9-4E11-831B-1EEF2056449A";
name = "27 juin 24 à 17:09";
shapes = (
{
closed = 1;
nodes = (
(436,-8,o),
(522,97,o),
(522,274,cs),
(522,451,o),
(434,556,o),
(302,556,cs),
(169,556,o),
(80,452,o),
(80,290,cs),
(80,257,ls),
(80,95,o),
(172,-8,o),
(307,-8,cs)
);
},
{
closed = 1;
nodes = (
(102,0,l),
(102,147,l),
(101,188,l),
(101,366,l),
(102,395,l),
(102,772,l),
(72,772,l),
(72,0,l)
);
},
{
closed = 1;
nodes = (
(174,46,o),
(101,133,o),
(101,271,cs),
(101,409,o),
(174,498,o),
(297,498,cs),
(420,498,o),
(492,410,o),
(492,271,cs),
(492,132,o),
(420,46,o),
(297,46,cs)
);
}
);
width = 564;
}
);
metricLeft = "=n";
metricRight = "=o";
unicode = 98;
},
{
glyphname = c;
lastChange = "2024-08-28 15:49:59 +0000";
layers = (
{
anchors = (
{
name = bottom;
pos = (287,0);
},
{
name = top;
pos = (298,548);
}
);
background = {
shapes = (
{
closed = 1;
nodes = (
(392,-9,o),
(454,37,o),
(479,84,c),
(467,119,l),
(433,75,o),
(364,44,o),
(298,46,cs),
(157,47,o),
(72,123,o),
(72,275,cs),
(72,417,o),
(156,498,o),
(298,498,cs),
(364,498,o),
(431,469,o),
(465,424,c),
(478,464,l),
(453,512,o),
(393,556,o),
(298,556,cs),
(144,556,o),
(42,457,o),
(42,270,cs),
(42,108,o),
(121,-9,o),
(297,-9,cs)
);
}
);
};
layerId = "79167EE4-8C29-4BCE-A9E7-C1CFC4557E33";
shapes = (
{
closed = 1;
nodes = (
(393,-8,o),
(454,38,o),
(479,84,c),
(467,119,l),
(433,75,o),
(364,44,o),
(298,46,cs),
(157,47,o),
(72,123,o),
(72,275,cs),
(72,417,o),
(156,498,o),
(298,498,cs),
(364,498,o),
(431,469,o),
(465,424,c),
(478,464,l),
(453,512,o),
(393,556,o),
(298,556,cs),
(144,556,o),
(42,457,o),
(42,270,cs),
(42,109,o),
(120,-8,o),
(292,-8,cs)
);
}
);
width = 515;
},
{
anchors = (
{
name = bottom;
pos = (284,0);
},
{
name = top;
pos = (283,556);
}
);
background = {
anchors = (
{
name = top;
pos = (267,563);
}
);
};
layerId = "41EDA971-A137-4972-81AF-7929AB7CAABF";
shapes = (
{
closed = 1;
nodes = (
(384,-16,o),
(456,23,o),
(493,86,c),
(447,222,l),
(411,198,o),
(355,182,o),
(271,182,cs),
(149,182,o),
(101,203,o),
(101,246,cs),
(101,290,o),
(151,308,o),
(264,308,cs),
(359,308,o),
(408,295,o),
(447,268,c),
(495,464,l),
(462,525,o),
(391,572,o),
(285,572,cs),
(136,572,o),
(22,490,o),
(22,268,cs),
(22,52,o),
(131,-16,o),
(272,-16,cs)
);
}
);
width = 508;
},
{
anchors = (
{
name = bottom;
pos = (285,0);
},
{
name = top;
pos = (282,565);
}
);
associatedMasterId = "41EDA971-A137-4972-81AF-7929AB7CAABF";
layerId = "2A4CE7A6-5DC2-4208-B6C7-4E684BCA7EDF";
name = "9 avr. 24 à 10:30";
shapes = (
{
closed = 1;
nodes = (
(371,-18,o),
(444,27,o),
(482,99,c),
(436,236,l),
(401,203,o),
(349,180,o),
(256,180,cs),
(143,181,o),
(102,213,o),
(102,248,cs),
(102,296,o),
(167,317,o),
(277,317,cs),
(345,317,o),
(389,303,o),
(424,274,c),
(472,471,l),
(440,533,o),
(377,581,o),
(274,581,cs),
(142,581,o),
(21,524,o),
(21,262,cs),
(21,35,o),
(131,-18,o),
(257,-18,cs)
);
}
);
width = 494;
},
{
anchors = (
{
name = bottom;
pos = (285,0);
},
{
name = top;
pos = (282,564);
}
);
associatedMasterId = "41EDA971-A137-4972-81AF-7929AB7CAABF";
background = {
anchors = (
{
name = top;
pos = (266,563);
}
);
};
layerId = "EE39FDD4-28AB-43F9-8A7A-E6095CB13E05";
name = "9 avr. 24 à 11:23";
shapes = (
{
closed = 1;
nodes = (
(378,-16,o),
(448,24,o),
(485,87,c),
(439,224,l),
(403,199,o),
(350,182,o),
(267,182,cs),
(148,182,o),
(102,205,o),
(102,250,cs),
(102,296,o),
(149,316,o),
(267,316,cs),
(349,316,o),
(395,302,o),
(432,274,c),
(480,471,l),
(448,532,o),
(380,580,o),
(277,580,cs),
(132,580,o),
(21,497,o),
(21,272,cs),
(21,53,o),
(128,-16,o),
(267,-16,cs)
);
}
);
width = 497;
},
{
anchors = (
{
name = bottom;
pos = (291,0);
},
{
name = top;
pos = (302,548);
}
);
associatedMasterId = "79167EE4-8C29-4BCE-A9E7-C1CFC4557E33";
layerId = "A977712D-6114-4C84-B5A2-5EC98B586BF6";
name = "10 avr. 24 à 14:48";
shapes = (
{
closed = 1;
nodes = (
(385,-8,o),
(453,34,o),
(480,85,c),
(465,125,l),
(436,78,o),
(364,45,o),
(299,46,cs),
(160,48,o),
(76,123,o),
(76,275,cs),
(76,418,o),
(159,498,o),
(307,498,cs),
(389,498,o),
(444,465,o),
(466,429,c),
(482,469,l),
(446,531,o),
(386,556,o),
(312,556,cs),
(146,556,o),
(46,458,o),
(46,271,cs),
(46,123,o),
(119,-8,o),
(295,-8,cs)
);
}
);
width = 519;
},
{
anchors = (
{
name = bottom;
pos = (291,0);
},
{
name = top;
pos = (302,548);
}
);
associatedMasterId = "79167EE4-8C29-4BCE-A9E7-C1CFC4557E33";
layerId = "8C377288-0388-44ED-B4D0-CF6583F2FFDF";
name = "24 juin 24 à 15:36";
shapes = (
{
closed = 1;
nodes = (
(393,-8,o),
(457,35,o),
(483,82,c),
(470,117,l),
(435,74,o),
(366,45,o),
(299,46,cs),
(160,48,o),
(76,123,o),
(76,275,cs),
(76,417,o),
(159,498,o),
(298,498,cs),
(365,499,o),
(433,470,o),
(468,427,c),
(483,466,l),
(457,513,o),
(397,556,o),
(303,556,cs),
(149,556,o),
(46,458,o),
(46,271,cs),
(46,108,o),
(123,-8,o),
(294,-8,cs)
);
}
);
width = 519;
}
);
metricLeft = "=o";
unicode = 99;
},
{
glyphname = d;
lastChange = "2024-08-28 15:50:15 +0000";
layers = (
{
anchors = (
{
name = caroncomb.alt;
pos = (502,772);
}
);
layerId = "79167EE4-8C29-4BCE-A9E7-C1CFC4557E33";
shapes = (
{
closed = 1;
nodes = (
(403,-8,o),
(494,95,o),
(494,257,cs),
(494,290,ls),
(494,452,o),
(405,556,o),
(272,556,cs),
(134,556,o),
(42,451,o),
(42,274,cs),
(42,97,o),
(133,-8,o),
(270,-8,cs)
);
},
{
closed = 1;
nodes = (
(148,46,o),
(72,132,o),
(72,271,cs),
(72,410,o),
(144,498,o),
(272,498,cs),
(400,498,o),
(473,409,o),
(473,271,cs),
(473,133,o),
(396,46,o),
(272,46,cs)
);
},
{
closed = 1;
nodes = (
(502,0,l),
(502,772,l),
(472,772,l),
(472,395,l),
(473,366,l),
(473,188,l),
(472,147,l),
(472,0,l)
);
}
);
width = 574;
},
{
anchors = (
{
name = caroncomb.alt;
pos = (520,772);
}
);
background = {
anchors = (
{
name = top;
pos = (267,563);
}
);
shapes = (
{
closed = 1;
nodes = (
(451,370,ls),
(451,530,o),
(357,580,o),
(237,580,cs),
(115,580,o),
(22,509,o),
(22,282,cs),
(22,55,o),
(116,-16,o),
(237,-16,cs),
(357,-16,o),
(451,34,o),
(451,194,cs)
);
}
);
};
layerId = "41EDA971-A137-4972-81AF-7929AB7CAABF";
shapes = (
{
closed = 1;
nodes = (
(366,-16,o),
(451,33,o),
(451,190,cs),
(451,366,ls),
(451,523,o),
(368,572,o),
(262,572,cs),
(126,572,o),
(22,490,o),
(22,268,cs),
(22,62,o),
(125,-16,o),
(257,-16,cs)
);
},
{
closed = 1;
nodes = (
(149,182,o),
(101,203,o),
(101,246,cs),
(101,290,o),
(149,309,o),
(270,309,cs),
(393,309,o),
(436,290,o),
(436,246,cs),
(436,203,o),
(392,182,o),
(270,182,cs)
);
},
{
closed = 1;
nodes = (
(520,0,l),
(520,772,l),
(428,772,l),
(428,410,l),
(436,387,l),
(436,122,l),
(428,99,l),
(428,0,l)
);
}
);
width = 572;
},
{
associatedMasterId = "41EDA971-A137-4972-81AF-7929AB7CAABF";
background = {
anchors = (
{
name = top;
pos = (266,563);
}
);
shapes = (
{
closed = 1;
nodes = (
(404,-16,o),
(512,55,o),
(512,282,cs),
(512,509,o),
(404,580,o),
(267,580,cs),
(128,580,o),
(21,509,o),
(21,282,cs),
(21,55,o),
(128,-16,o),
(267,-16,cs)
);
},
{
closed = 1;
nodes = (
(149,182,o),
(102,205,o),
(102,250,cs),
(102,296,o),
(150,316,o),
(270,316,cs),
(392,316,o),
(435,296,o),
(435,250,cs),
(435,205,o),
(392,182,o),
(270,182,cs)
);
}
);
};
layerId = "5E4B9B4D-424E-4327-B105-71805052C135";
name = "9 avr. 24 à 10:25";
shapes = (
{
closed = 1;
nodes = (
(357,-16,o),
(444,40,o),
(460,195,c),
(456,376,l),
(440,519,o),
(360,581,o),
(250,580,cs),
(113,580,o),
(21,509,o),
(21,282,cs),
(21,55,o),
(131,-16,o),
(259,-16,cs)
);
},
{
closed = 1;
nodes = (
(149,182,o),
(102,205,o),
(102,250,cs),
(102,296,o),
(150,316,o),
(270,316,cs),
(392,316,o),
(435,296,o),
(435,250,cs),
(435,205,o),
(392,182,o),
(270,182,cs)
);
},
{
closed = 1;
nodes = (
(523,0,l),
(523,772,l),
(427,772,l),
(427,416,l),
(435,392,l),
(435,125,l),
(427,101,l),
(427,0,l)
);
}
);
width = 574;
},
{
associatedMasterId = "41EDA971-A137-4972-81AF-7929AB7CAABF";
background = {
anchors = (
{
name = top;
pos = (266,563);
}
);
shapes = (
{
closed = 1;
nodes = (
(450,370,ls),
(450,530,o),
(356,580,o),
(236,580,cs),
(114,580,o),
(21,509,o),
(21,282,cs),
(21,55,o),
(115,-16,o),
(236,-16,cs),
(356,-16,o),
(450,34,o),
(450,194,cs)
);
}
);
};
layerId = "CCC836A6-8880-4317-9B00-430E9E830FB5";
name = "9 avr. 24 à 10:28";
shapes = (
{
closed = 1;
nodes = (
(149,182,o),
(102,205,o),
(102,250,cs),
(102,296,o),
(150,316,o),
(270,316,cs),
(392,316,o),
(435,296,o),
(435,250,cs),
(435,205,o),
(392,182,o),
(270,182,cs)
);
},
{
closed = 1;
nodes = (
(523,0,l),
(523,772,l),
(427,772,l),
(427,416,l),
(435,392,l),
(435,125,l),
(427,101,l),
(427,0,l)
);
},
{
closed = 1;
nodes = (
(450,370,ls),
(450,530,o),
(365,580,o),
(256,580,cs),
(123,580,o),
(21,509,o),
(21,282,cs),
(21,55,o),
(124,-16,o),
(256,-16,cs),
(365,-16,o),
(450,34,o),
(450,194,cs)
);
}
);
width = 574;
}
);
metricLeft = "=o";
metricRight = "=|n";
unicode = 100;
},
{
glyphname = dcaron;
lastChange = "2024-07-01 13:57:52 +0000";
layers = (
{
layerId = "41EDA971-A137-4972-81AF-7929AB7CAABF";
shapes = (
{
ref = d;
},
{
pos = (520,0);
ref = caroncomb.alt;
}
);
width = 572;
},
{
associatedMasterId = "79167EE4-8C29-4BCE-A9E7-C1CFC4557E33";
layerId = "DCB37BA1-AE64-4D82-96CC-B22808FF9744";
name = "27 juin 24 à 14:45";
shapes = (
{
closed = 1;
nodes = (
(584,524,l),
(693,780,l),
(639,780,l),
(569,524,l)
);
},
{
alignment = -1;
ref = d;
}
);
width = 627;
},
{
associatedMasterId = "79167EE4-8C29-4BCE-A9E7-C1CFC4557E33";
background = {
shapes = (
{
closed = 1;
nodes = (
(583,524,l),
(607,663,o),
(613,707,o),
(613,731,cs),
(614,748,o),
(612,762,o),
(609,772,c),
(563,772,l),
(568,715,o),
(568,659,o),
(559,524,c)
);
}
);
};
layerId = "BEB8CEAD-9BC5-40F1-9DC3-DBEEF8238EE1";
name = "27 juin 24 à 14:49";
shapes = (
{
alignment = -1;
ref = d;
},
{
closed = 1;
nodes = (
(583,524,l),
(613,672,o),
(619,737,o),
(609,772,c),
(561,772,l),
(561,524,l)
);
}
);
width = 627;
},
{
background = {
shapes = (
{
closed = 0;
nodes = (
(566,731,ls),
(567,748,o),
(565,762,o),
(562,772,c)
);
}
);
};
layerId = "79167EE4-8C29-4BCE-A9E7-C1CFC4557E33";
name = Extralight;
shapes = (
{
ref = d;
},
{
pos = (502,0);
ref = caroncomb.alt;
}
);
width = 574;
},
{
associatedMasterId = "79167EE4-8C29-4BCE-A9E7-C1CFC4557E33";
background = {
shapes = (
{
closed = 0;
nodes = (
(566,731,ls),
(567,748,o),
(565,762,o),
(562,772,c)
);
}
);
};
layerId = "599D1D56-D722-40ED-94A0-5DFA0E48E02F";
name = "27 juin 24 à 16:31";
shapes = (
{
alignment = -1;
ref = d;
},
{
closed = 1;
nodes = (
(583,524,l),
(606,663,o),
(612,707,o),
(612,731,cs),
(613,748,o),
(611,762,o),
(608,772,c),
(561,772,l),
(561,524,l)
);
}
);
width = 627;
},
{
associatedMasterId = "79167EE4-8C29-4BCE-A9E7-C1CFC4557E33";
background = {
shapes = (
{
closed = 0;
nodes = (
(566,731,ls),
(567,748,o),
(565,762,o),
(562,772,c)
);
}
);
};
layerId = "8DB5D410-DA3D-4904-A8A5-5089B4367431";
name = "27 juin 24 à 16:36";
shapes = (
{
alignment = -1;
ref = d;
},
{
closed = 1;
nodes = (
(583,524,l),
(606,663,o),
(612,707,o),
(612,731,cs),
(613,748,o),
(611,762,o),
(608,772,c),
(561,772,l),
(561,524,l)
);
}
);
width = 627;
}
);
unicode = 271;
},
{
glyphname = dcroat;
lastChange = "2024-08-28 13:43:58 +0000";
layers = (
{
layerId = "79167EE4-8C29-4BCE-A9E7-C1CFC4557E33";
shapes = (
{
closed = 1;
nodes = (
(592,630,l),
(592,680,l),
(270,680,l),
(270,630,l)
);
},
{
alignment = -1;
ref = d;
}
);
width = 586;
},
{
layerId = "41EDA971-A137-4972-81AF-7929AB7CAABF";
shapes = (
{
closed = 1;
nodes = (
(601,604,l),
(601,736,l),
(223,736,l),
(223,604,l)
);
},
{
alignment = -1;
ref = d;
}
);
width = 574;
}
);
metricLeft = "=d";
unicode = 273;
},
{
glyphname = eth;
lastChange = "2024-08-28 13:43:58 +0000";
layers = (
{
background = {
shapes = (
{
closed = 1;
nodes = (
(534,396,l),
(534,639,o),
(437,780,o),
(251,780,cs),
(170,780,o),
(110,747,o),
(81,711,c),
(97,665,l),
(129,698,o),
(193,723,o),
(252,722,cs),
(421,722,o),
(498,622,o),
(498,385,c)
);
}
);
};
layerId = "79167EE4-8C29-4BCE-A9E7-C1CFC4557E33";
shapes = (
{
closed = 1;
nodes = (
(435,-8,o),
(534,95,o),
(534,377,cs),
(534,609,o),
(464,780,o),
(256,780,cs),
(181,780,o),
(113,750,o),
(81,711,c),
(97,665,l),
(122,692,o),
(185,722,o),
(255,722,cs),
(432,722,o),
(499,616,o),
(498,356,c),
(505,351,l),
(463,449,o),
(386,498,o),
(281,498,cs),
(137,498,o),
(42,404,o),
(42,245,cs),
(42,86,o),
(137,-8,o),
(281,-8,cs)
);
},
{
closed = 1;
nodes = (
(150,46,o),
(72,128,o),
(72,256,cs),
(72,379,o),
(150,456,o),
(281,456,cs),
(410,456,o),
(487,380,o),
(487,256,cs),
(487,134,o),
(409,46,o),
(281,46,cs)
);
},
{
closed = 1;
nodes = (
(542,744,l),
(513,780,l),
(288,583,l),
(318,548,l)
);
}
);
width = 585;
},
{
background = {
shapes = (
{
closed = 1;
nodes = (
(537,375,l),
(537,649,o),
(432,788,o),
(255,788,cs),
(157,788,o),
(80,754,o),
(31,699,c),
(79,503,l),
(120,527,o),
(178,540,o),
(236,540,cs),
(385,540,o),
(456,497,o),
(458,372,c)
);
}
);
};
layerId = "41EDA971-A137-4972-81AF-7929AB7CAABF";
shapes = (
{
closed = 1;
nodes = (
(442,-16,o),
(539,73,o),
(539,346,cs),
(539,626,o),
(450,788,o),
(255,788,cs),
(176,788,o),
(90,759,o),
(31,700,c),
(79,503,l),
(125,530,o),
(185,540,o),
(242,540,cs),
(404,540,o),
(460,494,o),
(459,339,c),
(491,333,l),
(444,382,o),
(380,408,o),
(285,408,cs),
(107,408,o),
(22,336,o),
(22,198,cs),
(22,50,o),
(119,-16,o),
(271,-16,cs)
);
},
{
closed = 1;
nodes = (
(143,182,o),
(101,208,o),
(101,256,cs),
(101,297,o),
(143,330,o),
(280,330,cs),
(408,330,o),
(460,295,o),
(460,256,cs),
(460,208,o),
(418,182,o),
(280,182,cs)
);
},
{
closed = 1;
nodes = (
(594,702,l),
(494,788,l),
(251,502,l),
(351,416,l)
);
}
);
width = 562;
},
{
associatedMasterId = "79167EE4-8C29-4BCE-A9E7-C1CFC4557E33";
layerId = "F118C2F2-DC11-466A-83B9-6EB11C5B19E9";
name = "8 août 24 à 20:57";
shapes = (
{
closed = 1;
nodes = (
(430,-8,o),
(534,105,o),
(534,377,cs),
(534,609,o),
(457,780,o),
(241,780,cs),
(178,780,o),
(126,764,o),
(99,743,c),
(113,697,l),
(134,709,o),
(185,722,o),
(239,722,cs),
(427,722,o),
(499,616,o),
(498,366,c),
(503,371,l),
(463,468,o),
(388,521,o),
(285,521,cs),
(147,521,o),
(42,433,o),
(42,260,cs),
(42,86,o),
(142,-8,o),
(283,-8,cs)
);
},
{
closed = 1;
nodes = (
(158,46,o),
(72,119,o),
(72,255,cs),
(72,388,o),
(158,463,o),
(277,463,cs),
(403,463,o),
(489,388,o),
(489,265,cs),
(489,125,o),
(407,46,o),
(281,46,cs)
);
},
{
closed = 1;
nodes = (
(347,575,l),
(582,772,l),
(504,772,l),
(270,575,l)
);
}
);
width = 585;
},
{
associatedMasterId = "41EDA971-A137-4972-81AF-7929AB7CAABF";
layerId = "AFA60490-479D-416D-8003-860732F5A754";
name = "28 août 24 à 14:40";
shapes = (
{
closed = 1;
nodes = (
(440,-16,o),
(537,73,o),
(537,346,cs),
(537,626,o),
(424,788,o),
(224,788,cs),
(145,788,o),
(85,770,o),
(39,734,c),
(87,535,l),
(128,548,o),
(174,555,o),
(220,555,cs),
(388,555,o),
(455,503,o),
(458,329,c),
(484,298,l),
(446,403,o),
(379,445,o),
(264,445,cs),
(109,445,o),
(20,371,o),
(20,215,cs),
(20,53,o),
(122,-16,o),
(269,-16,cs)
);
},
{
closed = 1;
nodes = (
(149,182,o),
(98,197,o),
(98,227,cs),
(98,257,o),
(149,273,o),
(278,273,cs),
(406,273,o),
(458,257,o),
(458,227,cs),
(458,197,o),
(406,182,o),
(278,182,cs)
);
},
{
closed = 1;
nodes = (
(346,463,l),
(596,772,l),
(437,772,l),
(187,463,l)
);
}
);
width = 560;
},
{
associatedMasterId = "79167EE4-8C29-4BCE-A9E7-C1CFC4557E33";
layerId = "350507A1-B8B1-43D5-A496-5FD96E3C2416";
name = "28 août 24 à 14:42";
shapes = (
{
closed = 1;
nodes = (
(430,-8,o),
(534,105,o),
(534,377,cs),
(534,609,o),
(457,780,o),
(241,780,cs),
(178,780,o),
(126,764,o),
(99,743,c),
(113,697,l),
(134,709,o),
(185,722,o),
(239,722,cs),
(427,722,o),
(499,616,o),
(498,366,c),
(503,371,l),
(463,468,o),
(388,521,o),
(285,521,cs),
(147,521,o),
(42,433,o),
(42,260,cs),
(42,86,o),
(142,-8,o),
(283,-8,cs)
);
},
{
closed = 1;
nodes = (
(158,46,o),
(72,119,o),
(72,255,cs),
(72,388,o),
(158,463,o),
(277,463,cs),
(403,463,o),
(489,388,o),
(489,265,cs),
(489,125,o),
(407,46,o),
(281,46,cs)
);
},
{
closed = 1;
nodes = (
(318,548,l),
(542,744,l),
(513,780,l),
(288,583,l)
);
}
);
width = 585;
},
{
associatedMasterId = "79167EE4-8C29-4BCE-A9E7-C1CFC4557E33";
background = {
shapes = (
{
closed = 1;
nodes = (
(424,-8,o),
(519,86,o),
(519,245,cs),
(519,404,o),
(424,498,o),
(281,498,cs),
(137,498,o),
(42,404,o),
(42,245,cs),
(42,86,o),
(137,-8,o),
(281,-8,cs)
);
},
{
closed = 1;
nodes = (
(150,46,o),
(72,128,o),
(72,256,cs),
(72,384,o),
(150,464,o),
(281,464,cs),
(411,464,o),
(489,385,o),
(489,256,cs),
(489,127,o),
(411,46,o),
(281,46,cs)
);
}
);
};
layerId = "B593EE73-2D77-44C3-A6AE-EBD6999149FD";
name = "28 août 24 à 14:45";
shapes = (
{
closed = 1;
nodes = (
(430,-8,o),
(534,95,o),
(534,377,cs),
(534,609,o),
(457,780,o),
(241,780,cs),
(178,780,o),
(126,764,o),
(99,743,c),
(113,697,l),
(134,709,o),
(185,722,o),
(239,722,cs),
(427,722,o),
(499,616,o),
(498,356,c),
(506,353,l),
(464,450,o),
(388,498,o),
(285,498,cs),
(147,498,o),
(42,404,o),
(42,248,cs),
(42,75,o),
(142,-8,o),
(283,-8,cs)
);
},
{
closed = 1;
nodes = (
(158,46,o),
(72,116,o),
(72,245,cs),
(72,381,o),
(158,464,o),
(284,464,cs),
(406,464,o),
(489,389,o),
(489,265,cs),
(489,135,o),
(407,46,o),
(281,46,cs)
);
},
{
closed = 1;
nodes = (
(318,548,l),
(542,744,l),
(513,780,l),
(288,583,l)
);
}
);
width = 585;
},
{
associatedMasterId = "41EDA971-A137-4972-81AF-7929AB7CAABF";
background = {
shapes = (
{
closed = 1;
nodes = (
(440,-16,o),
(537,73,o),
(537,346,cs),
(537,626,o),
(424,788,o),
(224,788,cs),
(145,788,o),
(85,770,o),
(39,734,c),
(87,535,l),
(128,548,o),
(174,555,o),
(220,555,cs),
(388,555,o),
(455,503,o),
(458,329,c),
(489,333,l),
(442,382,o),
(378,408,o),
(283,408,cs),
(105,408,o),
(20,336,o),
(20,198,cs),
(20,50,o),
(117,-16,o),
(269,-16,cs)
);
},
{
closed = 1;
nodes = (
(151,182,o),
(99,209,o),
(99,259,cs),
(99,302,o),
(151,336,o),
(278,336,cs),
(396,336,o),
(458,300,o),
(458,259,cs),
(458,209,o),
(406,182,o),
(278,182,cs)
);
},
{
closed = 1;
nodes = (
(617,687,l),
(532,788,l),
(219,522,l),
(304,421,l)
);
}
);
};
layerId = "0C7882C9-2F45-4FD9-A9A9-035083F9A010";
name = "28 août 24 à 15:02";
shapes = (
{
closed = 1;
nodes = (
(440,-16,o),
(537,73,o),
(537,346,cs),
(537,626,o),
(424,788,o),
(224,788,cs),
(145,788,o),
(85,770,o),
(39,734,c),
(87,535,l),
(128,548,o),
(174,555,o),
(220,555,cs),
(388,555,o),
(455,503,o),
(458,329,c),
(489,333,l),
(442,382,o),
(378,408,o),
(283,408,cs),
(105,408,o),
(20,336,o),
(20,198,cs),
(20,50,o),
(117,-16,o),
(269,-16,cs)
);
},
{
closed = 1;
nodes = (
(151,182,o),
(99,209,o),
(99,259,cs),
(99,302,o),
(151,336,o),
(278,336,cs),
(396,336,o),
(458,300,o),
(458,259,cs),
(458,209,o),
(406,182,o),
(278,182,cs)
);
},
{
closed = 1;
nodes = (
(606,678,l),
(517,776,l),
(236,517,l),
(325,419,l)
);
}
);
width = 560;
},
{
associatedMasterId = "41EDA971-A137-4972-81AF-7929AB7CAABF";
background = {
shapes = (
{
closed = 1;
nodes = (
(535,375,l),
(535,649,o),
(430,788,o),
(253,788,cs),
(155,788,o),
(78,754,o),
(29,699,c),
(77,503,l),
(118,527,o),
(176,540,o),
(234,540,cs),
(383,540,o),
(454,497,o),
(456,372,c)
);
}
);
};
layerId = "474277C5-AAF7-4072-B680-739C87621C5C";
name = "28 août 24 à 15:27";
shapes = (
{
closed = 1;
nodes = (
(440,-16,o),
(537,73,o),
(537,346,cs),
(537,626,o),
(424,788,o),
(224,788,cs),
(145,788,o),
(85,770,o),
(39,734,c),
(87,535,l),
(128,548,o),
(174,555,o),
(220,555,cs),
(388,555,o),
(455,503,o),
(458,329,c),
(489,333,l),
(442,382,o),
(378,408,o),
(283,408,cs),
(105,408,o),
(20,336,o),
(20,198,cs),
(20,50,o),
(117,-16,o),
(269,-16,cs)
);
},
{
closed = 1;
nodes = (
(141,182,o),
(99,208,o),
(99,256,cs),
(99,297,o),
(141,330,o),
(278,330,cs),
(406,330,o),
(458,295,o),
(458,256,cs),
(458,208,o),
(416,182,o),
(278,182,cs)
);
},
{
closed = 1;
nodes = (
(592,702,l),
(492,788,l),
(249,502,l),
(349,416,l)
);
}
);
width = 560;
},
{
associatedMasterId = "79167EE4-8C29-4BCE-A9E7-C1CFC4557E33";
background = {
shapes = (
{
closed = 1;
nodes = (
(424,-8,o),
(519,86,o),
(519,245,cs),
(519,404,o),
(424,498,o),
(281,498,cs),
(137,498,o),
(42,404,o),
(42,245,cs),
(42,86,o),
(137,-8,o),
(281,-8,cs)
);
},
{
closed = 1;
nodes = (
(150,46,o),
(72,128,o),
(72,256,cs),
(72,384,o),
(150,464,o),
(281,464,cs),
(411,464,o),
(489,385,o),
(489,256,cs),
(489,127,o),
(411,46,o),
(281,46,cs)
);
}
);
};
layerId = "545FDF63-1A69-41B6-AF17-4136B8FFB8A0";
name = "28 août 24 à 15:28";
shapes = (
{
closed = 1;
nodes = (
(435,-8,o),
(534,95,o),
(534,377,cs),
(534,609,o),
(457,780,o),
(241,780,cs),
(178,780,o),
(126,764,o),
(99,743,c),
(113,697,l),
(134,709,o),
(185,722,o),
(239,722,cs),
(427,722,o),
(499,616,o),
(498,356,c),
(505,351,l),
(463,449,o),
(386,498,o),
(281,498,cs),
(137,498,o),
(42,404,o),
(42,245,cs),
(42,86,o),
(137,-8,o),
(281,-8,cs)
);
},
{
closed = 1;
nodes = (
(150,46,o),
(72,128,o),
(72,256,cs),
(72,379,o),
(150,456,o),
(281,456,cs),
(410,456,o),
(487,380,o),
(487,256,cs),
(487,134,o),
(409,46,o),
(281,46,cs)
);
},
{
closed = 1;
nodes = (
(542,744,l),
(513,780,l),
(288,583,l),
(318,548,l)
);
}
);
width = 585;
}
);
metricLeft = "=o";
unicode = 240;
},
{
glyphname = e;
lastChange = "2024-08-28 15:50:26 +0000";
layers = (
{
anchors = (
{
name = ogonek;
pos = (410,0);
},
{
name = top;
pos = (286,548);
}
);
layerId = "79167EE4-8C29-4BCE-A9E7-C1CFC4557E33";
shapes = (
{
closed = 1;
nodes = (
(389,-8,o),
(453,35,o),
(479,84,c),
(467,119,l),
(430,72,o),
(363,45,o),
(297,46,cs),
(157,48,o),
(72,123,o),
(72,273,cs),
(72,287,ls),
(72,415,o),
(162,498,o),
(285,498,cs),
(417,498,o),
(475,414,o),
(475,270,c),
(492,306,l),
(64,306,l),
(64,270,l),
(504,270,l),
(509,467,o),
(417,556,o),
(285,556,cs),
(146,556,o),
(42,457,o),
(42,272,cs),
(42,108,o),
(121,-8,o),
(290,-8,cs)
);
}
);
width = 536;
},
{
anchors = (
{
name = ogonek;
pos = (426,0);
},
{
name = top;
pos = (269,556);
}
);
background = {
shapes = (
{
closed = 1;
nodes = (
(372,-16,o),
(446,19,o),
(486,87,c),
(443,215,l),
(406,190,o),
(349,172,o),
(262,172,cs),
(165,173,o),
(100,202,o),
(100,247,cs),
(100,280,ls),
(100,320,o),
(134,346,o),
(271,346,cs),
(394,346,o),
(424,322,o),
(425,286,c),
(455,297,l),
(99,297,l),
(99,231,l),
(498,231,l),
(511,472,o),
(440,580,o),
(279,580,cs),
(106,580,o),
(22,464,o),
(22,275,cs),
(22,54,o),
(129,-16,o),
(264,-16,cs)
);
}
);
};
layerId = "41EDA971-A137-4972-81AF-7929AB7CAABF";
shapes = (
{
closed = 1;
nodes = (
(370,-16,o),
(445,17,o),
(486,86,c),
(443,213,l),
(406,189,o),
(348,172,o),
(262,172,cs),
(149,172,o),
(100,198,o),
(100,243,cs),
(100,276,ls),
(100,314,o),
(135,339,o),
(271,339,cs),
(393,339,o),
(424,316,o),
(425,282,c),
(455,290,l),
(99,290,l),
(99,224,l),
(498,224,l),
(511,465,o),
(436,572,o),
(277,572,cs),
(104,572,o),
(22,459,o),
(22,271,cs),
(22,53,o),
(124,-16,o),
(272,-16,cs)
);
}
);
width = 519;
},
{
anchors = (
{
name = ogonek;
pos = (422,0);
},
{
name = top;
pos = (297,548);
}
);
associatedMasterId = "79167EE4-8C29-4BCE-A9E7-C1CFC4557E33";
layerId = "6791878D-E123-400F-9058-280D6DCA66E5";
name = "1 déc. 21 à 14:52";
shapes = (
{
closed = 1;
nodes = (
(394,-8,o),
(458,34,o),
(487,83,c),
(471,118,l),
(438,69,o),
(377,43,o),
(304,43,cs),
(165,44,o),
(89,116,o),
(89,268,c),
(89,421,o),
(163,505,o),
(296,505,cs),
(425,505,o),
(481,418,o),
(481,269,c),
(518,308,l),
(54,308,l),
(54,270,l),
(518,270,l),
(522,467,o),
(437,556,o),
(291,556,cs),
(156,556,o),
(52,453,o),
(52,266,cs),
(52,112,o),
(127,-8,o),
(303,-8,cs)
);
}
);
width = 561;
},
{
anchors = (
{
name = ogonek;
pos = (416,0);
},
{
name = top;
pos = (292,548);
}
);
associatedMasterId = "79167EE4-8C29-4BCE-A9E7-C1CFC4557E33";
layerId = "BAFB2E02-57A7-44C9-B0D6-C76866DA3F0B";
name = "9 déc. 21 à 14:27";
shapes = (
{
closed = 1;
nodes = (
(380,-8,o),
(449,34,o),
(480,87,c),
(464,117,l),
(432,72,o),
(371,45,o),
(301,46,cs),
(166,47,o),
(81,125,o),
(81,270,cs),
(81,419,o),
(164,500,o),
(291,500,cs),
(423,500,o),
(479,415,o),
(479,270,c),
(497,308,l),
(63,308,l),
(63,266,l),
(509,266,l),
(514,466,o),
(423,556,o),
(291,556,cs),
(154,556,o),
(51,457,o),
(51,273,cs),
(51,115,o),
(127,-8,o),
(298,-8,cs)
);
}
);
width = 551;
},
{
anchors = (
{
name = ogonek;
pos = (425,0);
},
{
name = top;
pos = (284,565);
}
);
associatedMasterId = "41EDA971-A137-4972-81AF-7929AB7CAABF";
layerId = "3994BD72-EDB8-4A0C-910C-D3B94AEF5919";
name = "9 avr. 24 à 10:33";
shapes = (
{
closed = 1;
nodes = (
(371,-18,o),
(446,27,o),
(487,99,c),
(439,229,l),
(403,196,o),
(347,173,o),
(262,173,cs),
(157,174,o),
(102,218,o),
(102,280,cs),
(102,319,o),
(136,345,o),
(271,345,cs),
(395,345,o),
(425,321,o),
(426,286,c),
(454,297,l),
(98,297,l),
(98,231,l),
(507,231,l),
(510,482,o),
(429,581,o),
(278,581,cs),
(125,581,o),
(21,474,o),
(21,275,cs),
(21,78,o),
(118,-18,o),
(263,-18,cs)
);
}
);
width = 518;
},
{
anchors = (
{
name = ogonek;
pos = (416,0);
},
{
name = top;
pos = (292,548);
}
);
associatedMasterId = "79167EE4-8C29-4BCE-A9E7-C1CFC4557E33";
background = {
shapes = (
{
closed = 0;
nodes = (
(298,45,ls),
(368,45,o),
(439,80,o),
(466,125,c),
(481,85,l),
(454,33,o),
(384,-8,o),
(304,-8,cs)
);
},
{
closed = 1;
nodes = (
(388,-8,o),
(454,34,o),
(481,85,c),
(466,125,l),
(437,78,o),
(366,45,o),
(301,46,cs),
(166,48,o),
(81,125,o),
(81,270,cs),
(81,419,o),
(164,500,o),
(291,500,cs),
(423,500,o),
(479,415,o),
(479,270,c),
(497,308,l),
(63,308,l),
(63,266,l),
(509,266,l),
(514,466,o),
(423,556,o),
(291,556,cs),
(154,556,o),
(51,457,o),
(51,273,cs),
(51,115,o),
(127,-8,o),
(298,-8,cs)
);
}
);
};
layerId = "9547BB28-DCE7-47E9-A339-E266A0645098";
name = "9 avr. 24 à 10:36";
shapes = (
{
closed = 1;
nodes = (
(388,-8,o),
(454,34,o),
(481,85,c),
(466,125,l),
(437,78,o),
(366,45,o),
(301,46,cs),
(166,48,o),
(81,125,o),
(81,270,cs),
(81,419,o),
(164,500,o),
(291,500,cs),
(423,500,o),
(479,415,o),
(479,270,c),
(497,308,l),
(63,308,l),
(63,266,l),
(509,266,l),
(514,466,o),
(423,556,o),
(291,556,cs),
(154,556,o),
(51,457,o),
(51,273,cs),
(51,115,o),
(127,-8,o),
(298,-8,cs)
);
}
);
width = 551;
},
{
anchors = (
{
name = ogonek;
pos = (414,0);
},
{
name = top;
pos = (290,548);
}
);
associatedMasterId = "79167EE4-8C29-4BCE-A9E7-C1CFC4557E33";
background = {
shapes = (
{
closed = 0;
nodes = (
(298,45,l),
(368,45,o),
(439,80,o),
(466,125,c),
(481,85,l),
(454,33,o),
(384,-8,o),
(304,-8,cs)
);
}
);
};
layerId = "26CC69EE-3824-44A8-80A2-07D29C4EBD5C";
name = "10 avr. 24 à 14:54";
shapes = (
{
closed = 1;
nodes = (
(385,-8,o),
(453,34,o),
(481,85,c),
(465,125,l),
(436,78,o),
(364,45,o),
(298,46,cs),
(162,48,o),
(76,125,o),
(76,270,cs),
(76,287,ls),
(76,415,o),
(166,498,o),
(289,498,cs),
(421,498,o),
(479,414,o),
(479,270,c),
(496,306,l),
(68,306,l),
(68,270,l),
(508,270,l),
(513,467,o),
(421,556,o),
(289,556,cs),
(150,556,o),
(46,457,o),
(46,273,cs),
(46,116,o),
(123,-8,o),
(295,-8,cs)
);
}
);
width = 546;
},
{
anchors = (
{
name = ogonek;
pos = (414,0);
},
{
name = top;
pos = (290,548);
}
);
associatedMasterId = "79167EE4-8C29-4BCE-A9E7-C1CFC4557E33";
background = {
shapes = (
{
closed = 1;
nodes = (
(46,271,l),
(46,108,o),
(123,-8,o),
(294,-8,cs),
(393,-8,o),
(457,35,o),
(483,82,c),
(470,117,l),
(435,74,o),
(366,45,o),
(299,46,cs),
(160,48,o),
(76,123,o),
(76,275,c)
);
}
);
};
layerId = "943C18BA-4B02-4F58-9141-257715FBACD4";
name = "24 juin 24 à 15:43";
shapes = (
{
closed = 1;
nodes = (
(393,-8,o),
(457,35,o),
(483,82,c),
(470,117,l),
(435,74,o),
(366,45,o),
(299,46,cs),
(160,48,o),
(76,123,o),
(76,273,cs),
(76,287,ls),
(76,415,o),
(166,498,o),
(289,498,cs),
(421,498,o),
(479,414,o),
(479,270,c),
(496,306,l),
(68,306,l),
(68,270,l),
(508,270,l),
(513,467,o),
(421,556,o),
(289,556,cs),
(150,556,o),
(46,457,o),
(46,272,cs),
(46,108,o),
(123,-8,o),
(294,-8,cs)
);
}
);
width = 546;
}
);
metricLeft = "=o";
unicode = 101;
},
{
glyphname = eogonek;
lastChange = "2024-08-28 13:43:58 +0000";
layers = (
{
layerId = "79167EE4-8C29-4BCE-A9E7-C1CFC4557E33";
shapes = (
{
ref = e;
},
{
closed = 1;
nodes = (
(432,-203,o),
(462,-185,o),
(476,-160,c),
(468,-125,l),
(451,-140,o),
(428,-150,o),
(396,-150,cs),
(357,-150,o),
(335,-133,o),
(335,-100,cs),
(335,-66,o),
(358,-27,o),
(442,40,c),
(417,51,l),
(333,-13,o),
(296,-67,o),
(296,-120,cs),
(296,-175,o),
(329,-203,o),
(388,-203,cs)
);
}
);
width = 536;
},
{
background = {
shapes = (
{
closed = 1;
nodes = (
(419,-214,o),
(470,-185,o),
(489,-149,c),
(459,-64,l),
(433,-80,o),
(407,-88,o),
(387,-88,cs),
(358,-88,o),
(349,-80,o),
(349,-67,cs),
(349,-51,o),
(364,-29,o),
(446,0,c),
(383,25,l),
(278,-16,o),
(240,-57,o),
(240,-115,cs),
(240,-178,o),
(286,-214,o),
(360,-214,cs)
);
}
);
};
layerId = "41EDA971-A137-4972-81AF-7929AB7CAABF";
shapes = (
{
ref = e;
},
{
closed = 1;
nodes = (
(419,-214,o),
(470,-185,o),
(489,-149,c),
(459,-64,l),
(433,-80,o),
(407,-88,o),
(387,-88,cs),
(358,-88,o),
(349,-77,o),
(349,-61,cs),
(349,-40,o),
(364,-19,o),
(439,35,c),
(376,60,l),
(278,-16,o),
(240,-57,o),
(240,-115,cs),
(240,-178,o),
(286,-214,o),
(360,-214,cs)
);
}
);
width = 519;
},
{
associatedMasterId = "41EDA971-A137-4972-81AF-7929AB7CAABF";
layerId = "580C1BF9-B310-4648-88AD-5FA0B8E1A8A3";
name = "28 août 24 à 15:04";
shapes = (
{
ref = e;
},
{
pos = (143,0);
ref = ogonekcomb;
scale = (1.0095,1.0095);
}
);
width = 519;
},
{
associatedMasterId = "79167EE4-8C29-4BCE-A9E7-C1CFC4557E33";
layerId = "985332B6-0E0C-4255-93DE-8CC408942696";
name = "28 août 24 à 15:04";
shapes = (
{
ref = e;
},
{
pos = (160,0);
ref = ogonekcomb;
}
);
width = 536;
}
);
metricLeft = "=e";
metricRight = "=e@274";
unicode = 281;
},
{
glyphname = schwa;
lastChange = "2024-08-28 13:43:58 +0000";
layers = (
{
layerId = "79167EE4-8C29-4BCE-A9E7-C1CFC4557E33";
shapes = (
{
closed = 1;
nodes = (
(394,-8,o),
(494,91,o),
(494,276,cs),
(494,450,o),
(418,556,o),
(256,556,cs),
(152,556,o),
(84,513,o),
(57,464,c),
(69,429,l),
(108,473,o),
(179,499,o),
(249,498,cs),
(383,496,o),
(464,432,o),
(464,275,cs),
(464,261,ls),
(464,131,o),
(382,46,o),
(271,46,cs),
(125,46,o),
(61,131,o),
(61,278,c),
(44,242,l),
(472,242,l),
(472,278,l),
(32,278,l),
(27,81,o),
(123,-8,o),
(261,-8,cs)
);
}
);
width = 536;
},
{
background = {
anchors = (
{
name = bottom;
pos = (242,0);
},
{
name = ogonek;
pos = (93,564);
}
);
};
layerId = "41EDA971-A137-4972-81AF-7929AB7CAABF";
shapes = (
{
closed = 1;
nodes = (
(418,-16,o),
(497,98,o),
(497,289,cs),
(497,510,o),
(399,580,o),
(257,580,cs),
(152,580,o),
(75,545,o),
(33,477,c),
(76,303,l),
(113,328,o),
(170,346,o),
(257,346,cs),
(371,346,o),
(419,318,o),
(419,271,cs),
(419,238,ls),
(419,198,o),
(385,172,o),
(248,172,cs),
(125,172,o),
(95,196,o),
(94,232,c),
(64,224,l),
(420,224,l),
(420,290,l),
(21,290,l),
(8,78,o),
(86,-16,o),
(257,-16,cs)
);
}
);
width = 519;
},
{
associatedMasterId = "79167EE4-8C29-4BCE-A9E7-C1CFC4557E33";
layerId = "71D12B1B-B7E6-49EF-AA85-24594F391C32";
name = "27 juin 24 à 15:11";
shapes = (
{
closed = 1;
nodes = (
(402,-3,o),
(513,99,o),
(513,283,cs),
(513,433,o),
(438,553,o),
(265,553,cs),
(170,553,o),
(100,519,o),
(71,480,c),
(78,434,l),
(113,480,o),
(178,505,o),
(259,505,cs),
(393,505,o),
(474,434,o),
(474,289,c),
(474,135,o),
(395,49,o),
(260,49,cs),
(123,49,o),
(71,139,o),
(71,293,c),
(32,255,l),
(510,255,l),
(510,292,l),
(33,292,l),
(30,89,o),
(115,-3,o),
(263,-3,cs)
);
}
);
width = 559;
},
{
associatedMasterId = "41EDA971-A137-4972-81AF-7929AB7CAABF";
layerId = "11AD8201-139B-4F90-BEEA-0B71A0D0354C";
name = "27 juin 24 à 15:12";
shapes = (
{
closed = 1;
nodes = (
(393,-16,o),
(477,89,o),
(477,286,cs),
(477,486,o),
(390,572,o),
(257,572,cs),
(140,572,o),
(72,527,o),
(44,464,c),
(92,268,l),
(123,297,o),
(167,313,o),
(259,312,cs),
(364,310,o),
(393,291,o),
(393,253,cs),
(393,205,o),
(353,180,o),
(251,180,cs),
(173,180,o),
(110,196,o),
(110,225,c),
(80,204,l),
(402,204,l),
(402,280,l),
(28,280,l),
(25,65,o),
(106,-16,o),
(255,-16,cs)
);
}
);
width = 496;
},
{
associatedMasterId = "41EDA971-A137-4972-81AF-7929AB7CAABF";
background = {
anchors = (
{
name = bottom;
pos = (233,0);
},
{
name = ogonek;
pos = (84,564);
}
);
};
layerId = "92177E19-8A8E-4F0E-943A-2B83D75BB4F4";
name = "27 juin 24 à 15:13";
shapes = (
{
closed = 1;
nodes = (
(393,-16,o),
(477,89,o),
(477,286,cs),
(477,486,o),
(390,572,o),
(257,572,cs),
(140,572,o),
(72,527,o),
(44,464,c),
(92,268,l),
(123,297,o),
(167,313,o),
(259,312,cs),
(364,310,o),
(393,291,o),
(393,253,cs),
(393,205,o),
(353,180,o),
(251,180,cs),
(173,180,o),
(110,196,o),
(110,225,c),
(80,204,l),
(402,204,l),
(402,280,l),
(28,280,l),
(25,65,o),
(106,-16,o),
(255,-16,cs)
);
}
);
width = 496;
}
);
metricLeft = "=|e";
metricRight = "=o";
unicode = 601;
},
{
glyphname = f;
lastChange = "2024-06-27 15:12:17 +0000";
layers = (
{
layerId = "79167EE4-8C29-4BCE-A9E7-C1CFC4557E33";
shapes = (
{
closed = 1;
nodes = (
(131,541,l),
(131,603,ls),
(131,690,o),
(160,722,o),
(245,722,cs),
(282,722,o),
(319,710,o),
(338,689,c),
(353,731,l),
(339,757,o),
(303,780,o),
(251,780,cs),
(158,780,o),
(101,729,o),
(101,601,cs),
(101,541,l)
);
},
{
closed = 1;
nodes = (
(131,0,l),
(131,518,l),
(101,518,l),
(101,0,l)
);
},
{
closed = 1;
nodes = (
(277,494,l),
(277,548,l),
(12,548,l),
(12,494,l)
);
}
);
width = 289;
},
{
background = {
anchors = (
{
name = bottom;
pos = (297.488,249);
}
);
shapes = (
{
closed = 1;
nodes = (
(188,505,l),
(187,508,o),
(186,513,o),
(186,518,cs),
(186,554,o),
(215,572,o),
(298,572,cs),
(347,572,o),
(380,564,o),
(403,546,c),
(445,717,l),
(420,761,o),
(373,788,o),
(294,788,cs),
(175,788,o),
(98,726,o),
(98,590,cs),
(98,560,o),
(101,527,o),
(107,502,c)
);
},
{
closed = 1;
nodes = (
(192,0,l),
(192,290,l),
(100,290,l),
(100,0,l)
);
},
{
closed = 1;
nodes = (
(355,268,l),
(355,531,l),
(22,531,l),
(22,268,l)
);
}
);
};
layerId = "41EDA971-A137-4972-81AF-7929AB7CAABF";
shapes = (
{
closed = 1;
nodes = (
(192,504,l),
(192,525,ls),
(192,557,o),
(215,572,o),
(298,572,cs),
(347,572,o),
(380,564,o),
(403,546,c),
(445,717,l),
(420,761,o),
(373,788,o),
(294,788,cs),
(175,788,o),
(98,726,o),
(98,590,cs),
(100,504,l)
);
},
{
closed = 1;
nodes = (
(192,0,l),
(192,290,l),
(100,290,l),
(100,0,l)
);
},
{
closed = 1;
nodes = (
(355,268,l),
(355,531,l),
(22,531,l),
(22,268,l)
);
}
);
width = 395;
},
{
associatedMasterId = "41EDA971-A137-4972-81AF-7929AB7CAABF";
layerId = "7AED1357-3406-4FBA-8323-0A4715F59981";
name = "9 avr. 24 à 11:17";
shapes = (
{
closed = 1;
nodes = (
(187,501,l),
(179,548,o),
(223,572,o),
(301,572,cs),
(339,572,o),
(367,566,o),
(383,555,c),
(440,735,l),
(418,776,o),
(374,797,o),
(300,797,cs),
(181,797,o),
(98,737,o),
(98,589,cs),
(98,563,o),
(100,533,o),
(106,501,c)
);
},
{
closed = 1;
nodes = (
(195,0,l),
(195,275,l),
(100,275,l),
(100,0,l)
);
},
{
closed = 1;
nodes = (
(355,268,l),
(355,531,l),
(22,531,l),
(22,268,l)
);
}
);
width = 385;
},
{
associatedMasterId = "79167EE4-8C29-4BCE-A9E7-C1CFC4557E33";
layerId = "3DDA6A35-836D-44E6-82D8-B6D9793775F5";
name = "10 avr. 24 à 14:55";
shapes = (
{
closed = 1;
nodes = (
(161,541,l),
(160,555,o),
(160,569,o),
(160,581,cs),
(160,687,o),
(192,722,o),
(269,722,cs),
(306,722,o),
(335,712,o),
(348,696,c),
(363,738,l),
(347,764,o),
(320,780,o),
(275,780,cs),
(195,780,o),
(130,732,o),
(130,586,cs),
(130,575,o),
(131,557,o),
(132,541,c)
);
},
{
closed = 1;
nodes = (
(161,0,l),
(161,518,l),
(131,518,l),
(131,0,l)
);
},
{
closed = 1;
nodes = (
(302,494,l),
(302,548,l),
(45,548,l),
(45,494,l)
);
}
);
width = 334;
},
{
associatedMasterId = "79167EE4-8C29-4BCE-A9E7-C1CFC4557E33";
layerId = "B9D648BE-E6E4-463E-85A2-A6788D6FBFC9";
name = "24 juin 24 à 13:37";
shapes = (
{
closed = 1;
nodes = (
(161,541,l),
(160,555,o),
(160,569,o),
(160,581,cs),
(160,687,o),
(193,722,o),
(271,722,cs),
(307,723,o),
(343,710,o),
(361,692,c),
(376,731,l),
(362,757,o),
(328,780,o),
(277,780,cs),
(196,780,o),
(130,732,o),
(130,586,cs),
(130,575,o),
(131,557,o),
(132,541,c)
);
},
{
closed = 1;
nodes = (
(161,0,l),
(161,518,l),
(131,518,l),
(131,0,l)
);
},
{
closed = 1;
nodes = (
(302,494,l),
(302,548,l),
(45,548,l),
(45,494,l)
);
}
);
width = 334;
},
{
associatedMasterId = "41EDA971-A137-4972-81AF-7929AB7CAABF";
background = {
anchors = (
{
name = bottom;
pos = (297.488,249);
}
);
shapes = (
{
closed = 1;
nodes = (
(188,505,l),
(187,515,l),
(183,552,o),
(213,572,o),
(298,572,cs),
(347,572,o),
(380,564,o),
(403,546,c),
(445,717,l),
(420,761,o),
(373,788,o),
(294,788,cs),
(175,788,o),
(98,726,o),
(98,590,cs),
(98,560,o),
(101,527,o),
(107,502,c)
);
},
{
closed = 1;
nodes = (
(196,0,l),
(196,290,l),
(100,290,l),
(100,0,l)
);
},
{
closed = 1;
nodes = (
(355,268,l),
(355,531,l),
(22,531,l),
(22,268,l)
);
}
);
};
layerId = "9F7A8964-D061-4D9E-95D8-9A0F160FFB04";
name = "24 juin 24 à 13:39";
shapes = (
{
closed = 1;
nodes = (
(188,505,l),
(187,508,o),
(186,513,o),
(186,518,cs),
(186,554,o),
(215,572,o),
(298,572,cs),
(347,572,o),
(380,564,o),
(403,546,c),
(445,717,l),
(420,761,o),
(373,788,o),
(294,788,cs),
(175,788,o),
(98,726,o),
(98,590,cs),
(98,560,o),
(101,527,o),
(107,502,c)
);
},
{
closed = 1;
nodes = (
(192,0,l),
(192,290,l),
(100,290,l),
(100,0,l)
);
},
{
closed = 1;
nodes = (
(355,268,l),
(355,531,l),
(22,531,l),
(22,268,l)
);
}
);
width = 385;
},
{
associatedMasterId = "79167EE4-8C29-4BCE-A9E7-C1CFC4557E33";
layerId = "153B3812-5202-4585-A644-392B0512A893";
name = "27 juin 24 à 17:11";
shapes = (
{
closed = 1;
nodes = (
(152,541,l),
(152,603,ls),
(152,690,o),
(179,722,o),
(262,722,cs),
(298,722,o),
(334,710,o),
(352,689,c),
(367,731,l),
(353,757,o),
(319,780,o),
(268,780,cs),
(177,780,o),
(122,729,o),
(122,601,cs),
(122,541,l)
);
},
{
closed = 1;
nodes = (
(152,0,l),
(152,518,l),
(122,518,l),
(122,0,l)
);
},
{
closed = 1;
nodes = (
(293,494,l),
(293,548,l),
(36,548,l),
(36,494,l)
);
}
);
width = 325;
},
{
associatedMasterId = "79167EE4-8C29-4BCE-A9E7-C1CFC4557E33";
layerId = "277B77CB-C6DA-464E-B653-C86DA311FEE5";
name = "27 juin 24 à 17:12";
shapes = (
{
closed = 1;
nodes = (
(128,541,l),
(128,603,ls),
(128,690,o),
(155,722,o),
(238,722,cs),
(274,722,o),
(310,710,o),
(328,689,c),
(343,731,l),
(329,757,o),
(295,780,o),
(244,780,cs),
(153,780,o),
(98,729,o),
(98,601,cs),
(98,541,l)
);
},
{
closed = 1;
nodes = (
(128,0,l),
(128,518,l),
(98,518,l),
(98,0,l)
);
},
{
closed = 1;
nodes = (
(269,494,l),
(269,548,l),
(12,548,l),
(12,494,l)
);
}
);
width = 283;
}
);
unicode = 102;
},
